<mxfile host="Electron" modified="2023-06-21T03:31:11.485Z" agent="Mozilla/5.0 (Windows NT 10.0; Win64; x64) AppleWebKit/537.36 (KHTML, like Gecko) draw.io/21.2.8 Chrome/112.0.5615.165 Electron/24.2.0 Safari/537.36" etag="lEd2Svek-djI9sQ3Qbiu" version="21.2.8" type="device" pages="4">
  <diagram name="domain_models" id="f1EFh1hx9JwJ01cUP3-C">
    <mxGraphModel dx="993" dy="675" grid="1" gridSize="10" guides="1" tooltips="1" connect="1" arrows="1" fold="1" page="1" pageScale="1" pageWidth="850" pageHeight="1100" math="0" shadow="0">
      <root>
        <mxCell id="0" />
        <mxCell id="1" parent="0" />
        <mxCell id="AmdDYNb3q1W9D1PbskiA-66" value="Game" style="swimlane;fontStyle=0;childLayout=stackLayout;horizontal=1;startSize=30;horizontalStack=0;resizeParent=1;resizeParentMax=0;resizeLast=0;collapsible=1;marginBottom=0;whiteSpace=wrap;html=1;" parent="1" vertex="1">
          <mxGeometry x="10" y="150" width="140" height="180" as="geometry" />
        </mxCell>
        <mxCell id="AmdDYNb3q1W9D1PbskiA-67" value="roundNumber" style="text;strokeColor=none;fillColor=none;align=left;verticalAlign=middle;spacingLeft=4;spacingRight=4;overflow=hidden;points=[[0,0.5],[1,0.5]];portConstraint=eastwest;rotatable=0;whiteSpace=wrap;html=1;" parent="AmdDYNb3q1W9D1PbskiA-66" vertex="1">
          <mxGeometry y="30" width="140" height="30" as="geometry" />
        </mxCell>
        <mxCell id="AmdDYNb3q1W9D1PbskiA-68" value="player" style="text;strokeColor=none;fillColor=none;align=left;verticalAlign=middle;spacingLeft=4;spacingRight=4;overflow=hidden;points=[[0,0.5],[1,0.5]];portConstraint=eastwest;rotatable=0;whiteSpace=wrap;html=1;" parent="AmdDYNb3q1W9D1PbskiA-66" vertex="1">
          <mxGeometry y="60" width="140" height="30" as="geometry" />
        </mxCell>
        <mxCell id="AmdDYNb3q1W9D1PbskiA-69" value="dealer" style="text;strokeColor=none;fillColor=none;align=left;verticalAlign=middle;spacingLeft=4;spacingRight=4;overflow=hidden;points=[[0,0.5],[1,0.5]];portConstraint=eastwest;rotatable=0;whiteSpace=wrap;html=1;" parent="AmdDYNb3q1W9D1PbskiA-66" vertex="1">
          <mxGeometry y="90" width="140" height="30" as="geometry" />
        </mxCell>
        <mxCell id="AmdDYNb3q1W9D1PbskiA-70" value="deck" style="text;strokeColor=none;fillColor=none;align=left;verticalAlign=middle;spacingLeft=4;spacingRight=4;overflow=hidden;points=[[0,0.5],[1,0.5]];portConstraint=eastwest;rotatable=0;whiteSpace=wrap;html=1;" parent="AmdDYNb3q1W9D1PbskiA-66" vertex="1">
          <mxGeometry y="120" width="140" height="30" as="geometry" />
        </mxCell>
        <mxCell id="AmdDYNb3q1W9D1PbskiA-71" value="betAmount" style="text;strokeColor=none;fillColor=none;align=left;verticalAlign=middle;spacingLeft=4;spacingRight=4;overflow=hidden;points=[[0,0.5],[1,0.5]];portConstraint=eastwest;rotatable=0;whiteSpace=wrap;html=1;" parent="AmdDYNb3q1W9D1PbskiA-66" vertex="1">
          <mxGeometry y="150" width="140" height="30" as="geometry" />
        </mxCell>
        <mxCell id="AmdDYNb3q1W9D1PbskiA-72" value="Bet" style="swimlane;fontStyle=0;childLayout=stackLayout;horizontal=1;startSize=30;horizontalStack=0;resizeParent=1;resizeParentMax=0;resizeLast=0;collapsible=1;marginBottom=0;whiteSpace=wrap;html=1;" parent="1" vertex="1">
          <mxGeometry x="450" y="170" width="140" height="60" as="geometry" />
        </mxCell>
        <mxCell id="AmdDYNb3q1W9D1PbskiA-73" value="amount" style="text;strokeColor=none;fillColor=none;align=left;verticalAlign=middle;spacingLeft=4;spacingRight=4;overflow=hidden;points=[[0,0.5],[1,0.5]];portConstraint=eastwest;rotatable=0;whiteSpace=wrap;html=1;" parent="AmdDYNb3q1W9D1PbskiA-72" vertex="1">
          <mxGeometry y="30" width="140" height="30" as="geometry" />
        </mxCell>
        <mxCell id="AmdDYNb3q1W9D1PbskiA-74" value="Player" style="swimlane;fontStyle=0;childLayout=stackLayout;horizontal=1;startSize=30;horizontalStack=0;resizeParent=1;resizeParentMax=0;resizeLast=0;collapsible=1;marginBottom=0;whiteSpace=wrap;html=1;" parent="1" vertex="1">
          <mxGeometry x="270" y="255" width="140" height="210" as="geometry" />
        </mxCell>
        <mxCell id="AmdDYNb3q1W9D1PbskiA-75" value="name" style="text;strokeColor=none;fillColor=none;align=left;verticalAlign=middle;spacingLeft=4;spacingRight=4;overflow=hidden;points=[[0,0.5],[1,0.5]];portConstraint=eastwest;rotatable=0;whiteSpace=wrap;html=1;" parent="AmdDYNb3q1W9D1PbskiA-74" vertex="1">
          <mxGeometry y="30" width="140" height="30" as="geometry" />
        </mxCell>
        <mxCell id="AmdDYNb3q1W9D1PbskiA-77" value="chips" style="text;strokeColor=none;fillColor=none;align=left;verticalAlign=middle;spacingLeft=4;spacingRight=4;overflow=hidden;points=[[0,0.5],[1,0.5]];portConstraint=eastwest;rotatable=0;whiteSpace=wrap;html=1;" parent="AmdDYNb3q1W9D1PbskiA-74" vertex="1">
          <mxGeometry y="60" width="140" height="30" as="geometry" />
        </mxCell>
        <mxCell id="AmdDYNb3q1W9D1PbskiA-78" value="totalBetAmount" style="text;strokeColor=none;fillColor=none;align=left;verticalAlign=middle;spacingLeft=4;spacingRight=4;overflow=hidden;points=[[0,0.5],[1,0.5]];portConstraint=eastwest;rotatable=0;whiteSpace=wrap;html=1;" parent="AmdDYNb3q1W9D1PbskiA-74" vertex="1">
          <mxGeometry y="90" width="140" height="30" as="geometry" />
        </mxCell>
        <mxCell id="AmdDYNb3q1W9D1PbskiA-76" value="hand" style="text;strokeColor=none;fillColor=none;align=left;verticalAlign=middle;spacingLeft=4;spacingRight=4;overflow=hidden;points=[[0,0.5],[1,0.5]];portConstraint=eastwest;rotatable=0;whiteSpace=wrap;html=1;" parent="AmdDYNb3q1W9D1PbskiA-74" vertex="1">
          <mxGeometry y="120" width="140" height="30" as="geometry" />
        </mxCell>
        <mxCell id="AmdDYNb3q1W9D1PbskiA-79" value="gameState" style="text;strokeColor=none;fillColor=none;align=left;verticalAlign=middle;spacingLeft=4;spacingRight=4;overflow=hidden;points=[[0,0.5],[1,0.5]];portConstraint=eastwest;rotatable=0;whiteSpace=wrap;html=1;" parent="AmdDYNb3q1W9D1PbskiA-74" vertex="1">
          <mxGeometry y="150" width="140" height="30" as="geometry" />
        </mxCell>
        <mxCell id="NX3lpK6z03712E9rUARi-1" value="addtionalState" style="text;strokeColor=none;fillColor=none;align=left;verticalAlign=middle;spacingLeft=4;spacingRight=4;overflow=hidden;points=[[0,0.5],[1,0.5]];portConstraint=eastwest;rotatable=0;whiteSpace=wrap;html=1;" parent="AmdDYNb3q1W9D1PbskiA-74" vertex="1">
          <mxGeometry y="180" width="140" height="30" as="geometry" />
        </mxCell>
        <mxCell id="AmdDYNb3q1W9D1PbskiA-80" value="Dealer" style="swimlane;fontStyle=0;childLayout=stackLayout;horizontal=1;startSize=30;horizontalStack=0;resizeParent=1;resizeParentMax=0;resizeLast=0;collapsible=1;marginBottom=0;whiteSpace=wrap;html=1;" parent="1" vertex="1">
          <mxGeometry x="270" y="60" width="140" height="120" as="geometry" />
        </mxCell>
        <mxCell id="AmdDYNb3q1W9D1PbskiA-81" value="hand" style="text;strokeColor=none;fillColor=none;align=left;verticalAlign=middle;spacingLeft=4;spacingRight=4;overflow=hidden;points=[[0,0.5],[1,0.5]];portConstraint=eastwest;rotatable=0;whiteSpace=wrap;html=1;" parent="AmdDYNb3q1W9D1PbskiA-80" vertex="1">
          <mxGeometry y="30" width="140" height="30" as="geometry" />
        </mxCell>
        <mxCell id="8IczIBtJuRgxzT8IRAjE-1" value="gameState" style="text;strokeColor=none;fillColor=none;align=left;verticalAlign=middle;spacingLeft=4;spacingRight=4;overflow=hidden;points=[[0,0.5],[1,0.5]];portConstraint=eastwest;rotatable=0;whiteSpace=wrap;html=1;" parent="AmdDYNb3q1W9D1PbskiA-80" vertex="1">
          <mxGeometry y="60" width="140" height="30" as="geometry" />
        </mxCell>
        <mxCell id="NX3lpK6z03712E9rUARi-2" value="addtionalState" style="text;strokeColor=none;fillColor=none;align=left;verticalAlign=middle;spacingLeft=4;spacingRight=4;overflow=hidden;points=[[0,0.5],[1,0.5]];portConstraint=eastwest;rotatable=0;whiteSpace=wrap;html=1;" parent="AmdDYNb3q1W9D1PbskiA-80" vertex="1">
          <mxGeometry y="90" width="140" height="30" as="geometry" />
        </mxCell>
        <mxCell id="AmdDYNb3q1W9D1PbskiA-83" value="Safe" style="swimlane;fontStyle=0;childLayout=stackLayout;horizontal=1;startSize=30;horizontalStack=0;resizeParent=1;resizeParentMax=0;resizeLast=0;collapsible=1;marginBottom=0;whiteSpace=wrap;html=1;" parent="1" vertex="1">
          <mxGeometry x="430" y="465" width="140" height="90" as="geometry" />
        </mxCell>
        <mxCell id="AmdDYNb3q1W9D1PbskiA-84" value="balance" style="text;strokeColor=none;fillColor=none;align=left;verticalAlign=middle;spacingLeft=4;spacingRight=4;overflow=hidden;points=[[0,0.5],[1,0.5]];portConstraint=eastwest;rotatable=0;whiteSpace=wrap;html=1;" parent="AmdDYNb3q1W9D1PbskiA-83" vertex="1">
          <mxGeometry y="30" width="140" height="30" as="geometry" />
        </mxCell>
        <mxCell id="AmdDYNb3q1W9D1PbskiA-85" value="chips" style="text;strokeColor=none;fillColor=none;align=left;verticalAlign=middle;spacingLeft=4;spacingRight=4;overflow=hidden;points=[[0,0.5],[1,0.5]];portConstraint=eastwest;rotatable=0;whiteSpace=wrap;html=1;" parent="AmdDYNb3q1W9D1PbskiA-83" vertex="1">
          <mxGeometry y="60" width="140" height="30" as="geometry" />
        </mxCell>
        <mxCell id="AmdDYNb3q1W9D1PbskiA-86" value="Chip" style="swimlane;fontStyle=0;childLayout=stackLayout;horizontal=1;startSize=30;horizontalStack=0;resizeParent=1;resizeParentMax=0;resizeLast=0;collapsible=1;marginBottom=0;whiteSpace=wrap;html=1;" parent="1" vertex="1">
          <mxGeometry x="680" y="465" width="140" height="60" as="geometry" />
        </mxCell>
        <mxCell id="AmdDYNb3q1W9D1PbskiA-87" value="value" style="text;strokeColor=none;fillColor=none;align=left;verticalAlign=middle;spacingLeft=4;spacingRight=4;overflow=hidden;points=[[0,0.5],[1,0.5]];portConstraint=eastwest;rotatable=0;whiteSpace=wrap;html=1;" parent="AmdDYNb3q1W9D1PbskiA-86" vertex="1">
          <mxGeometry y="30" width="140" height="30" as="geometry" />
        </mxCell>
        <mxCell id="AmdDYNb3q1W9D1PbskiA-88" value="Card" style="swimlane;fontStyle=0;childLayout=stackLayout;horizontal=1;startSize=30;horizontalStack=0;resizeParent=1;resizeParentMax=0;resizeLast=0;collapsible=1;marginBottom=0;whiteSpace=wrap;html=1;" parent="1" vertex="1">
          <mxGeometry x="660" y="120" width="140" height="120" as="geometry" />
        </mxCell>
        <mxCell id="AmdDYNb3q1W9D1PbskiA-89" value="suit" style="text;strokeColor=none;fillColor=none;align=left;verticalAlign=middle;spacingLeft=4;spacingRight=4;overflow=hidden;points=[[0,0.5],[1,0.5]];portConstraint=eastwest;rotatable=0;whiteSpace=wrap;html=1;" parent="AmdDYNb3q1W9D1PbskiA-88" vertex="1">
          <mxGeometry y="30" width="140" height="30" as="geometry" />
        </mxCell>
        <mxCell id="AmdDYNb3q1W9D1PbskiA-90" value="rank" style="text;strokeColor=none;fillColor=none;align=left;verticalAlign=middle;spacingLeft=4;spacingRight=4;overflow=hidden;points=[[0,0.5],[1,0.5]];portConstraint=eastwest;rotatable=0;whiteSpace=wrap;html=1;" parent="AmdDYNb3q1W9D1PbskiA-88" vertex="1">
          <mxGeometry y="60" width="140" height="30" as="geometry" />
        </mxCell>
        <mxCell id="AmdDYNb3q1W9D1PbskiA-91" value="value" style="text;strokeColor=none;fillColor=none;align=left;verticalAlign=middle;spacingLeft=4;spacingRight=4;overflow=hidden;points=[[0,0.5],[1,0.5]];portConstraint=eastwest;rotatable=0;whiteSpace=wrap;html=1;" parent="AmdDYNb3q1W9D1PbskiA-88" vertex="1">
          <mxGeometry y="90" width="140" height="30" as="geometry" />
        </mxCell>
        <mxCell id="AmdDYNb3q1W9D1PbskiA-92" value="Deck" style="swimlane;fontStyle=0;childLayout=stackLayout;horizontal=1;startSize=30;horizontalStack=0;resizeParent=1;resizeParentMax=0;resizeLast=0;collapsible=1;marginBottom=0;whiteSpace=wrap;html=1;" parent="1" vertex="1">
          <mxGeometry x="470" y="10" width="140" height="60" as="geometry" />
        </mxCell>
        <mxCell id="AmdDYNb3q1W9D1PbskiA-93" value="cards" style="text;strokeColor=none;fillColor=none;align=left;verticalAlign=middle;spacingLeft=4;spacingRight=4;overflow=hidden;points=[[0,0.5],[1,0.5]];portConstraint=eastwest;rotatable=0;whiteSpace=wrap;html=1;" parent="AmdDYNb3q1W9D1PbskiA-92" vertex="1">
          <mxGeometry y="30" width="140" height="30" as="geometry" />
        </mxCell>
        <mxCell id="AmdDYNb3q1W9D1PbskiA-94" value="has ▶" style="html=1;verticalAlign=bottom;endArrow=none;edgeStyle=elbowEdgeStyle;elbow=vertical;curved=0;rounded=0;endFill=0;" parent="1" source="AmdDYNb3q1W9D1PbskiA-66" target="AmdDYNb3q1W9D1PbskiA-72" edge="1">
          <mxGeometry width="80" relative="1" as="geometry">
            <mxPoint x="180" y="148" as="sourcePoint" />
            <mxPoint x="240" y="270" as="targetPoint" />
          </mxGeometry>
        </mxCell>
        <mxCell id="AmdDYNb3q1W9D1PbskiA-95" value="1" style="edgeLabel;html=1;align=center;verticalAlign=middle;resizable=0;points=[];" parent="AmdDYNb3q1W9D1PbskiA-94" vertex="1" connectable="0">
          <mxGeometry x="-0.9321" y="2" relative="1" as="geometry">
            <mxPoint x="8" y="-8" as="offset" />
          </mxGeometry>
        </mxCell>
        <mxCell id="AmdDYNb3q1W9D1PbskiA-96" value="1...*" style="edgeLabel;html=1;align=center;verticalAlign=middle;resizable=0;points=[];" parent="AmdDYNb3q1W9D1PbskiA-94" vertex="1" connectable="0">
          <mxGeometry x="0.9059" relative="1" as="geometry">
            <mxPoint y="-9" as="offset" />
          </mxGeometry>
        </mxCell>
        <mxCell id="AmdDYNb3q1W9D1PbskiA-97" value="stores ▶" style="html=1;verticalAlign=bottom;endArrow=none;edgeStyle=elbowEdgeStyle;elbow=vertical;curved=0;rounded=0;endFill=0;" parent="1" source="AmdDYNb3q1W9D1PbskiA-83" target="AmdDYNb3q1W9D1PbskiA-86" edge="1">
          <mxGeometry width="80" relative="1" as="geometry">
            <mxPoint x="625" y="372.5" as="sourcePoint" />
            <mxPoint x="800" y="544.5" as="targetPoint" />
          </mxGeometry>
        </mxCell>
        <mxCell id="AmdDYNb3q1W9D1PbskiA-98" value="1" style="edgeLabel;html=1;align=center;verticalAlign=middle;resizable=0;points=[];" parent="AmdDYNb3q1W9D1PbskiA-97" vertex="1" connectable="0">
          <mxGeometry x="-0.9321" y="2" relative="1" as="geometry">
            <mxPoint x="8" y="-8" as="offset" />
          </mxGeometry>
        </mxCell>
        <mxCell id="AmdDYNb3q1W9D1PbskiA-99" value="0...n" style="edgeLabel;html=1;align=center;verticalAlign=middle;resizable=0;points=[];" parent="AmdDYNb3q1W9D1PbskiA-97" vertex="1" connectable="0">
          <mxGeometry x="0.9059" relative="1" as="geometry">
            <mxPoint x="-11" y="-10" as="offset" />
          </mxGeometry>
        </mxCell>
        <mxCell id="AmdDYNb3q1W9D1PbskiA-100" value="contains ▶" style="html=1;verticalAlign=bottom;endArrow=none;edgeStyle=elbowEdgeStyle;elbow=vertical;curved=0;rounded=0;endFill=0;" parent="1" source="AmdDYNb3q1W9D1PbskiA-92" target="AmdDYNb3q1W9D1PbskiA-88" edge="1">
          <mxGeometry x="-0.1579" y="-20" width="80" relative="1" as="geometry">
            <mxPoint x="650" y="195" as="sourcePoint" />
            <mxPoint x="825" y="367" as="targetPoint" />
            <Array as="points">
              <mxPoint x="650" y="50" />
            </Array>
            <mxPoint as="offset" />
          </mxGeometry>
        </mxCell>
        <mxCell id="AmdDYNb3q1W9D1PbskiA-101" value="1" style="edgeLabel;html=1;align=center;verticalAlign=middle;resizable=0;points=[];" parent="AmdDYNb3q1W9D1PbskiA-100" vertex="1" connectable="0">
          <mxGeometry x="-0.9321" y="2" relative="1" as="geometry">
            <mxPoint x="1" y="11" as="offset" />
          </mxGeometry>
        </mxCell>
        <mxCell id="AmdDYNb3q1W9D1PbskiA-102" value="0...52" style="edgeLabel;html=1;align=center;verticalAlign=middle;resizable=0;points=[];" parent="AmdDYNb3q1W9D1PbskiA-100" vertex="1" connectable="0">
          <mxGeometry x="0.9059" relative="1" as="geometry">
            <mxPoint x="-18" y="-1" as="offset" />
          </mxGeometry>
        </mxCell>
        <mxCell id="AmdDYNb3q1W9D1PbskiA-103" value="&lt;div&gt;• rank: Ace, 2, 3, ... , King, Queen&lt;/div&gt;&lt;div&gt;•&lt;span style=&quot;&quot;&gt; &lt;/span&gt;suit: Spade / Heart / Diamond / Club&lt;/div&gt;&lt;div&gt;•&lt;span style=&quot;&quot;&gt; &lt;/span&gt;value: The numerical value of the card&lt;/div&gt;" style="shape=note;size=20;whiteSpace=wrap;html=1;labelBackgroundColor=none;fillColor=#182E3E;strokeColor=#FFFFFF;fontColor=#FFFFFF;" parent="1" vertex="1">
          <mxGeometry x="600" y="305" width="220" height="110" as="geometry" />
        </mxCell>
        <mxCell id="AmdDYNb3q1W9D1PbskiA-104" value="has ▶" style="html=1;verticalAlign=bottom;endArrow=none;edgeStyle=elbowEdgeStyle;elbow=vertical;curved=0;rounded=0;endFill=0;" parent="1" source="AmdDYNb3q1W9D1PbskiA-66" target="AmdDYNb3q1W9D1PbskiA-74" edge="1">
          <mxGeometry width="80" relative="1" as="geometry">
            <mxPoint x="160" y="285.31" as="sourcePoint" />
            <mxPoint x="280" y="285.31" as="targetPoint" />
          </mxGeometry>
        </mxCell>
        <mxCell id="AmdDYNb3q1W9D1PbskiA-105" value="1" style="edgeLabel;html=1;align=center;verticalAlign=middle;resizable=0;points=[];" parent="AmdDYNb3q1W9D1PbskiA-104" vertex="1" connectable="0">
          <mxGeometry x="-0.9321" y="2" relative="1" as="geometry">
            <mxPoint x="8" y="-8" as="offset" />
          </mxGeometry>
        </mxCell>
        <mxCell id="AmdDYNb3q1W9D1PbskiA-106" value="1" style="edgeLabel;html=1;align=center;verticalAlign=middle;resizable=0;points=[];" parent="AmdDYNb3q1W9D1PbskiA-104" vertex="1" connectable="0">
          <mxGeometry x="0.9059" relative="1" as="geometry">
            <mxPoint x="-15" y="-10" as="offset" />
          </mxGeometry>
        </mxCell>
        <mxCell id="AmdDYNb3q1W9D1PbskiA-107" value="has ▶" style="html=1;verticalAlign=bottom;endArrow=none;edgeStyle=elbowEdgeStyle;elbow=vertical;curved=0;rounded=0;endFill=0;" parent="1" source="AmdDYNb3q1W9D1PbskiA-66" target="AmdDYNb3q1W9D1PbskiA-80" edge="1">
          <mxGeometry width="80" relative="1" as="geometry">
            <mxPoint x="130" y="389.66999999999996" as="sourcePoint" />
            <mxPoint x="250" y="389.66999999999996" as="targetPoint" />
            <Array as="points">
              <mxPoint x="220" y="120" />
              <mxPoint x="130" y="440" />
            </Array>
          </mxGeometry>
        </mxCell>
        <mxCell id="AmdDYNb3q1W9D1PbskiA-108" value="1" style="edgeLabel;html=1;align=center;verticalAlign=middle;resizable=0;points=[];" parent="AmdDYNb3q1W9D1PbskiA-107" vertex="1" connectable="0">
          <mxGeometry x="-0.9321" y="2" relative="1" as="geometry">
            <mxPoint x="8" y="-1" as="offset" />
          </mxGeometry>
        </mxCell>
        <mxCell id="AmdDYNb3q1W9D1PbskiA-109" value="1" style="edgeLabel;html=1;align=center;verticalAlign=middle;resizable=0;points=[];" parent="AmdDYNb3q1W9D1PbskiA-107" vertex="1" connectable="0">
          <mxGeometry x="0.9059" relative="1" as="geometry">
            <mxPoint x="-10" y="-10" as="offset" />
          </mxGeometry>
        </mxCell>
        <mxCell id="AmdDYNb3q1W9D1PbskiA-110" value="bets ▶" style="html=1;verticalAlign=bottom;endArrow=none;edgeStyle=elbowEdgeStyle;elbow=vertical;curved=0;rounded=0;endFill=0;" parent="1" source="AmdDYNb3q1W9D1PbskiA-74" target="AmdDYNb3q1W9D1PbskiA-72" edge="1">
          <mxGeometry width="80" relative="1" as="geometry">
            <mxPoint x="350" y="140" as="sourcePoint" />
            <mxPoint x="525" y="312" as="targetPoint" />
          </mxGeometry>
        </mxCell>
        <mxCell id="AmdDYNb3q1W9D1PbskiA-111" value="1" style="edgeLabel;html=1;align=center;verticalAlign=middle;resizable=0;points=[];" parent="AmdDYNb3q1W9D1PbskiA-110" vertex="1" connectable="0">
          <mxGeometry x="-0.9321" y="2" relative="1" as="geometry">
            <mxPoint x="-6" y="-3" as="offset" />
          </mxGeometry>
        </mxCell>
        <mxCell id="AmdDYNb3q1W9D1PbskiA-112" value="1" style="edgeLabel;html=1;align=center;verticalAlign=middle;resizable=0;points=[];" parent="AmdDYNb3q1W9D1PbskiA-110" vertex="1" connectable="0">
          <mxGeometry x="0.9059" relative="1" as="geometry">
            <mxPoint x="6" as="offset" />
          </mxGeometry>
        </mxCell>
        <mxCell id="AmdDYNb3q1W9D1PbskiA-113" value="has ▶" style="html=1;verticalAlign=bottom;endArrow=none;edgeStyle=elbowEdgeStyle;elbow=vertical;curved=0;rounded=0;endFill=0;" parent="1" source="AmdDYNb3q1W9D1PbskiA-74" target="AmdDYNb3q1W9D1PbskiA-83" edge="1">
          <mxGeometry x="0.3333" y="-20" width="80" relative="1" as="geometry">
            <mxPoint x="420" y="380" as="sourcePoint" />
            <mxPoint x="720" y="380" as="targetPoint" />
            <Array as="points">
              <mxPoint x="520" y="380" />
              <mxPoint x="500" y="400" />
              <mxPoint x="510" y="380" />
            </Array>
            <mxPoint as="offset" />
          </mxGeometry>
        </mxCell>
        <mxCell id="AmdDYNb3q1W9D1PbskiA-114" value="1" style="edgeLabel;html=1;align=center;verticalAlign=middle;resizable=0;points=[];" parent="AmdDYNb3q1W9D1PbskiA-113" vertex="1" connectable="0">
          <mxGeometry x="-0.9321" y="2" relative="1" as="geometry">
            <mxPoint x="8" y="-8" as="offset" />
          </mxGeometry>
        </mxCell>
        <mxCell id="AmdDYNb3q1W9D1PbskiA-115" value="1" style="edgeLabel;html=1;align=center;verticalAlign=middle;resizable=0;points=[];" parent="AmdDYNb3q1W9D1PbskiA-113" vertex="1" connectable="0">
          <mxGeometry x="0.9059" relative="1" as="geometry">
            <mxPoint x="-9" y="-5" as="offset" />
          </mxGeometry>
        </mxCell>
        <mxCell id="AmdDYNb3q1W9D1PbskiA-116" value="deals ▶" style="html=1;verticalAlign=bottom;endArrow=none;edgeStyle=elbowEdgeStyle;elbow=vertical;curved=0;rounded=0;endFill=0;" parent="1" source="AmdDYNb3q1W9D1PbskiA-80" target="AmdDYNb3q1W9D1PbskiA-88" edge="1">
          <mxGeometry width="80" relative="1" as="geometry">
            <mxPoint x="420" y="110" as="sourcePoint" />
            <mxPoint x="590" y="110" as="targetPoint" />
            <Array as="points">
              <mxPoint x="670" y="100" />
              <mxPoint x="580" y="100" />
              <mxPoint x="530" y="130" />
            </Array>
          </mxGeometry>
        </mxCell>
        <mxCell id="AmdDYNb3q1W9D1PbskiA-117" value="1" style="edgeLabel;html=1;align=center;verticalAlign=middle;resizable=0;points=[];" parent="AmdDYNb3q1W9D1PbskiA-116" vertex="1" connectable="0">
          <mxGeometry x="-0.9321" y="2" relative="1" as="geometry">
            <mxPoint x="-4" y="-7" as="offset" />
          </mxGeometry>
        </mxCell>
        <mxCell id="AmdDYNb3q1W9D1PbskiA-118" value="1" style="edgeLabel;html=1;align=center;verticalAlign=middle;resizable=0;points=[];" parent="AmdDYNb3q1W9D1PbskiA-116" vertex="1" connectable="0">
          <mxGeometry x="0.9059" relative="1" as="geometry">
            <mxPoint x="-7" y="3" as="offset" />
          </mxGeometry>
        </mxCell>
        <mxCell id="AmdDYNb3q1W9D1PbskiA-119" value="has ▶" style="html=1;verticalAlign=bottom;endArrow=none;edgeStyle=elbowEdgeStyle;elbow=vertical;curved=0;rounded=0;endFill=0;" parent="1" source="AmdDYNb3q1W9D1PbskiA-80" target="AmdDYNb3q1W9D1PbskiA-92" edge="1">
          <mxGeometry width="80" relative="1" as="geometry">
            <mxPoint x="380" y="-10" as="sourcePoint" />
            <mxPoint x="570" y="-40" as="targetPoint" />
            <Array as="points">
              <mxPoint x="440" y="50" />
              <mxPoint x="520" y="-40" />
              <mxPoint x="430" y="280" />
            </Array>
          </mxGeometry>
        </mxCell>
        <mxCell id="AmdDYNb3q1W9D1PbskiA-120" value="1" style="edgeLabel;html=1;align=center;verticalAlign=middle;resizable=0;points=[];" parent="AmdDYNb3q1W9D1PbskiA-119" vertex="1" connectable="0">
          <mxGeometry x="-0.9321" y="2" relative="1" as="geometry">
            <mxPoint x="-4" y="-5" as="offset" />
          </mxGeometry>
        </mxCell>
        <mxCell id="AmdDYNb3q1W9D1PbskiA-121" value="1" style="edgeLabel;html=1;align=center;verticalAlign=middle;resizable=0;points=[];" parent="AmdDYNb3q1W9D1PbskiA-119" vertex="1" connectable="0">
          <mxGeometry x="0.9059" relative="1" as="geometry">
            <mxPoint x="-4" y="-10" as="offset" />
          </mxGeometry>
        </mxCell>
        <mxCell id="AmdDYNb3q1W9D1PbskiA-122" value="holds ▶" style="html=1;verticalAlign=bottom;endArrow=none;edgeStyle=elbowEdgeStyle;elbow=vertical;curved=0;rounded=0;endFill=0;" parent="1" source="AmdDYNb3q1W9D1PbskiA-74" target="AmdDYNb3q1W9D1PbskiA-88" edge="1">
          <mxGeometry width="80" relative="1" as="geometry">
            <mxPoint x="415" y="280" as="sourcePoint" />
            <mxPoint x="665" y="280" as="targetPoint" />
            <Array as="points">
              <mxPoint x="680" y="300" />
              <mxPoint x="510" y="290" />
              <mxPoint x="690" y="260" />
              <mxPoint x="620" y="270" />
              <mxPoint x="670" y="280" />
            </Array>
          </mxGeometry>
        </mxCell>
        <mxCell id="AmdDYNb3q1W9D1PbskiA-123" value="1" style="edgeLabel;html=1;align=center;verticalAlign=middle;resizable=0;points=[];" parent="AmdDYNb3q1W9D1PbskiA-122" vertex="1" connectable="0">
          <mxGeometry x="-0.9321" y="2" relative="1" as="geometry">
            <mxPoint x="1" y="11" as="offset" />
          </mxGeometry>
        </mxCell>
        <mxCell id="AmdDYNb3q1W9D1PbskiA-124" value="2...*" style="edgeLabel;html=1;align=center;verticalAlign=middle;resizable=0;points=[];" parent="AmdDYNb3q1W9D1PbskiA-122" vertex="1" connectable="0">
          <mxGeometry x="0.9059" relative="1" as="geometry">
            <mxPoint x="-14" y="-7" as="offset" />
          </mxGeometry>
        </mxCell>
        <mxCell id="AmdDYNb3q1W9D1PbskiA-125" value="holds ▶" style="html=1;verticalAlign=bottom;endArrow=none;edgeStyle=elbowEdgeStyle;elbow=vertical;curved=0;rounded=0;endFill=0;" parent="1" source="AmdDYNb3q1W9D1PbskiA-80" target="AmdDYNb3q1W9D1PbskiA-88" edge="1">
          <mxGeometry width="80" relative="1" as="geometry">
            <mxPoint x="420" y="310" as="sourcePoint" />
            <mxPoint x="690" y="250" as="targetPoint" />
            <Array as="points">
              <mxPoint x="570" y="150" />
              <mxPoint x="550" y="130" />
              <mxPoint x="690" y="310" />
              <mxPoint x="520" y="300" />
              <mxPoint x="700" y="270" />
              <mxPoint x="630" y="280" />
              <mxPoint x="680" y="290" />
            </Array>
          </mxGeometry>
        </mxCell>
        <mxCell id="AmdDYNb3q1W9D1PbskiA-126" value="1" style="edgeLabel;html=1;align=center;verticalAlign=middle;resizable=0;points=[];" parent="AmdDYNb3q1W9D1PbskiA-125" vertex="1" connectable="0">
          <mxGeometry x="-0.9321" y="2" relative="1" as="geometry">
            <mxPoint x="-1" y="-7" as="offset" />
          </mxGeometry>
        </mxCell>
        <mxCell id="AmdDYNb3q1W9D1PbskiA-127" value="2...*" style="edgeLabel;html=1;align=center;verticalAlign=middle;resizable=0;points=[];" parent="AmdDYNb3q1W9D1PbskiA-125" vertex="1" connectable="0">
          <mxGeometry x="0.9059" relative="1" as="geometry">
            <mxPoint x="-1" y="-9" as="offset" />
          </mxGeometry>
        </mxCell>
        <mxCell id="AmdDYNb3q1W9D1PbskiA-128" value="&lt;div&gt;additional state description&lt;/div&gt;&lt;div&gt;(1) nothing&lt;/div&gt;&lt;div&gt;(2) split&lt;/div&gt;&lt;div&gt;(3) double down&lt;/div&gt;&lt;div&gt;(4) surrender&lt;/div&gt;" style="shape=note;size=20;whiteSpace=wrap;html=1;labelBackgroundColor=none;fillColor=#182E3E;strokeColor=#FFFFFF;fontColor=#FFFFFF;align=center;" parent="1" vertex="1">
          <mxGeometry x="90" y="460" width="170" height="120" as="geometry" />
        </mxCell>
        <mxCell id="Cjm5gJZoXy9l-Yii9wx_-1" value="&lt;div&gt;&lt;b&gt;Contributers&lt;/b&gt;:&amp;nbsp;&lt;/div&gt;Marie, Jaehoon" style="whiteSpace=wrap;html=1;shape=mxgraph.basic.document" parent="1" vertex="1">
          <mxGeometry x="9" y="8" width="141" height="62" as="geometry" />
        </mxCell>
        <mxCell id="gXRJCxMvT3dNU6f-Fl0L-1" value="&lt;div&gt;game state description&lt;/div&gt;&lt;div&gt;(1) nothing&lt;/div&gt;&lt;div&gt;(2) win&lt;/div&gt;&lt;div&gt;(3) bust (lose)&lt;/div&gt;&lt;div&gt;(4) tie (draw)&lt;/div&gt;" style="shape=note;size=20;whiteSpace=wrap;html=1;labelBackgroundColor=none;fillColor=#182E3E;strokeColor=#FFFFFF;fontColor=#FFFFFF;align=center;" parent="1" vertex="1">
          <mxGeometry x="90" y="365" width="170" height="90" as="geometry" />
        </mxCell>
        <mxCell id="NX3lpK6z03712E9rUARi-3" value="&lt;div&gt; ($1) x 100 (=$100)&lt;/div&gt;&lt;div&gt;&lt;span style=&quot;&quot;&gt; &lt;/span&gt;($5) x 20 (=$100)&lt;/div&gt;&lt;div&gt;&lt;span style=&quot;&quot;&gt; &lt;/span&gt;($25) x 8 (=$200)&lt;/div&gt;&lt;div&gt;&lt;span style=&quot;&quot;&gt; &lt;/span&gt;($50) x 10 (=$500)&lt;/div&gt;&lt;div&gt;&lt;span style=&quot;&quot;&gt; &lt;/span&gt;($100) x 5 (=$500)&lt;/div&gt;&lt;div&gt;&lt;span style=&quot;&quot;&gt; &lt;/span&gt;($500) x 1 (=$500)&lt;/div&gt;&lt;div&gt;&lt;span style=&quot;&quot;&gt; &lt;/span&gt;-----------------------------&lt;/div&gt;&lt;div&gt;&lt;span style=&quot;&quot;&gt; &lt;/span&gt;total: $2000&lt;/div&gt;" style="shape=note;size=20;whiteSpace=wrap;html=1;labelBackgroundColor=none;fillColor=#182E3E;strokeColor=#FFFFFF;fontColor=#FFFFFF;align=center;" parent="1" vertex="1">
          <mxGeometry x="580" y="530" width="220" height="130" as="geometry" />
        </mxCell>
      </root>
    </mxGraphModel>
  </diagram>
  <diagram id="xglu8EIW5K_HBOuuVaQY" name="use_case_diagram">
    <mxGraphModel dx="473" dy="321" grid="1" gridSize="10" guides="1" tooltips="1" connect="1" arrows="1" fold="1" page="1" pageScale="1" pageWidth="850" pageHeight="1100" math="0" shadow="0">
      <root>
        <mxCell id="0" />
        <mxCell id="1" parent="0" />
        <mxCell id="PuCBYhLptUQ0iqxH_bsb-1" value="&lt;div&gt;&lt;b&gt;Contributers&lt;/b&gt;:&amp;nbsp;&lt;/div&gt;Alyiah Jaehoon" style="whiteSpace=wrap;html=1;shape=mxgraph.basic.document" parent="1" vertex="1">
          <mxGeometry x="9" y="8" width="141" height="62" as="geometry" />
        </mxCell>
        <mxCell id="K_ukeBp5QNFt7-gUXxgp-40" value="&lt;b&gt;&lt;br&gt;&lt;/b&gt;" style="rounded=0;whiteSpace=wrap;html=1;strokeWidth=2;" parent="1" vertex="1">
          <mxGeometry x="130" y="80" width="560" height="845" as="geometry" />
        </mxCell>
        <mxCell id="K_ukeBp5QNFt7-gUXxgp-41" style="edgeStyle=orthogonalEdgeStyle;rounded=0;orthogonalLoop=1;jettySize=auto;html=1;entryX=0;entryY=0.5;entryDx=0;entryDy=0;endArrow=none;endFill=0;fillColor=#d5e8d4;strokeColor=#82b366;" parent="1" source="K_ukeBp5QNFt7-gUXxgp-48" target="K_ukeBp5QNFt7-gUXxgp-53" edge="1">
          <mxGeometry relative="1" as="geometry">
            <Array as="points">
              <mxPoint x="160" y="170" />
              <mxPoint x="160" y="315" />
            </Array>
          </mxGeometry>
        </mxCell>
        <mxCell id="K_ukeBp5QNFt7-gUXxgp-42" style="edgeStyle=orthogonalEdgeStyle;rounded=0;orthogonalLoop=1;jettySize=auto;html=1;entryX=0;entryY=0.5;entryDx=0;entryDy=0;endArrow=none;endFill=0;fillColor=#d5e8d4;strokeColor=#82b366;" parent="1" source="K_ukeBp5QNFt7-gUXxgp-48" target="K_ukeBp5QNFt7-gUXxgp-67" edge="1">
          <mxGeometry relative="1" as="geometry">
            <Array as="points">
              <mxPoint x="260" y="170" />
              <mxPoint x="260" y="465" />
            </Array>
          </mxGeometry>
        </mxCell>
        <mxCell id="K_ukeBp5QNFt7-gUXxgp-43" style="edgeStyle=orthogonalEdgeStyle;rounded=0;orthogonalLoop=1;jettySize=auto;html=1;entryX=0;entryY=0.5;entryDx=0;entryDy=0;endArrow=none;endFill=0;" parent="1" source="K_ukeBp5QNFt7-gUXxgp-48" target="K_ukeBp5QNFt7-gUXxgp-66" edge="1">
          <mxGeometry relative="1" as="geometry">
            <Array as="points">
              <mxPoint x="140" y="170" />
              <mxPoint x="140" y="585" />
            </Array>
          </mxGeometry>
        </mxCell>
        <mxCell id="K_ukeBp5QNFt7-gUXxgp-44" style="edgeStyle=orthogonalEdgeStyle;rounded=0;orthogonalLoop=1;jettySize=auto;html=1;entryX=0;entryY=0.5;entryDx=0;entryDy=0;endArrow=none;endFill=0;" parent="1" source="K_ukeBp5QNFt7-gUXxgp-48" target="K_ukeBp5QNFt7-gUXxgp-65" edge="1">
          <mxGeometry relative="1" as="geometry">
            <Array as="points">
              <mxPoint x="140" y="170" />
              <mxPoint x="140" y="715" />
            </Array>
          </mxGeometry>
        </mxCell>
        <mxCell id="K_ukeBp5QNFt7-gUXxgp-45" style="edgeStyle=orthogonalEdgeStyle;rounded=0;orthogonalLoop=1;jettySize=auto;html=1;entryX=0;entryY=0.5;entryDx=0;entryDy=0;endArrow=none;endFill=0;fillColor=#d5e8d4;strokeColor=#82b366;" parent="1" source="K_ukeBp5QNFt7-gUXxgp-48" target="K_ukeBp5QNFt7-gUXxgp-64" edge="1">
          <mxGeometry relative="1" as="geometry">
            <Array as="points">
              <mxPoint x="300" y="170" />
              <mxPoint x="300" y="405" />
              <mxPoint x="440" y="405" />
            </Array>
          </mxGeometry>
        </mxCell>
        <mxCell id="K_ukeBp5QNFt7-gUXxgp-46" style="edgeStyle=orthogonalEdgeStyle;rounded=0;orthogonalLoop=1;jettySize=auto;html=1;entryX=0;entryY=0.5;entryDx=0;entryDy=0;endArrow=none;endFill=0;fillColor=#d5e8d4;strokeColor=#82b366;" parent="1" source="K_ukeBp5QNFt7-gUXxgp-48" target="K_ukeBp5QNFt7-gUXxgp-63" edge="1">
          <mxGeometry relative="1" as="geometry">
            <Array as="points">
              <mxPoint x="320" y="170" />
              <mxPoint x="320" y="415" />
              <mxPoint x="410" y="415" />
              <mxPoint x="410" y="645" />
            </Array>
          </mxGeometry>
        </mxCell>
        <mxCell id="K_ukeBp5QNFt7-gUXxgp-47" style="edgeStyle=orthogonalEdgeStyle;rounded=0;orthogonalLoop=1;jettySize=auto;html=1;entryX=0;entryY=0.5;entryDx=0;entryDy=0;endArrow=none;endFill=0;fillColor=#d5e8d4;strokeColor=#82b366;" parent="1" source="K_ukeBp5QNFt7-gUXxgp-48" target="K_ukeBp5QNFt7-gUXxgp-62" edge="1">
          <mxGeometry relative="1" as="geometry">
            <Array as="points">
              <mxPoint x="140" y="170" />
              <mxPoint x="140" y="795" />
            </Array>
          </mxGeometry>
        </mxCell>
        <mxCell id="K_ukeBp5QNFt7-gUXxgp-48" value="Player" style="shape=umlActor;verticalLabelPosition=bottom;verticalAlign=top;html=1;" parent="1" vertex="1">
          <mxGeometry x="47.5" y="140" width="30" height="60" as="geometry" />
        </mxCell>
        <mxCell id="K_ukeBp5QNFt7-gUXxgp-49" style="edgeStyle=orthogonalEdgeStyle;rounded=0;orthogonalLoop=1;jettySize=auto;html=1;entryX=1;entryY=0.5;entryDx=0;entryDy=0;endArrow=none;endFill=0;fillColor=#dae8fc;strokeColor=#6c8ebf;" parent="1" source="K_ukeBp5QNFt7-gUXxgp-52" target="K_ukeBp5QNFt7-gUXxgp-53" edge="1">
          <mxGeometry relative="1" as="geometry" />
        </mxCell>
        <mxCell id="K_ukeBp5QNFt7-gUXxgp-50" style="edgeStyle=orthogonalEdgeStyle;rounded=0;orthogonalLoop=1;jettySize=auto;html=1;entryX=1;entryY=0;entryDx=0;entryDy=0;endArrow=none;endFill=0;fillColor=#dae8fc;strokeColor=#6c8ebf;" parent="1" source="K_ukeBp5QNFt7-gUXxgp-52" target="K_ukeBp5QNFt7-gUXxgp-64" edge="1">
          <mxGeometry relative="1" as="geometry" />
        </mxCell>
        <mxCell id="K_ukeBp5QNFt7-gUXxgp-51" style="edgeStyle=orthogonalEdgeStyle;rounded=0;orthogonalLoop=1;jettySize=auto;html=1;entryX=1;entryY=0.5;entryDx=0;entryDy=0;endArrow=none;endFill=0;fillColor=#dae8fc;strokeColor=#6c8ebf;" parent="1" source="K_ukeBp5QNFt7-gUXxgp-52" target="K_ukeBp5QNFt7-gUXxgp-62" edge="1">
          <mxGeometry relative="1" as="geometry">
            <Array as="points">
              <mxPoint x="680" y="170" />
              <mxPoint x="680" y="795" />
            </Array>
          </mxGeometry>
        </mxCell>
        <mxCell id="K_ukeBp5QNFt7-gUXxgp-52" value="dealer" style="shape=umlActor;verticalLabelPosition=bottom;verticalAlign=top;html=1;" parent="1" vertex="1">
          <mxGeometry x="757.5" y="140" width="30" height="60" as="geometry" />
        </mxCell>
        <mxCell id="K_ukeBp5QNFt7-gUXxgp-53" value="Start Round" style="ellipse;whiteSpace=wrap;html=1;" parent="1" vertex="1">
          <mxGeometry x="345" y="285" width="120" height="60" as="geometry" />
        </mxCell>
        <mxCell id="K_ukeBp5QNFt7-gUXxgp-54" value="International Game Developers Association" style="shape=umlActor;verticalLabelPosition=bottom;verticalAlign=top;html=1;" parent="1" vertex="1">
          <mxGeometry x="310" y="995" width="30" height="60" as="geometry" />
        </mxCell>
        <mxCell id="K_ukeBp5QNFt7-gUXxgp-55" value="player 1st round&lt;br&gt;&amp;amp;&amp;amp;&lt;br&gt;has enough chips" style="whiteSpace=wrap;html=1;shape=mxgraph.basic.rectCallout;dx=30;dy=15;boundedLbl=1;dashed=1;flipH=1;flipV=1;" parent="1" vertex="1">
          <mxGeometry x="210" y="605" width="100" height="75" as="geometry" />
        </mxCell>
        <mxCell id="K_ukeBp5QNFt7-gUXxgp-56" value="&lt;b&gt;Primary Actors&lt;/b&gt;" style="text;html=1;strokeColor=none;fillColor=none;align=center;verticalAlign=middle;whiteSpace=wrap;rounded=0;fontSize=16;" parent="1" vertex="1">
          <mxGeometry y="80" width="125" height="40" as="geometry" />
        </mxCell>
        <mxCell id="K_ukeBp5QNFt7-gUXxgp-57" value="&lt;b&gt;Supporting Actors&lt;/b&gt;" style="text;html=1;strokeColor=none;fillColor=none;align=center;verticalAlign=middle;whiteSpace=wrap;rounded=0;fontSize=16;" parent="1" vertex="1">
          <mxGeometry x="700" y="80" width="145" height="40" as="geometry" />
        </mxCell>
        <mxCell id="K_ukeBp5QNFt7-gUXxgp-58" value="&lt;b&gt;Off-Stage Actors&lt;/b&gt;" style="text;html=1;strokeColor=none;fillColor=none;align=center;verticalAlign=middle;whiteSpace=wrap;rounded=0;fontSize=16;" parent="1" vertex="1">
          <mxGeometry x="331.5" y="945" width="147" height="40" as="geometry" />
        </mxCell>
        <mxCell id="K_ukeBp5QNFt7-gUXxgp-59" style="edgeStyle=orthogonalEdgeStyle;rounded=0;orthogonalLoop=1;jettySize=auto;html=1;entryX=0.5;entryY=0.5;entryDx=0;entryDy=0;entryPerimeter=0;endArrow=none;endFill=0;fillColor=#d5e8d4;strokeColor=#82b366;" parent="1" source="K_ukeBp5QNFt7-gUXxgp-60" target="K_ukeBp5QNFt7-gUXxgp-48" edge="1">
          <mxGeometry relative="1" as="geometry">
            <Array as="points">
              <mxPoint x="190" y="185" />
              <mxPoint x="190" y="170" />
            </Array>
          </mxGeometry>
        </mxCell>
        <mxCell id="K_ukeBp5QNFt7-gUXxgp-60" value="Place Bet" style="ellipse;whiteSpace=wrap;html=1;" parent="1" vertex="1">
          <mxGeometry x="345" y="155" width="120" height="60" as="geometry" />
        </mxCell>
        <mxCell id="K_ukeBp5QNFt7-gUXxgp-61" value="Casino Employee" style="shape=umlActor;verticalLabelPosition=bottom;verticalAlign=top;html=1;" parent="1" vertex="1">
          <mxGeometry x="500" y="995" width="30" height="60" as="geometry" />
        </mxCell>
        <mxCell id="K_ukeBp5QNFt7-gUXxgp-62" value="End&lt;br/&gt;Round" style="ellipse;whiteSpace=wrap;html=1;" parent="1" vertex="1">
          <mxGeometry x="345" y="765" width="120" height="60" as="geometry" />
        </mxCell>
        <mxCell id="K_ukeBp5QNFt7-gUXxgp-63" value="Surrender" style="ellipse;whiteSpace=wrap;html=1;" parent="1" vertex="1">
          <mxGeometry x="530" y="615" width="120" height="60" as="geometry" />
        </mxCell>
        <mxCell id="K_ukeBp5QNFt7-gUXxgp-64" value="Stand" style="ellipse;whiteSpace=wrap;html=1;" parent="1" vertex="1">
          <mxGeometry x="440" y="435" width="120" height="60" as="geometry" />
        </mxCell>
        <mxCell id="K_ukeBp5QNFt7-gUXxgp-65" value="Double Down" style="ellipse;whiteSpace=wrap;html=1;" parent="1" vertex="1">
          <mxGeometry x="255" y="685" width="120" height="60" as="geometry" />
        </mxCell>
        <mxCell id="K_ukeBp5QNFt7-gUXxgp-66" value="Split" style="ellipse;whiteSpace=wrap;html=1;" parent="1" vertex="1">
          <mxGeometry x="150" y="555" width="120" height="60" as="geometry" />
        </mxCell>
        <mxCell id="K_ukeBp5QNFt7-gUXxgp-67" value="Hit" style="ellipse;whiteSpace=wrap;html=1;" parent="1" vertex="1">
          <mxGeometry x="280" y="435" width="120" height="60" as="geometry" />
        </mxCell>
        <mxCell id="K_ukeBp5QNFt7-gUXxgp-68" value="&amp;lt;&amp;lt; extend &amp;gt;&amp;gt;" style="endArrow=open;endSize=12;dashed=1;html=1;rounded=0;" parent="1" source="K_ukeBp5QNFt7-gUXxgp-66" target="K_ukeBp5QNFt7-gUXxgp-67" edge="1">
          <mxGeometry y="8" width="160" relative="1" as="geometry">
            <mxPoint x="425" y="776" as="sourcePoint" />
            <mxPoint x="376" y="645" as="targetPoint" />
            <mxPoint as="offset" />
          </mxGeometry>
        </mxCell>
        <mxCell id="K_ukeBp5QNFt7-gUXxgp-69" value="&amp;lt;&amp;lt; extend &amp;gt;&amp;gt;" style="endArrow=open;endSize=12;dashed=1;html=1;rounded=0;" parent="1" source="K_ukeBp5QNFt7-gUXxgp-65" target="K_ukeBp5QNFt7-gUXxgp-67" edge="1">
          <mxGeometry y="8" width="160" relative="1" as="geometry">
            <mxPoint x="344" y="806" as="sourcePoint" />
            <mxPoint x="396" y="694" as="targetPoint" />
            <mxPoint as="offset" />
          </mxGeometry>
        </mxCell>
        <mxCell id="K_ukeBp5QNFt7-gUXxgp-70" value="player 1st round&lt;br&gt;&amp;amp;&amp;amp; &lt;br&gt;the same rank&lt;br&gt;&amp;amp;&amp;amp;&lt;br&gt;has enough chips" style="whiteSpace=wrap;html=1;shape=mxgraph.basic.rectCallout;dx=30;dy=15;boundedLbl=1;dashed=1;flipH=1;" parent="1" vertex="1">
          <mxGeometry x="155" y="400" width="100" height="105" as="geometry" />
        </mxCell>
        <mxCell id="K_ukeBp5QNFt7-gUXxgp-71" value="&amp;lt;&amp;lt; extend &amp;gt;&amp;gt;" style="endArrow=open;endSize=12;dashed=1;html=1;rounded=0;" parent="1" source="K_ukeBp5QNFt7-gUXxgp-63" target="K_ukeBp5QNFt7-gUXxgp-64" edge="1">
          <mxGeometry y="8" width="160" relative="1" as="geometry">
            <mxPoint x="395" y="605" as="sourcePoint" />
            <mxPoint x="355" y="495" as="targetPoint" />
            <mxPoint as="offset" />
          </mxGeometry>
        </mxCell>
        <mxCell id="K_ukeBp5QNFt7-gUXxgp-72" value="&amp;lt;&amp;lt; include &amp;gt;&amp;gt;" style="endArrow=open;endSize=12;dashed=1;html=1;rounded=0;" parent="1" source="K_ukeBp5QNFt7-gUXxgp-64" target="K_ukeBp5QNFt7-gUXxgp-62" edge="1">
          <mxGeometry x="0.5364" y="9" width="160" relative="1" as="geometry">
            <mxPoint x="353" y="534" as="sourcePoint" />
            <mxPoint x="430" y="655" as="targetPoint" />
            <mxPoint as="offset" />
          </mxGeometry>
        </mxCell>
        <mxCell id="K_ukeBp5QNFt7-gUXxgp-73" value="(player can freely decide)" style="whiteSpace=wrap;html=1;shape=mxgraph.basic.rectCallout;dx=30;dy=15;boundedLbl=1;dashed=1;flipH=0;flipV=0;" parent="1" vertex="1">
          <mxGeometry x="560" y="495" width="100" height="60" as="geometry" />
        </mxCell>
        <mxCell id="K_ukeBp5QNFt7-gUXxgp-74" value="&amp;lt;&amp;lt; include &amp;gt;&amp;gt;" style="endArrow=open;endSize=12;dashed=1;html=1;rounded=0;" parent="1" source="K_ukeBp5QNFt7-gUXxgp-60" target="K_ukeBp5QNFt7-gUXxgp-53" edge="1">
          <mxGeometry y="8" width="160" relative="1" as="geometry">
            <mxPoint x="230" y="305" as="sourcePoint" />
            <mxPoint x="345" y="340" as="targetPoint" />
            <mxPoint as="offset" />
          </mxGeometry>
        </mxCell>
        <mxCell id="K_ukeBp5QNFt7-gUXxgp-75" value="&amp;lt;&amp;lt; include &amp;gt;&amp;gt;" style="endArrow=open;endSize=12;dashed=1;html=1;rounded=0;" parent="1" source="K_ukeBp5QNFt7-gUXxgp-53" target="K_ukeBp5QNFt7-gUXxgp-67" edge="1">
          <mxGeometry x="-0.441" y="-12" width="160" relative="1" as="geometry">
            <mxPoint x="415" y="225" as="sourcePoint" />
            <mxPoint x="415" y="295" as="targetPoint" />
            <mxPoint as="offset" />
          </mxGeometry>
        </mxCell>
        <mxCell id="K_ukeBp5QNFt7-gUXxgp-76" value="&amp;lt;&amp;lt; include &amp;gt;&amp;gt;" style="endArrow=open;endSize=12;dashed=1;html=1;rounded=0;" parent="1" source="K_ukeBp5QNFt7-gUXxgp-53" target="K_ukeBp5QNFt7-gUXxgp-64" edge="1">
          <mxGeometry y="8" width="160" relative="1" as="geometry">
            <mxPoint x="402" y="354" as="sourcePoint" />
            <mxPoint x="363" y="446" as="targetPoint" />
            <mxPoint as="offset" />
          </mxGeometry>
        </mxCell>
        <mxCell id="K_ukeBp5QNFt7-gUXxgp-77" style="edgeStyle=orthogonalEdgeStyle;rounded=0;orthogonalLoop=1;jettySize=auto;html=1;entryX=0;entryY=0.5;entryDx=0;entryDy=0;endArrow=none;endFill=0;fillColor=#d5e8d4;strokeColor=#82b366;" parent="1" edge="1">
          <mxGeometry relative="1" as="geometry">
            <mxPoint x="78" y="170" as="sourcePoint" />
            <mxPoint x="150" y="585" as="targetPoint" />
            <Array as="points">
              <mxPoint x="140" y="170" />
              <mxPoint x="140" y="585" />
            </Array>
          </mxGeometry>
        </mxCell>
        <mxCell id="K_ukeBp5QNFt7-gUXxgp-78" style="edgeStyle=orthogonalEdgeStyle;rounded=0;orthogonalLoop=1;jettySize=auto;html=1;entryX=0;entryY=0.5;entryDx=0;entryDy=0;endArrow=none;endFill=0;fillColor=#d5e8d4;strokeColor=#82b366;" parent="1" edge="1">
          <mxGeometry relative="1" as="geometry">
            <mxPoint x="78" y="170" as="sourcePoint" />
            <mxPoint x="255" y="715" as="targetPoint" />
            <Array as="points">
              <mxPoint x="140" y="170" />
              <mxPoint x="140" y="715" />
            </Array>
          </mxGeometry>
        </mxCell>
        <mxCell id="BNMiUqAtDX-krv0BUjJT-1" value="&lt;b&gt;System&lt;/b&gt;" style="text;html=1;strokeColor=none;fillColor=none;align=center;verticalAlign=middle;whiteSpace=wrap;rounded=0;fontSize=16;" parent="1" vertex="1">
          <mxGeometry x="337.5" y="80" width="145" height="40" as="geometry" />
        </mxCell>
      </root>
    </mxGraphModel>
  </diagram>
  <diagram id="wdQ01RTTtPxrJhiSHaEo" name="sequence_diagram">
    <mxGraphModel dx="685" dy="466" grid="1" gridSize="10" guides="1" tooltips="1" connect="0" arrows="1" fold="1" page="1" pageScale="1" pageWidth="850" pageHeight="1100" math="0" shadow="0">
      <root>
        <mxCell id="0" />
        <mxCell id="1" parent="0" />
        <mxCell id="OI8XTInNt0Rht5a6-ZcJ-1" value="&lt;div&gt;&lt;b&gt;Contributers&lt;/b&gt;:&amp;nbsp;&lt;/div&gt;Alyiah, Jaehoon" style="whiteSpace=wrap;html=1;shape=mxgraph.basic.document" parent="1" vertex="1">
          <mxGeometry x="9" y="8" width="141" height="62" as="geometry" />
        </mxCell>
        <mxCell id="xD3pXHhlgfZhU9Cqcj9g-7" value="&lt;div&gt;&lt;b&gt;Contributers&lt;/b&gt;:&amp;nbsp;&lt;/div&gt;Jaehoon" style="whiteSpace=wrap;html=1;shape=mxgraph.basic.document" parent="1" vertex="1">
          <mxGeometry x="9" y="2210" width="141" height="62" as="geometry" />
        </mxCell>
        <mxCell id="xD3pXHhlgfZhU9Cqcj9g-11" value="&lt;div&gt;&lt;b&gt;Contributers&lt;/b&gt;:&amp;nbsp;&lt;/div&gt;Marie, Jaehoon" style="whiteSpace=wrap;html=1;shape=mxgraph.basic.document" parent="1" vertex="1">
          <mxGeometry x="9" y="4410" width="141" height="62" as="geometry" />
        </mxCell>
        <mxCell id="xD3pXHhlgfZhU9Cqcj9g-13" value="&lt;div&gt;&lt;b&gt;Contributers&lt;/b&gt;:&amp;nbsp;&lt;/div&gt;Jaehoon" style="whiteSpace=wrap;html=1;shape=mxgraph.basic.document" parent="1" vertex="1">
          <mxGeometry x="9" y="5510" width="141" height="62" as="geometry" />
        </mxCell>
        <mxCell id="io6AJ3inkhHG0oqsFMTY-27" value="&lt;b&gt;Use Case&lt;/b&gt;:&amp;nbsp;Hit" style="rounded=1;whiteSpace=wrap;html=1;fontSize=20;" parent="1" vertex="1">
          <mxGeometry x="323" y="20" width="225" height="60" as="geometry" />
        </mxCell>
        <mxCell id="io6AJ3inkhHG0oqsFMTY-28" value="&lt;b&gt;Use Case&lt;/b&gt;: DoubleDown" style="rounded=1;whiteSpace=wrap;html=1;fontSize=20;" parent="1" vertex="1">
          <mxGeometry x="323" y="2222" width="225" height="60" as="geometry" />
        </mxCell>
        <mxCell id="io6AJ3inkhHG0oqsFMTY-29" value="&lt;b&gt;Use Case&lt;/b&gt;:Split" style="rounded=1;whiteSpace=wrap;html=1;fontSize=20;" parent="1" vertex="1">
          <mxGeometry x="323" y="1122" width="225" height="60" as="geometry" />
        </mxCell>
        <mxCell id="io6AJ3inkhHG0oqsFMTY-30" value="&lt;b&gt;Use Case&lt;/b&gt;:Stand" style="rounded=1;whiteSpace=wrap;html=1;fontSize=20;" parent="1" vertex="1">
          <mxGeometry x="323" y="4422" width="225" height="60" as="geometry" />
        </mxCell>
        <mxCell id="io6AJ3inkhHG0oqsFMTY-31" value="&lt;b&gt;Use Case&lt;/b&gt;: Surrender" style="rounded=1;whiteSpace=wrap;html=1;fontSize=20;" parent="1" vertex="1">
          <mxGeometry x="323" y="5522" width="225" height="60" as="geometry" />
        </mxCell>
        <mxCell id="io6AJ3inkhHG0oqsFMTY-37" value=":Player&lt;br&gt;&lt;br&gt;&lt;br&gt;&lt;br&gt;&lt;br&gt;&lt;br&gt;" style="shape=umlLifeline;perimeter=lifelinePerimeter;whiteSpace=wrap;html=1;container=1;dropTarget=0;collapsible=0;recursiveResize=0;outlineConnect=0;portConstraint=eastwest;newEdgeStyle={&quot;edgeStyle&quot;:&quot;elbowEdgeStyle&quot;,&quot;elbow&quot;:&quot;vertical&quot;,&quot;curved&quot;:0,&quot;rounded&quot;:0};participant=umlActor;" parent="1" vertex="1">
          <mxGeometry x="143.88" y="300" width="20" height="580" as="geometry" />
        </mxCell>
        <mxCell id="ea7vZ4sFW7_QIjVYNMty-1" value="" style="html=1;points=[];perimeter=orthogonalPerimeter;outlineConnect=0;targetShapes=umlLifeline;portConstraint=eastwest;newEdgeStyle={&quot;edgeStyle&quot;:&quot;elbowEdgeStyle&quot;,&quot;elbow&quot;:&quot;vertical&quot;,&quot;curved&quot;:0,&quot;rounded&quot;:0};" parent="io6AJ3inkhHG0oqsFMTY-37" vertex="1">
          <mxGeometry x="4.349999999999994" y="430.15999999999997" width="11.3" height="24.01" as="geometry" />
        </mxCell>
        <mxCell id="nxEybNQ23JghIIL4d0KX-1" value="" style="html=1;points=[];perimeter=orthogonalPerimeter;outlineConnect=0;targetShapes=umlLifeline;portConstraint=eastwest;newEdgeStyle={&quot;edgeStyle&quot;:&quot;elbowEdgeStyle&quot;,&quot;elbow&quot;:&quot;vertical&quot;,&quot;curved&quot;:0,&quot;rounded&quot;:0};" parent="io6AJ3inkhHG0oqsFMTY-37" vertex="1">
          <mxGeometry x="4.350000000000023" y="510" width="11.3" height="29.85" as="geometry" />
        </mxCell>
        <mxCell id="ea7vZ4sFW7_QIjVYNMty-3" value="" style="html=1;points=[];perimeter=orthogonalPerimeter;outlineConnect=0;targetShapes=umlLifeline;portConstraint=eastwest;newEdgeStyle={&quot;edgeStyle&quot;:&quot;elbowEdgeStyle&quot;,&quot;elbow&quot;:&quot;vertical&quot;,&quot;curved&quot;:0,&quot;rounded&quot;:0};" parent="io6AJ3inkhHG0oqsFMTY-37" vertex="1">
          <mxGeometry x="4.349999999999994" y="350.11" width="11.3" height="22.46" as="geometry" />
        </mxCell>
        <mxCell id="AQPu5HcKGOem1pKs6l_m-4" value="" style="html=1;points=[];perimeter=orthogonalPerimeter;outlineConnect=0;targetShapes=umlLifeline;portConstraint=eastwest;newEdgeStyle={&quot;edgeStyle&quot;:&quot;elbowEdgeStyle&quot;,&quot;elbow&quot;:&quot;vertical&quot;,&quot;curved&quot;:0,&quot;rounded&quot;:0};" parent="io6AJ3inkhHG0oqsFMTY-37" vertex="1">
          <mxGeometry x="5.650000000000006" y="230" width="10" height="20" as="geometry" />
        </mxCell>
        <mxCell id="io6AJ3inkhHG0oqsFMTY-38" value=":Game&lt;span style=&quot;font-size:11.0pt;line-height:107%;font-family:&amp;quot;Calibri&amp;quot;,sans-serif;&lt;br/&gt;mso-ascii-theme-font:minor-latin;mso-fareast-font-family:&amp;quot;Yu Mincho&amp;quot;;&lt;br/&gt;mso-fareast-theme-font:minor-fareast;mso-hansi-theme-font:minor-latin;&lt;br/&gt;mso-bidi-font-family:&amp;quot;Times New Roman&amp;quot;;mso-bidi-theme-font:minor-bidi;&lt;br/&gt;mso-font-kerning:0pt;mso-ligatures:none;mso-ansi-language:EN-US;mso-fareast-language:&lt;br/&gt;JA;mso-bidi-language:AR-SA&quot;&gt;&lt;/span&gt;" style="shape=umlLifeline;perimeter=lifelinePerimeter;whiteSpace=wrap;html=1;container=1;dropTarget=0;collapsible=0;recursiveResize=0;outlineConnect=0;portConstraint=eastwest;newEdgeStyle={&quot;edgeStyle&quot;:&quot;elbowEdgeStyle&quot;,&quot;elbow&quot;:&quot;vertical&quot;,&quot;curved&quot;:0,&quot;rounded&quot;:0};" parent="1" vertex="1">
          <mxGeometry x="260.88" y="280" width="100" height="600" as="geometry" />
        </mxCell>
        <mxCell id="20wduGAG27phjWjpJIrC-1" value="" style="html=1;points=[];perimeter=orthogonalPerimeter;outlineConnect=0;targetShapes=umlLifeline;portConstraint=eastwest;newEdgeStyle={&quot;edgeStyle&quot;:&quot;elbowEdgeStyle&quot;,&quot;elbow&quot;:&quot;vertical&quot;,&quot;curved&quot;:0,&quot;rounded&quot;:0};" parent="io6AJ3inkhHG0oqsFMTY-38" vertex="1">
          <mxGeometry x="45.00999999999999" y="70" width="10" height="10" as="geometry" />
        </mxCell>
        <mxCell id="io6AJ3inkhHG0oqsFMTY-40" value=":Dealer" style="shape=umlLifeline;perimeter=lifelinePerimeter;whiteSpace=wrap;html=1;container=1;dropTarget=0;collapsible=0;recursiveResize=0;outlineConnect=0;portConstraint=eastwest;newEdgeStyle={&quot;edgeStyle&quot;:&quot;elbowEdgeStyle&quot;,&quot;elbow&quot;:&quot;vertical&quot;,&quot;curved&quot;:0,&quot;rounded&quot;:0};" parent="1" vertex="1">
          <mxGeometry x="513.88" y="280" width="100" height="600" as="geometry" />
        </mxCell>
        <mxCell id="AQPu5HcKGOem1pKs6l_m-1" value="" style="html=1;points=[];perimeter=orthogonalPerimeter;outlineConnect=0;targetShapes=umlLifeline;portConstraint=eastwest;newEdgeStyle={&quot;edgeStyle&quot;:&quot;elbowEdgeStyle&quot;,&quot;elbow&quot;:&quot;vertical&quot;,&quot;curved&quot;:0,&quot;rounded&quot;:0};" parent="io6AJ3inkhHG0oqsFMTY-40" vertex="1">
          <mxGeometry x="45" y="70" width="10" height="180" as="geometry" />
        </mxCell>
        <mxCell id="zBhzL_NfLA6_7Fps8G_Y-1" value=":Deck" style="shape=umlLifeline;perimeter=lifelinePerimeter;whiteSpace=wrap;html=1;container=1;dropTarget=0;collapsible=0;recursiveResize=0;outlineConnect=0;portConstraint=eastwest;newEdgeStyle={&quot;edgeStyle&quot;:&quot;elbowEdgeStyle&quot;,&quot;elbow&quot;:&quot;vertical&quot;,&quot;curved&quot;:0,&quot;rounded&quot;:0};" parent="1" vertex="1">
          <mxGeometry x="639.38" y="280" width="100" height="600" as="geometry" />
        </mxCell>
        <mxCell id="YcIA81xpqAxRIVdiRe4--5" value="&lt;div&gt;&lt;b&gt;Contributers&lt;/b&gt;:&amp;nbsp;&lt;/div&gt;Jaehoon" style="whiteSpace=wrap;html=1;shape=mxgraph.basic.document" parent="1" vertex="1">
          <mxGeometry x="9" y="1110" width="141" height="62" as="geometry" />
        </mxCell>
        <mxCell id="xV6E1DVki9B6BM9e45An-1" value="playerHand:Hand" style="shape=umlLifeline;perimeter=lifelinePerimeter;whiteSpace=wrap;html=1;container=1;dropTarget=0;collapsible=0;recursiveResize=0;outlineConnect=0;portConstraint=eastwest;newEdgeStyle={&quot;edgeStyle&quot;:&quot;elbowEdgeStyle&quot;,&quot;elbow&quot;:&quot;vertical&quot;,&quot;curved&quot;:0,&quot;rounded&quot;:0};" parent="1" vertex="1">
          <mxGeometry x="397.88" y="280" width="100" height="600" as="geometry" />
        </mxCell>
        <mxCell id="bBU4iPKKPs8yPAen-k5F-1" value="" style="html=1;points=[];perimeter=orthogonalPerimeter;outlineConnect=0;targetShapes=umlLifeline;portConstraint=eastwest;newEdgeStyle={&quot;edgeStyle&quot;:&quot;elbowEdgeStyle&quot;,&quot;elbow&quot;:&quot;vertical&quot;,&quot;curved&quot;:0,&quot;rounded&quot;:0};" parent="xV6E1DVki9B6BM9e45An-1" vertex="1">
          <mxGeometry x="46" y="280" width="10" height="20" as="geometry" />
        </mxCell>
        <mxCell id="sahnQdc4N0tzb_4Ph3Nd-1" value="" style="group" parent="1" vertex="1" connectable="0">
          <mxGeometry x="75.5" y="600" width="720" height="280" as="geometry" />
        </mxCell>
        <mxCell id="8dXNY81btiB4z_aBLE0X-1" value="&lt;b&gt;alt&lt;/b&gt;" style="shape=umlFrame;whiteSpace=wrap;html=1;pointerEvents=0;width=70;height=30;" parent="sahnQdc4N0tzb_4Ph3Nd-1" vertex="1">
          <mxGeometry width="720" height="84.16666666666667" as="geometry" />
        </mxCell>
        <mxCell id="8dXNY81btiB4z_aBLE0X-2" value="" style="shape=umlFrame;whiteSpace=wrap;html=1;pointerEvents=0;width=10;height=15;" parent="sahnQdc4N0tzb_4Ph3Nd-1" vertex="1">
          <mxGeometry y="84.16666666666667" width="720" height="84.16666666666667" as="geometry" />
        </mxCell>
        <mxCell id="8dXNY81btiB4z_aBLE0X-5" value="" style="shape=umlFrame;whiteSpace=wrap;html=1;pointerEvents=0;width=10;height=15;" parent="sahnQdc4N0tzb_4Ph3Nd-1" vertex="1">
          <mxGeometry y="168.33333333333334" width="720" height="84.16666666666667" as="geometry" />
        </mxCell>
        <mxCell id="8dXNY81btiB4z_aBLE0X-3" value="[player&#39;s total exceeds 21]" style="text;html=1;align=center;verticalAlign=middle;resizable=0;points=[];autosize=1;strokeColor=none;fillColor=none;" parent="sahnQdc4N0tzb_4Ph3Nd-1" vertex="1">
          <mxGeometry x="68.77762120232708" width="160" height="30" as="geometry" />
        </mxCell>
        <mxCell id="sahnQdc4N0tzb_4Ph3Nd-3" value="[player&#39;s total is 21]" style="text;html=1;align=center;verticalAlign=middle;resizable=0;points=[];autosize=1;strokeColor=none;fillColor=none;" parent="sahnQdc4N0tzb_4Ph3Nd-1" vertex="1">
          <mxGeometry x="68.78209529965832" y="84.16666666666667" width="130" height="30" as="geometry" />
        </mxCell>
        <mxCell id="sahnQdc4N0tzb_4Ph3Nd-4" value="[player&#39;s total is less than 21]" style="text;html=1;align=center;verticalAlign=middle;resizable=0;points=[];autosize=1;strokeColor=none;fillColor=none;" parent="sahnQdc4N0tzb_4Ph3Nd-1" vertex="1">
          <mxGeometry x="38.38016437344169" y="168.33333333333334" width="180" height="30" as="geometry" />
        </mxCell>
        <mxCell id="ea7vZ4sFW7_QIjVYNMty-4" value="setGameState(3)" style="html=1;verticalAlign=bottom;startArrow=none;endArrow=open;startSize=8;edgeStyle=elbowEdgeStyle;elbow=vertical;curved=0;rounded=0;startFill=0;endFill=0;" parent="sahnQdc4N0tzb_4Ph3Nd-1" target="ea7vZ4sFW7_QIjVYNMty-3" edge="1">
          <mxGeometry relative="1" as="geometry">
            <mxPoint x="232.21455259026686" y="50.150493827160496" as="sourcePoint" />
          </mxGeometry>
        </mxCell>
        <mxCell id="ea7vZ4sFW7_QIjVYNMty-2" value="setGameState(2)" style="html=1;verticalAlign=bottom;startArrow=none;endArrow=open;startSize=8;edgeStyle=elbowEdgeStyle;elbow=vertical;curved=0;rounded=0;startFill=0;endFill=0;" parent="sahnQdc4N0tzb_4Ph3Nd-1" target="ea7vZ4sFW7_QIjVYNMty-1" edge="1">
          <mxGeometry relative="1" as="geometry">
            <mxPoint x="237.50455259026688" y="130.15765432098766" as="sourcePoint" />
          </mxGeometry>
        </mxCell>
        <mxCell id="nxEybNQ23JghIIL4d0KX-2" value="setGameState(1)" style="html=1;verticalAlign=bottom;startArrow=none;endArrow=open;startSize=8;edgeStyle=elbowEdgeStyle;elbow=vertical;curved=0;rounded=0;startFill=0;endFill=0;" parent="sahnQdc4N0tzb_4Ph3Nd-1" target="nxEybNQ23JghIIL4d0KX-1" edge="1">
          <mxGeometry relative="1" as="geometry">
            <mxPoint x="236.09262166405028" y="210.0043209876544" as="sourcePoint" />
          </mxGeometry>
        </mxCell>
        <mxCell id="bmDj-WJkDchAQwannBa1-1" value="" style="html=1;points=[];perimeter=orthogonalPerimeter;outlineConnect=0;targetShapes=umlLifeline;portConstraint=eastwest;newEdgeStyle={&quot;edgeStyle&quot;:&quot;elbowEdgeStyle&quot;,&quot;elbow&quot;:&quot;vertical&quot;,&quot;curved&quot;:0,&quot;rounded&quot;:0};" parent="1" vertex="1">
          <mxGeometry x="683.38" y="395" width="10" height="80" as="geometry" />
        </mxCell>
        <mxCell id="bmDj-WJkDchAQwannBa1-2" value="drawCard()" style="html=1;verticalAlign=bottom;endArrow=block;edgeStyle=elbowEdgeStyle;elbow=vertical;curved=0;rounded=0;" parent="1" target="bmDj-WJkDchAQwannBa1-1" edge="1">
          <mxGeometry relative="1" as="geometry">
            <mxPoint x="563.6903448275863" y="395" as="sourcePoint" />
            <Array as="points">
              <mxPoint x="633.88" y="395" />
            </Array>
            <mxPoint as="offset" />
          </mxGeometry>
        </mxCell>
        <mxCell id="bmDj-WJkDchAQwannBa1-3" value="card" style="html=1;verticalAlign=bottom;endArrow=open;dashed=1;endSize=8;edgeStyle=elbowEdgeStyle;elbow=vertical;curved=0;rounded=0;" parent="1" source="bmDj-WJkDchAQwannBa1-1" edge="1">
          <mxGeometry x="-0.002" relative="1" as="geometry">
            <mxPoint x="563.6903448275863" y="470" as="targetPoint" />
            <Array as="points">
              <mxPoint x="643.88" y="470" />
            </Array>
            <mxPoint as="offset" />
          </mxGeometry>
        </mxCell>
        <mxCell id="AQPu5HcKGOem1pKs6l_m-3" value="card" style="html=1;verticalAlign=bottom;endArrow=open;dashed=1;endSize=8;edgeStyle=elbowEdgeStyle;elbow=vertical;curved=0;rounded=0;" parent="1" source="AQPu5HcKGOem1pKs6l_m-1" target="io6AJ3inkhHG0oqsFMTY-38" edge="1">
          <mxGeometry relative="1" as="geometry">
            <mxPoint x="488.88" y="425" as="targetPoint" />
            <Array as="points">
              <mxPoint x="513.88" y="530" />
            </Array>
          </mxGeometry>
        </mxCell>
        <mxCell id="bBU4iPKKPs8yPAen-k5F-2" value="addCard(card)" style="html=1;verticalAlign=bottom;startArrow=none;endArrow=open;startSize=8;edgeStyle=elbowEdgeStyle;elbow=vertical;curved=0;rounded=0;startFill=0;endFill=0;" parent="1" source="io6AJ3inkhHG0oqsFMTY-37" target="bBU4iPKKPs8yPAen-k5F-1" edge="1">
          <mxGeometry relative="1" as="geometry">
            <mxPoint x="383.88" y="560" as="sourcePoint" />
          </mxGeometry>
        </mxCell>
        <mxCell id="AQPu5HcKGOem1pKs6l_m-5" value="getHand(card)" style="html=1;verticalAlign=bottom;startArrow=none;endArrow=open;startSize=8;edgeStyle=elbowEdgeStyle;elbow=vertical;curved=0;rounded=0;startFill=0;endFill=0;" parent="1" source="io6AJ3inkhHG0oqsFMTY-38" target="AQPu5HcKGOem1pKs6l_m-4" edge="1">
          <mxGeometry relative="1" as="geometry">
            <mxPoint x="83.88" y="540" as="sourcePoint" />
          </mxGeometry>
        </mxCell>
        <mxCell id="XRCvlEb7QdBW1ou8b3zP-1" value="" style="group" parent="1" vertex="1" connectable="0">
          <mxGeometry x="75" y="1600" width="700" height="400" as="geometry" />
        </mxCell>
        <mxCell id="XRCvlEb7QdBW1ou8b3zP-2" value="&lt;b&gt;opt&lt;/b&gt;" style="shape=umlFrame;whiteSpace=wrap;html=1;pointerEvents=0;" parent="XRCvlEb7QdBW1ou8b3zP-1" vertex="1">
          <mxGeometry width="700" height="250" as="geometry" />
        </mxCell>
        <mxCell id="XRCvlEb7QdBW1ou8b3zP-3" value="[two cards same value &amp;amp;&amp;amp;can double bet]" style="text;html=1;align=center;verticalAlign=middle;resizable=0;points=[];autosize=1;strokeColor=none;fillColor=none;" parent="XRCvlEb7QdBW1ou8b3zP-1" vertex="1">
          <mxGeometry x="79.99705882352939" width="240" height="30" as="geometry" />
        </mxCell>
        <mxCell id="b5veIQXKvb8qaDB1VbYx-1" value="playerHand2:Hand&lt;span style=&quot;font-size:11.0pt;line-height:107%;font-family:&amp;quot;Calibri&amp;quot;,sans-serif;&lt;br/&gt;mso-ascii-theme-font:minor-latin;mso-fareast-font-family:&amp;quot;Yu Mincho&amp;quot;;&lt;br/&gt;mso-fareast-theme-font:minor-fareast;mso-hansi-theme-font:minor-latin;&lt;br/&gt;mso-bidi-font-family:&amp;quot;Times New Roman&amp;quot;;mso-bidi-theme-font:minor-bidi;&lt;br/&gt;mso-font-kerning:0pt;mso-ligatures:none;mso-ansi-language:EN-US;mso-fareast-language:&lt;br/&gt;JA;mso-bidi-language:AR-SA&quot;&gt;&lt;/span&gt;" style="shape=umlLifeline;perimeter=lifelinePerimeter;whiteSpace=wrap;html=1;container=1;dropTarget=0;collapsible=0;recursiveResize=0;outlineConnect=0;portConstraint=eastwest;newEdgeStyle={&quot;edgeStyle&quot;:&quot;elbowEdgeStyle&quot;,&quot;elbow&quot;:&quot;vertical&quot;,&quot;curved&quot;:0,&quot;rounded&quot;:0};" parent="XRCvlEb7QdBW1ou8b3zP-1" vertex="1">
          <mxGeometry x="120" y="130" width="100" height="270" as="geometry" />
        </mxCell>
        <mxCell id="b5veIQXKvb8qaDB1VbYx-2" value="new" style="html=1;verticalAlign=bottom;endArrow=block;edgeStyle=elbowEdgeStyle;elbow=vertical;curved=0;rounded=0;" parent="XRCvlEb7QdBW1ou8b3zP-1" edge="1">
          <mxGeometry relative="1" as="geometry">
            <mxPoint x="80" y="150" as="sourcePoint" />
            <mxPoint x="120" y="150" as="targetPoint" />
          </mxGeometry>
        </mxCell>
        <mxCell id="DDJMyOzurcdNRgvI6IFp-1" value="" style="group" parent="XRCvlEb7QdBW1ou8b3zP-1" vertex="1" connectable="0">
          <mxGeometry x="10" y="50" width="680" height="60" as="geometry" />
        </mxCell>
        <mxCell id="DDJMyOzurcdNRgvI6IFp-2" value="Hit (playerHand)" style="rounded=0;whiteSpace=wrap;html=1;" parent="DDJMyOzurcdNRgvI6IFp-1" vertex="1">
          <mxGeometry width="680" height="60" as="geometry" />
        </mxCell>
        <mxCell id="DDJMyOzurcdNRgvI6IFp-3" value="&lt;b&gt;ref&lt;/b&gt;" style="shape=umlFrame;whiteSpace=wrap;html=1;pointerEvents=0;" parent="DDJMyOzurcdNRgvI6IFp-1" vertex="1">
          <mxGeometry width="680" height="60" as="geometry" />
        </mxCell>
        <mxCell id="DDJMyOzurcdNRgvI6IFp-12" value="" style="group" parent="XRCvlEb7QdBW1ou8b3zP-1" vertex="1" connectable="0">
          <mxGeometry x="10" y="180" width="680" height="60" as="geometry" />
        </mxCell>
        <mxCell id="DDJMyOzurcdNRgvI6IFp-13" value="Hit (playerHand2)" style="rounded=0;whiteSpace=wrap;html=1;" parent="DDJMyOzurcdNRgvI6IFp-12" vertex="1">
          <mxGeometry width="680" height="60" as="geometry" />
        </mxCell>
        <mxCell id="DDJMyOzurcdNRgvI6IFp-14" value="&lt;b&gt;ref&lt;/b&gt;" style="shape=umlFrame;whiteSpace=wrap;html=1;pointerEvents=0;" parent="DDJMyOzurcdNRgvI6IFp-12" vertex="1">
          <mxGeometry width="680" height="60" as="geometry" />
        </mxCell>
        <mxCell id="8iGwPbnOn8LscL3MnUIy-28" value=":Player&lt;br&gt;&lt;br&gt;&lt;br&gt;&lt;br&gt;&lt;br&gt;&lt;br&gt;" style="shape=umlLifeline;perimeter=lifelinePerimeter;whiteSpace=wrap;html=1;container=1;dropTarget=0;collapsible=0;recursiveResize=0;outlineConnect=0;portConstraint=eastwest;newEdgeStyle={&quot;edgeStyle&quot;:&quot;elbowEdgeStyle&quot;,&quot;elbow&quot;:&quot;vertical&quot;,&quot;curved&quot;:0,&quot;rounded&quot;:0};participant=umlActor;" parent="1" vertex="1">
          <mxGeometry x="144.63" y="1420" width="20" height="580" as="geometry" />
        </mxCell>
        <mxCell id="i15VKQGjdMZdgfvhjxVM-1" value="" style="html=1;points=[];perimeter=orthogonalPerimeter;outlineConnect=0;targetShapes=umlLifeline;portConstraint=eastwest;newEdgeStyle={&quot;edgeStyle&quot;:&quot;elbowEdgeStyle&quot;,&quot;elbow&quot;:&quot;vertical&quot;,&quot;curved&quot;:0,&quot;rounded&quot;:0};" parent="8iGwPbnOn8LscL3MnUIy-28" vertex="1">
          <mxGeometry x="4.18" y="80" width="10" height="19.72" as="geometry" />
        </mxCell>
        <mxCell id="f_E0TuJEy-RSWKuYNu4u-1" value="" style="html=1;points=[];perimeter=orthogonalPerimeter;outlineConnect=0;targetShapes=umlLifeline;portConstraint=eastwest;newEdgeStyle={&quot;edgeStyle&quot;:&quot;elbowEdgeStyle&quot;,&quot;elbow&quot;:&quot;vertical&quot;,&quot;curved&quot;:0,&quot;rounded&quot;:0};" parent="8iGwPbnOn8LscL3MnUIy-28" vertex="1">
          <mxGeometry x="5.3700000000000045" y="130" width="10" height="20" as="geometry" />
        </mxCell>
        <mxCell id="f_E0TuJEy-RSWKuYNu4u-2" value="setAdditionalState(2)" style="html=1;align=left;spacingLeft=2;endArrow=block;rounded=0;edgeStyle=orthogonalEdgeStyle;curved=0;rounded=0;" parent="8iGwPbnOn8LscL3MnUIy-28" target="f_E0TuJEy-RSWKuYNu4u-1" edge="1">
          <mxGeometry relative="1" as="geometry">
            <mxPoint x="10.369999999999976" y="110" as="sourcePoint" />
            <Array as="points">
              <mxPoint x="87.86999999999998" y="110" />
              <mxPoint x="87.86999999999998" y="140" />
            </Array>
          </mxGeometry>
        </mxCell>
        <mxCell id="8iGwPbnOn8LscL3MnUIy-33" value=":Game&lt;span style=&quot;font-size:11.0pt;line-height:107%;font-family:&amp;quot;Calibri&amp;quot;,sans-serif;&lt;br/&gt;mso-ascii-theme-font:minor-latin;mso-fareast-font-family:&amp;quot;Yu Mincho&amp;quot;;&lt;br/&gt;mso-fareast-theme-font:minor-fareast;mso-hansi-theme-font:minor-latin;&lt;br/&gt;mso-bidi-font-family:&amp;quot;Times New Roman&amp;quot;;mso-bidi-theme-font:minor-bidi;&lt;br/&gt;mso-font-kerning:0pt;mso-ligatures:none;mso-ansi-language:EN-US;mso-fareast-language:&lt;br/&gt;JA;mso-bidi-language:AR-SA&quot;&gt;&lt;/span&gt;" style="shape=umlLifeline;perimeter=lifelinePerimeter;whiteSpace=wrap;html=1;container=1;dropTarget=0;collapsible=0;recursiveResize=0;outlineConnect=0;portConstraint=eastwest;newEdgeStyle={&quot;edgeStyle&quot;:&quot;elbowEdgeStyle&quot;,&quot;elbow&quot;:&quot;vertical&quot;,&quot;curved&quot;:0,&quot;rounded&quot;:0};" parent="1" vertex="1">
          <mxGeometry x="261.63" y="1400" width="100" height="600" as="geometry" />
        </mxCell>
        <mxCell id="8iGwPbnOn8LscL3MnUIy-34" value=":Dealer" style="shape=umlLifeline;perimeter=lifelinePerimeter;whiteSpace=wrap;html=1;container=1;dropTarget=0;collapsible=0;recursiveResize=0;outlineConnect=0;portConstraint=eastwest;newEdgeStyle={&quot;edgeStyle&quot;:&quot;elbowEdgeStyle&quot;,&quot;elbow&quot;:&quot;vertical&quot;,&quot;curved&quot;:0,&quot;rounded&quot;:0};" parent="1" vertex="1">
          <mxGeometry x="514.63" y="1400" width="100" height="600" as="geometry" />
        </mxCell>
        <mxCell id="8iGwPbnOn8LscL3MnUIy-37" value=":Deck" style="shape=umlLifeline;perimeter=lifelinePerimeter;whiteSpace=wrap;html=1;container=1;dropTarget=0;collapsible=0;recursiveResize=0;outlineConnect=0;portConstraint=eastwest;newEdgeStyle={&quot;edgeStyle&quot;:&quot;elbowEdgeStyle&quot;,&quot;elbow&quot;:&quot;vertical&quot;,&quot;curved&quot;:0,&quot;rounded&quot;:0};" parent="1" vertex="1">
          <mxGeometry x="640.13" y="1400" width="100" height="600" as="geometry" />
        </mxCell>
        <mxCell id="8iGwPbnOn8LscL3MnUIy-38" value="playerHand:Hand" style="shape=umlLifeline;perimeter=lifelinePerimeter;whiteSpace=wrap;html=1;container=1;dropTarget=0;collapsible=0;recursiveResize=0;outlineConnect=0;portConstraint=eastwest;newEdgeStyle={&quot;edgeStyle&quot;:&quot;elbowEdgeStyle&quot;,&quot;elbow&quot;:&quot;vertical&quot;,&quot;curved&quot;:0,&quot;rounded&quot;:0};" parent="1" vertex="1">
          <mxGeometry x="398.63" y="1400" width="100" height="600" as="geometry" />
        </mxCell>
        <mxCell id="DDJMyOzurcdNRgvI6IFp-15" value=":Player&lt;br&gt;&lt;br&gt;&lt;br&gt;&lt;br&gt;&lt;br&gt;&lt;br&gt;" style="shape=umlLifeline;perimeter=lifelinePerimeter;whiteSpace=wrap;html=1;container=1;dropTarget=0;collapsible=0;recursiveResize=0;outlineConnect=0;portConstraint=eastwest;newEdgeStyle={&quot;edgeStyle&quot;:&quot;elbowEdgeStyle&quot;,&quot;elbow&quot;:&quot;vertical&quot;,&quot;curved&quot;:0,&quot;rounded&quot;:0};participant=umlActor;" parent="1" vertex="1">
          <mxGeometry x="145.38" y="2500" width="20" height="580" as="geometry" />
        </mxCell>
        <mxCell id="cq0q6kgCaP8XRuyKElRf-21" value="" style="html=1;points=[];perimeter=orthogonalPerimeter;outlineConnect=0;targetShapes=umlLifeline;portConstraint=eastwest;newEdgeStyle={&quot;edgeStyle&quot;:&quot;elbowEdgeStyle&quot;,&quot;elbow&quot;:&quot;vertical&quot;,&quot;curved&quot;:0,&quot;rounded&quot;:0};" parent="DDJMyOzurcdNRgvI6IFp-15" vertex="1">
          <mxGeometry x="5.939999999999998" y="60" width="10" height="19.72" as="geometry" />
        </mxCell>
        <mxCell id="cq0q6kgCaP8XRuyKElRf-22" value="doubleDown()" style="html=1;verticalAlign=bottom;startArrow=none;endArrow=open;startSize=8;edgeStyle=elbowEdgeStyle;elbow=vertical;curved=0;rounded=0;startFill=0;endFill=0;" parent="DDJMyOzurcdNRgvI6IFp-15" target="cq0q6kgCaP8XRuyKElRf-21" edge="1">
          <mxGeometry relative="1" as="geometry">
            <mxPoint x="168.31" y="60" as="sourcePoint" />
            <Array as="points">
              <mxPoint x="308.31" y="60.720000000000255" />
            </Array>
          </mxGeometry>
        </mxCell>
        <mxCell id="f_E0TuJEy-RSWKuYNu4u-3" value="" style="html=1;points=[];perimeter=orthogonalPerimeter;outlineConnect=0;targetShapes=umlLifeline;portConstraint=eastwest;newEdgeStyle={&quot;edgeStyle&quot;:&quot;elbowEdgeStyle&quot;,&quot;elbow&quot;:&quot;vertical&quot;,&quot;curved&quot;:0,&quot;rounded&quot;:0};" parent="DDJMyOzurcdNRgvI6IFp-15" vertex="1">
          <mxGeometry x="5.939999999999998" y="110" width="10" height="20" as="geometry" />
        </mxCell>
        <mxCell id="f_E0TuJEy-RSWKuYNu4u-4" value="setAdditionalState(3)" style="html=1;align=left;spacingLeft=2;endArrow=block;rounded=0;edgeStyle=orthogonalEdgeStyle;curved=0;rounded=0;" parent="DDJMyOzurcdNRgvI6IFp-15" target="f_E0TuJEy-RSWKuYNu4u-3" edge="1">
          <mxGeometry relative="1" as="geometry">
            <mxPoint x="10.93999999999997" y="90" as="sourcePoint" />
            <Array as="points">
              <mxPoint x="88.43999999999997" y="90" />
              <mxPoint x="88.43999999999997" y="120" />
            </Array>
          </mxGeometry>
        </mxCell>
        <mxCell id="0CEAvyoJreBTmwqNnFpm-11" value="" style="html=1;points=[];perimeter=orthogonalPerimeter;outlineConnect=0;targetShapes=umlLifeline;portConstraint=eastwest;newEdgeStyle={&quot;edgeStyle&quot;:&quot;elbowEdgeStyle&quot;,&quot;elbow&quot;:&quot;vertical&quot;,&quot;curved&quot;:0,&quot;rounded&quot;:0};" parent="DDJMyOzurcdNRgvI6IFp-15" vertex="1">
          <mxGeometry x="5.939999999999998" y="310" width="10" height="20" as="geometry" />
        </mxCell>
        <mxCell id="0CEAvyoJreBTmwqNnFpm-12" value="setAdditionalState(1)" style="html=1;align=left;spacingLeft=2;endArrow=block;rounded=0;edgeStyle=orthogonalEdgeStyle;curved=0;rounded=0;" parent="DDJMyOzurcdNRgvI6IFp-15" target="0CEAvyoJreBTmwqNnFpm-11" edge="1">
          <mxGeometry relative="1" as="geometry">
            <mxPoint x="10.93999999999997" y="290" as="sourcePoint" />
            <Array as="points">
              <mxPoint x="88.43999999999997" y="290" />
              <mxPoint x="88.43999999999997" y="320" />
            </Array>
          </mxGeometry>
        </mxCell>
        <mxCell id="DDJMyOzurcdNRgvI6IFp-16" value=":Game&lt;span style=&quot;font-size:11.0pt;line-height:107%;font-family:&amp;quot;Calibri&amp;quot;,sans-serif;&lt;br/&gt;mso-ascii-theme-font:minor-latin;mso-fareast-font-family:&amp;quot;Yu Mincho&amp;quot;;&lt;br/&gt;mso-fareast-theme-font:minor-fareast;mso-hansi-theme-font:minor-latin;&lt;br/&gt;mso-bidi-font-family:&amp;quot;Times New Roman&amp;quot;;mso-bidi-theme-font:minor-bidi;&lt;br/&gt;mso-font-kerning:0pt;mso-ligatures:none;mso-ansi-language:EN-US;mso-fareast-language:&lt;br/&gt;JA;mso-bidi-language:AR-SA&quot;&gt;&lt;/span&gt;" style="shape=umlLifeline;perimeter=lifelinePerimeter;whiteSpace=wrap;html=1;container=1;dropTarget=0;collapsible=0;recursiveResize=0;outlineConnect=0;portConstraint=eastwest;newEdgeStyle={&quot;edgeStyle&quot;:&quot;elbowEdgeStyle&quot;,&quot;elbow&quot;:&quot;vertical&quot;,&quot;curved&quot;:0,&quot;rounded&quot;:0};" parent="1" vertex="1">
          <mxGeometry x="262.38" y="2480" width="100" height="600" as="geometry" />
        </mxCell>
        <mxCell id="DDJMyOzurcdNRgvI6IFp-17" value=":Dealer" style="shape=umlLifeline;perimeter=lifelinePerimeter;whiteSpace=wrap;html=1;container=1;dropTarget=0;collapsible=0;recursiveResize=0;outlineConnect=0;portConstraint=eastwest;newEdgeStyle={&quot;edgeStyle&quot;:&quot;elbowEdgeStyle&quot;,&quot;elbow&quot;:&quot;vertical&quot;,&quot;curved&quot;:0,&quot;rounded&quot;:0};" parent="1" vertex="1">
          <mxGeometry x="515.38" y="2480" width="100" height="600" as="geometry" />
        </mxCell>
        <mxCell id="DDJMyOzurcdNRgvI6IFp-18" value=":Deck" style="shape=umlLifeline;perimeter=lifelinePerimeter;whiteSpace=wrap;html=1;container=1;dropTarget=0;collapsible=0;recursiveResize=0;outlineConnect=0;portConstraint=eastwest;newEdgeStyle={&quot;edgeStyle&quot;:&quot;elbowEdgeStyle&quot;,&quot;elbow&quot;:&quot;vertical&quot;,&quot;curved&quot;:0,&quot;rounded&quot;:0};" parent="1" vertex="1">
          <mxGeometry x="640.88" y="2480" width="100" height="600" as="geometry" />
        </mxCell>
        <mxCell id="DDJMyOzurcdNRgvI6IFp-19" value="playerHand:Hand" style="shape=umlLifeline;perimeter=lifelinePerimeter;whiteSpace=wrap;html=1;container=1;dropTarget=0;collapsible=0;recursiveResize=0;outlineConnect=0;portConstraint=eastwest;newEdgeStyle={&quot;edgeStyle&quot;:&quot;elbowEdgeStyle&quot;,&quot;elbow&quot;:&quot;vertical&quot;,&quot;curved&quot;:0,&quot;rounded&quot;:0};" parent="1" vertex="1">
          <mxGeometry x="399.38" y="2480" width="100" height="600" as="geometry" />
        </mxCell>
        <mxCell id="i15VKQGjdMZdgfvhjxVM-2" value="split()" style="html=1;verticalAlign=bottom;startArrow=none;endArrow=open;startSize=8;edgeStyle=elbowEdgeStyle;elbow=vertical;curved=0;rounded=0;startFill=0;endFill=0;" parent="1" target="i15VKQGjdMZdgfvhjxVM-1" edge="1">
          <mxGeometry relative="1" as="geometry">
            <mxPoint x="311.18" y="1500.0000000000002" as="sourcePoint" />
            <Array as="points">
              <mxPoint x="451.18" y="1500.72" />
            </Array>
          </mxGeometry>
        </mxCell>
        <mxCell id="cq0q6kgCaP8XRuyKElRf-12" value="&lt;b&gt;opt&lt;/b&gt;" style="shape=umlFrame;whiteSpace=wrap;html=1;pointerEvents=0;" parent="1" vertex="1">
          <mxGeometry x="75" y="2640" width="700" height="120" as="geometry" />
        </mxCell>
        <mxCell id="cq0q6kgCaP8XRuyKElRf-13" value="[can double bet]" style="text;html=1;align=center;verticalAlign=middle;resizable=0;points=[];autosize=1;strokeColor=none;fillColor=none;" parent="1" vertex="1">
          <mxGeometry x="178.34705882352938" y="2640" width="110" height="30" as="geometry" />
        </mxCell>
        <mxCell id="cq0q6kgCaP8XRuyKElRf-15" value="" style="group" parent="1" vertex="1" connectable="0">
          <mxGeometry x="85" y="2690" width="680" height="60" as="geometry" />
        </mxCell>
        <mxCell id="cq0q6kgCaP8XRuyKElRf-16" value="Hit" style="rounded=0;whiteSpace=wrap;html=1;" parent="cq0q6kgCaP8XRuyKElRf-15" vertex="1">
          <mxGeometry width="680" height="60" as="geometry" />
        </mxCell>
        <mxCell id="cq0q6kgCaP8XRuyKElRf-17" value="&lt;b&gt;ref&lt;/b&gt;" style="shape=umlFrame;whiteSpace=wrap;html=1;pointerEvents=0;" parent="cq0q6kgCaP8XRuyKElRf-15" vertex="1">
          <mxGeometry width="680" height="60" as="geometry" />
        </mxCell>
        <mxCell id="AQPu5HcKGOem1pKs6l_m-2" value="dealCard()" style="html=1;verticalAlign=bottom;endArrow=block;edgeStyle=elbowEdgeStyle;elbow=vertical;curved=0;rounded=0;" parent="1" source="io6AJ3inkhHG0oqsFMTY-38" target="AQPu5HcKGOem1pKs6l_m-1" edge="1">
          <mxGeometry relative="1" as="geometry">
            <mxPoint x="488.88" y="350" as="sourcePoint" />
            <Array as="points">
              <mxPoint x="510.88" y="370" />
              <mxPoint x="313.88" y="350" />
            </Array>
          </mxGeometry>
        </mxCell>
        <mxCell id="20wduGAG27phjWjpJIrC-2" value="hit()" style="html=1;verticalAlign=bottom;startArrow=none;endArrow=open;startSize=8;edgeStyle=elbowEdgeStyle;elbow=vertical;curved=0;rounded=0;startFill=0;endFill=0;" parent="1" source="io6AJ3inkhHG0oqsFMTY-37" target="20wduGAG27phjWjpJIrC-1" edge="1">
          <mxGeometry relative="1" as="geometry">
            <mxPoint x="245.89" y="350.00000000000006" as="sourcePoint" />
          </mxGeometry>
        </mxCell>
        <mxCell id="JgU_Lv_y6ElgeZlBlLtq-1" value="&lt;b&gt;JUnit Scenario 1&lt;/b&gt;:&amp;nbsp;The player chooses to hit,&lt;br style=&quot;border-color: var(--border-color); font-size: 14px;&quot;&gt;&lt;span style=&quot;font-size: 14px;&quot;&gt;requesting an additional card from the dealer.&lt;/span&gt;&lt;br&gt;&lt;br&gt;&lt;b style=&quot;border-color: var(--border-color);&quot;&gt;JUnit Scenario 2&lt;/b&gt;:&amp;nbsp;If the player&#39;s hand value exceeds 21, they bust, and the round ends. If equals to 21, they win. If less than 21, move on to next step." style="shape=note;whiteSpace=wrap;html=1;size=14;verticalAlign=top;align=left;spacingTop=-6;rounded=0;shadow=0;comic=0;labelBackgroundColor=none;strokeWidth=1;fontFamily=Verdana;fontSize=12" parent="1" vertex="1">
          <mxGeometry x="239" y="110" width="373" height="120" as="geometry" />
        </mxCell>
        <mxCell id="JgU_Lv_y6ElgeZlBlLtq-2" value="&lt;b&gt;JUnit Scenario 1&lt;/b&gt;:&amp;nbsp;If the player&#39;s initial hand&lt;br style=&quot;border-color: var(--border-color); font-size: 14px;&quot;&gt;&lt;span style=&quot;font-size: 14px;&quot;&gt;consists of two cards with the same value and have enough chips, they can choose to split the pair into two separate hands and place an additional bet.&lt;/span&gt;&lt;br&gt;&lt;br&gt;&lt;b style=&quot;border-color: var(--border-color);&quot;&gt;JUnit Scenario 2&lt;/b&gt;:&amp;nbsp;If not, player cannot split." style="shape=note;whiteSpace=wrap;html=1;size=14;verticalAlign=top;align=left;spacingTop=-6;rounded=0;shadow=0;comic=0;labelBackgroundColor=none;strokeWidth=1;fontFamily=Verdana;fontSize=12" parent="1" vertex="1">
          <mxGeometry x="239" y="1200" width="373" height="150" as="geometry" />
        </mxCell>
        <mxCell id="JgU_Lv_y6ElgeZlBlLtq-3" value="&lt;b&gt;JUnit Scenario 1&lt;/b&gt;:&amp;nbsp;The player has the option to&lt;br style=&quot;border-color: var(--border-color); font-size: 14px;&quot;&gt;&lt;span style=&quot;font-size: 14px;&quot;&gt;double their original bet after receiving their initial two cards.&lt;/span&gt;&lt;br&gt;&lt;br&gt;&lt;b style=&quot;border-color: var(--border-color);&quot;&gt;JUnit Scenario 2&lt;/b&gt;:&amp;nbsp;If not, player cannot double down." style="shape=note;whiteSpace=wrap;html=1;size=14;verticalAlign=top;align=left;spacingTop=-6;rounded=0;shadow=0;comic=0;labelBackgroundColor=none;strokeWidth=1;fontFamily=Verdana;fontSize=12" parent="1" vertex="1">
          <mxGeometry x="248.99999999999997" y="2300" width="373" height="150" as="geometry" />
        </mxCell>
        <mxCell id="GtrrQw7bfFzOLFfS9uJ0-10" value="&lt;b&gt;JUnit Scenario 1&lt;/b&gt;:&amp;nbsp;The player can choose to&lt;br style=&quot;border-color: var(--border-color); font-size: 14px;&quot;&gt;&lt;span style=&quot;font-size: 14px;&quot;&gt;surrender and forfeit half of their bet, accepting a loss for the round.&amp;nbsp;&lt;/span&gt;&lt;br&gt;&lt;b style=&quot;border-color: var(--border-color);&quot;&gt;JUnit Scenario 2&lt;/b&gt;: the round should be over correctly, and the player is not surrender state anymore." style="shape=note;whiteSpace=wrap;html=1;size=14;verticalAlign=top;align=left;spacingTop=-6;rounded=0;shadow=0;comic=0;labelBackgroundColor=none;strokeWidth=1;fontFamily=Verdana;fontSize=12" parent="1" vertex="1">
          <mxGeometry x="249" y="5600" width="373" height="110" as="geometry" />
        </mxCell>
        <mxCell id="BHNZWUh2yXDGx6S_lVH5-1" value=":Player&lt;br&gt;&lt;br&gt;&lt;br&gt;&lt;br&gt;&lt;br&gt;&lt;br&gt;" style="shape=umlLifeline;perimeter=lifelinePerimeter;whiteSpace=wrap;html=1;container=1;dropTarget=0;collapsible=0;recursiveResize=0;outlineConnect=0;portConstraint=eastwest;newEdgeStyle={&quot;edgeStyle&quot;:&quot;elbowEdgeStyle&quot;,&quot;elbow&quot;:&quot;vertical&quot;,&quot;curved&quot;:0,&quot;rounded&quot;:0};participant=umlActor;" parent="1" vertex="1">
          <mxGeometry x="138.38" y="5820" width="20" height="580" as="geometry" />
        </mxCell>
        <mxCell id="BHNZWUh2yXDGx6S_lVH5-2" value="" style="html=1;points=[];perimeter=orthogonalPerimeter;outlineConnect=0;targetShapes=umlLifeline;portConstraint=eastwest;newEdgeStyle={&quot;edgeStyle&quot;:&quot;elbowEdgeStyle&quot;,&quot;elbow&quot;:&quot;vertical&quot;,&quot;curved&quot;:0,&quot;rounded&quot;:0};" parent="BHNZWUh2yXDGx6S_lVH5-1" vertex="1">
          <mxGeometry x="4.710000000000008" y="60" width="10" height="19.72" as="geometry" />
        </mxCell>
        <mxCell id="BHNZWUh2yXDGx6S_lVH5-3" value="surrender()" style="html=1;verticalAlign=bottom;startArrow=none;endArrow=open;startSize=8;edgeStyle=elbowEdgeStyle;elbow=vertical;curved=0;rounded=0;startFill=0;endFill=0;" parent="BHNZWUh2yXDGx6S_lVH5-1" target="BHNZWUh2yXDGx6S_lVH5-2" edge="1">
          <mxGeometry relative="1" as="geometry">
            <mxPoint x="167.07999999999998" y="60" as="sourcePoint" />
            <Array as="points">
              <mxPoint x="307.08" y="60.720000000000255" />
            </Array>
          </mxGeometry>
        </mxCell>
        <mxCell id="BHNZWUh2yXDGx6S_lVH5-4" value="" style="html=1;points=[];perimeter=orthogonalPerimeter;outlineConnect=0;targetShapes=umlLifeline;portConstraint=eastwest;newEdgeStyle={&quot;edgeStyle&quot;:&quot;elbowEdgeStyle&quot;,&quot;elbow&quot;:&quot;vertical&quot;,&quot;curved&quot;:0,&quot;rounded&quot;:0};" parent="BHNZWUh2yXDGx6S_lVH5-1" vertex="1">
          <mxGeometry x="4.710000000000008" y="110" width="10" height="20" as="geometry" />
        </mxCell>
        <mxCell id="BHNZWUh2yXDGx6S_lVH5-5" value="setAdditionalState(4)" style="html=1;align=left;spacingLeft=2;endArrow=block;rounded=0;edgeStyle=orthogonalEdgeStyle;curved=0;rounded=0;" parent="BHNZWUh2yXDGx6S_lVH5-1" target="BHNZWUh2yXDGx6S_lVH5-4" edge="1">
          <mxGeometry relative="1" as="geometry">
            <mxPoint x="9.70999999999998" y="90" as="sourcePoint" />
            <Array as="points">
              <mxPoint x="87.20999999999998" y="90" />
              <mxPoint x="87.20999999999998" y="120" />
            </Array>
          </mxGeometry>
        </mxCell>
        <mxCell id="qTUykXPKRj7eP_wUkNXM-3" value="" style="html=1;points=[];perimeter=orthogonalPerimeter;outlineConnect=0;targetShapes=umlLifeline;portConstraint=eastwest;newEdgeStyle={&quot;edgeStyle&quot;:&quot;elbowEdgeStyle&quot;,&quot;elbow&quot;:&quot;vertical&quot;,&quot;curved&quot;:0,&quot;rounded&quot;:0};" parent="BHNZWUh2yXDGx6S_lVH5-1" vertex="1">
          <mxGeometry x="4.710000000000008" y="450" width="10" height="20" as="geometry" />
        </mxCell>
        <mxCell id="qTUykXPKRj7eP_wUkNXM-4" value="setAdditionalState(1)" style="html=1;align=left;spacingLeft=2;endArrow=block;rounded=0;edgeStyle=orthogonalEdgeStyle;curved=0;rounded=0;" parent="BHNZWUh2yXDGx6S_lVH5-1" target="qTUykXPKRj7eP_wUkNXM-3" edge="1">
          <mxGeometry relative="1" as="geometry">
            <mxPoint x="9.70999999999998" y="430" as="sourcePoint" />
            <Array as="points">
              <mxPoint x="87.20999999999998" y="430" />
              <mxPoint x="87.20999999999998" y="460" />
            </Array>
          </mxGeometry>
        </mxCell>
        <mxCell id="BHNZWUh2yXDGx6S_lVH5-6" value=":Game&lt;span style=&quot;font-size:11.0pt;line-height:107%;font-family:&amp;quot;Calibri&amp;quot;,sans-serif;&lt;br/&gt;mso-ascii-theme-font:minor-latin;mso-fareast-font-family:&amp;quot;Yu Mincho&amp;quot;;&lt;br/&gt;mso-fareast-theme-font:minor-fareast;mso-hansi-theme-font:minor-latin;&lt;br/&gt;mso-bidi-font-family:&amp;quot;Times New Roman&amp;quot;;mso-bidi-theme-font:minor-bidi;&lt;br/&gt;mso-font-kerning:0pt;mso-ligatures:none;mso-ansi-language:EN-US;mso-fareast-language:&lt;br/&gt;JA;mso-bidi-language:AR-SA&quot;&gt;&lt;/span&gt;" style="shape=umlLifeline;perimeter=lifelinePerimeter;whiteSpace=wrap;html=1;container=1;dropTarget=0;collapsible=0;recursiveResize=0;outlineConnect=0;portConstraint=eastwest;newEdgeStyle={&quot;edgeStyle&quot;:&quot;elbowEdgeStyle&quot;,&quot;elbow&quot;:&quot;vertical&quot;,&quot;curved&quot;:0,&quot;rounded&quot;:0};" parent="1" vertex="1">
          <mxGeometry x="255.38" y="5800" width="100" height="600" as="geometry" />
        </mxCell>
        <mxCell id="BHNZWUh2yXDGx6S_lVH5-7" value=":Dealer" style="shape=umlLifeline;perimeter=lifelinePerimeter;whiteSpace=wrap;html=1;container=1;dropTarget=0;collapsible=0;recursiveResize=0;outlineConnect=0;portConstraint=eastwest;newEdgeStyle={&quot;edgeStyle&quot;:&quot;elbowEdgeStyle&quot;,&quot;elbow&quot;:&quot;vertical&quot;,&quot;curved&quot;:0,&quot;rounded&quot;:0};" parent="1" vertex="1">
          <mxGeometry x="508.38" y="5800" width="100" height="600" as="geometry" />
        </mxCell>
        <mxCell id="BHNZWUh2yXDGx6S_lVH5-8" value=":Bet" style="shape=umlLifeline;perimeter=lifelinePerimeter;whiteSpace=wrap;html=1;container=1;dropTarget=0;collapsible=0;recursiveResize=0;outlineConnect=0;portConstraint=eastwest;newEdgeStyle={&quot;edgeStyle&quot;:&quot;elbowEdgeStyle&quot;,&quot;elbow&quot;:&quot;vertical&quot;,&quot;curved&quot;:0,&quot;rounded&quot;:0};" parent="1" vertex="1">
          <mxGeometry x="392.38" y="5800" width="100" height="600" as="geometry" />
        </mxCell>
        <mxCell id="BHNZWUh2yXDGx6S_lVH5-9" value="" style="html=1;points=[];perimeter=orthogonalPerimeter;outlineConnect=0;targetShapes=umlLifeline;portConstraint=eastwest;newEdgeStyle={&quot;edgeStyle&quot;:&quot;elbowEdgeStyle&quot;,&quot;elbow&quot;:&quot;vertical&quot;,&quot;curved&quot;:0,&quot;rounded&quot;:0};" parent="BHNZWUh2yXDGx6S_lVH5-8" vertex="1">
          <mxGeometry x="45" y="294" width="10" height="80" as="geometry" />
        </mxCell>
        <mxCell id="BHNZWUh2yXDGx6S_lVH5-13" value=":Safe" style="shape=umlLifeline;perimeter=lifelinePerimeter;whiteSpace=wrap;html=1;container=1;dropTarget=0;collapsible=0;recursiveResize=0;outlineConnect=0;portConstraint=eastwest;newEdgeStyle={&quot;edgeStyle&quot;:&quot;elbowEdgeStyle&quot;,&quot;elbow&quot;:&quot;vertical&quot;,&quot;curved&quot;:0,&quot;rounded&quot;:0};" parent="1" vertex="1">
          <mxGeometry x="620" y="5800" width="100" height="600" as="geometry" />
        </mxCell>
        <mxCell id="BHNZWUh2yXDGx6S_lVH5-14" value="" style="html=1;points=[];perimeter=orthogonalPerimeter;outlineConnect=0;targetShapes=umlLifeline;portConstraint=eastwest;newEdgeStyle={&quot;edgeStyle&quot;:&quot;elbowEdgeStyle&quot;,&quot;elbow&quot;:&quot;vertical&quot;,&quot;curved&quot;:0,&quot;rounded&quot;:0};" parent="BHNZWUh2yXDGx6S_lVH5-13" vertex="1">
          <mxGeometry x="45" y="404" width="10" height="19.93" as="geometry" />
        </mxCell>
        <mxCell id="BHNZWUh2yXDGx6S_lVH5-15" value="getHalf()" style="html=1;verticalAlign=bottom;endArrow=block;edgeStyle=elbowEdgeStyle;elbow=vertical;curved=0;rounded=0;" parent="1" target="BHNZWUh2yXDGx6S_lVH5-9" edge="1">
          <mxGeometry relative="1" as="geometry">
            <mxPoint x="150" y="6094" as="sourcePoint" />
          </mxGeometry>
        </mxCell>
        <mxCell id="BHNZWUh2yXDGx6S_lVH5-16" value="chipBack" style="html=1;verticalAlign=bottom;endArrow=open;dashed=1;endSize=8;edgeStyle=elbowEdgeStyle;elbow=vertical;curved=0;rounded=0;" parent="1" source="BHNZWUh2yXDGx6S_lVH5-9" edge="1">
          <mxGeometry x="0.0054" relative="1" as="geometry">
            <mxPoint x="150" y="6169" as="targetPoint" />
            <mxPoint as="offset" />
          </mxGeometry>
        </mxCell>
        <mxCell id="BHNZWUh2yXDGx6S_lVH5-17" value="setChip(chipBack)" style="html=1;verticalAlign=bottom;startArrow=none;endArrow=open;startSize=8;edgeStyle=elbowEdgeStyle;elbow=vertical;curved=0;rounded=0;startFill=0;endFill=0;" parent="1" target="BHNZWUh2yXDGx6S_lVH5-14" edge="1">
          <mxGeometry relative="1" as="geometry">
            <mxPoint x="150" y="6204.070000000001" as="sourcePoint" />
          </mxGeometry>
        </mxCell>
        <mxCell id="BHNZWUh2yXDGx6S_lVH5-18" value="&lt;b&gt;JUnit Scenario 1&lt;/b&gt;:&amp;nbsp;The player chooses to stand,&lt;br style=&quot;border-color: var(--border-color); font-size: 14px;&quot;&gt;&lt;span style=&quot;font-size: 14px;&quot;&gt;indicating the end of their turn. The dealer then plays their hand according to the game rules.&lt;br&gt;&amp;nbsp;&lt;/span&gt;&lt;br&gt;&lt;b style=&quot;border-color: var(--border-color);&quot;&gt;JUnit Scenario 2&lt;/b&gt;: the round should be over correctly" style="shape=note;whiteSpace=wrap;html=1;size=14;verticalAlign=top;align=left;spacingTop=-6;rounded=0;shadow=0;comic=0;labelBackgroundColor=none;strokeWidth=1;fontFamily=Verdana;fontSize=12" parent="1" vertex="1">
          <mxGeometry x="238" y="4490" width="373" height="150" as="geometry" />
        </mxCell>
        <mxCell id="qTUykXPKRj7eP_wUkNXM-5" value=":Player&lt;br&gt;&lt;br&gt;&lt;br&gt;&lt;br&gt;&lt;br&gt;&lt;br&gt;" style="shape=umlLifeline;perimeter=lifelinePerimeter;whiteSpace=wrap;html=1;container=1;dropTarget=0;collapsible=0;recursiveResize=0;outlineConnect=0;portConstraint=eastwest;newEdgeStyle={&quot;edgeStyle&quot;:&quot;elbowEdgeStyle&quot;,&quot;elbow&quot;:&quot;vertical&quot;,&quot;curved&quot;:0,&quot;rounded&quot;:0};participant=umlActor;" parent="1" vertex="1">
          <mxGeometry x="120" y="4670" width="20" height="580" as="geometry" />
        </mxCell>
        <mxCell id="FvYf8PEwEiX5Y6GVfXE7-2" value="" style="html=1;points=[];perimeter=orthogonalPerimeter;outlineConnect=0;targetShapes=umlLifeline;portConstraint=eastwest;newEdgeStyle={&quot;edgeStyle&quot;:&quot;elbowEdgeStyle&quot;,&quot;elbow&quot;:&quot;vertical&quot;,&quot;curved&quot;:0,&quot;rounded&quot;:0};" parent="qTUykXPKRj7eP_wUkNXM-5" vertex="1">
          <mxGeometry x="4.980000000000018" y="510.1399999999999" width="11.3" height="29.85" as="geometry" />
        </mxCell>
        <mxCell id="FvYf8PEwEiX5Y6GVfXE7-3" value="setGameState(4)" style="html=1;verticalAlign=bottom;startArrow=none;endArrow=open;startSize=8;edgeStyle=elbowEdgeStyle;elbow=vertical;curved=0;rounded=0;startFill=0;endFill=0;" parent="qTUykXPKRj7eP_wUkNXM-5" target="FvYf8PEwEiX5Y6GVfXE7-2" edge="1">
          <mxGeometry relative="1" as="geometry">
            <mxPoint x="168.34262166405028" y="510.1443209876543" as="sourcePoint" />
          </mxGeometry>
        </mxCell>
        <mxCell id="qTUykXPKRj7eP_wUkNXM-10" value=":Game&lt;span style=&quot;font-size:11.0pt;line-height:107%;font-family:&amp;quot;Calibri&amp;quot;,sans-serif;&lt;br/&gt;mso-ascii-theme-font:minor-latin;mso-fareast-font-family:&amp;quot;Yu Mincho&amp;quot;;&lt;br/&gt;mso-fareast-theme-font:minor-fareast;mso-hansi-theme-font:minor-latin;&lt;br/&gt;mso-bidi-font-family:&amp;quot;Times New Roman&amp;quot;;mso-bidi-theme-font:minor-bidi;&lt;br/&gt;mso-font-kerning:0pt;mso-ligatures:none;mso-ansi-language:EN-US;mso-fareast-language:&lt;br/&gt;JA;mso-bidi-language:AR-SA&quot;&gt;&lt;/span&gt;" style="shape=umlLifeline;perimeter=lifelinePerimeter;whiteSpace=wrap;html=1;container=1;dropTarget=0;collapsible=0;recursiveResize=0;outlineConnect=0;portConstraint=eastwest;newEdgeStyle={&quot;edgeStyle&quot;:&quot;elbowEdgeStyle&quot;,&quot;elbow&quot;:&quot;vertical&quot;,&quot;curved&quot;:0,&quot;rounded&quot;:0};" parent="1" vertex="1">
          <mxGeometry x="237" y="4650" width="100" height="600" as="geometry" />
        </mxCell>
        <mxCell id="qTUykXPKRj7eP_wUkNXM-15" value="" style="html=1;points=[];perimeter=orthogonalPerimeter;outlineConnect=0;targetShapes=umlLifeline;portConstraint=eastwest;newEdgeStyle={&quot;edgeStyle&quot;:&quot;elbowEdgeStyle&quot;,&quot;elbow&quot;:&quot;vertical&quot;,&quot;curved&quot;:0,&quot;rounded&quot;:0};" parent="qTUykXPKRj7eP_wUkNXM-10" vertex="1">
          <mxGeometry x="44.890000000000015" y="70" width="10" height="10" as="geometry" />
        </mxCell>
        <mxCell id="qTUykXPKRj7eP_wUkNXM-25" value="stand()" style="html=1;verticalAlign=bottom;startArrow=none;endArrow=open;startSize=8;edgeStyle=elbowEdgeStyle;elbow=vertical;curved=0;rounded=0;startFill=0;endFill=0;" parent="qTUykXPKRj7eP_wUkNXM-10" target="qTUykXPKRj7eP_wUkNXM-15" edge="1">
          <mxGeometry relative="1" as="geometry">
            <mxPoint x="-106.99999999999997" y="75" as="sourcePoint" />
          </mxGeometry>
        </mxCell>
        <mxCell id="qTUykXPKRj7eP_wUkNXM-11" value=":Dealer" style="shape=umlLifeline;perimeter=lifelinePerimeter;whiteSpace=wrap;html=1;container=1;dropTarget=0;collapsible=0;recursiveResize=0;outlineConnect=0;portConstraint=eastwest;newEdgeStyle={&quot;edgeStyle&quot;:&quot;elbowEdgeStyle&quot;,&quot;elbow&quot;:&quot;vertical&quot;,&quot;curved&quot;:0,&quot;rounded&quot;:0};" parent="1" vertex="1">
          <mxGeometry x="490" y="4650" width="100" height="600" as="geometry" />
        </mxCell>
        <mxCell id="CfMzGHNIVoaYaAyaY-P1-2" value="" style="html=1;points=[];perimeter=orthogonalPerimeter;outlineConnect=0;targetShapes=umlLifeline;portConstraint=eastwest;newEdgeStyle={&quot;edgeStyle&quot;:&quot;elbowEdgeStyle&quot;,&quot;elbow&quot;:&quot;vertical&quot;,&quot;curved&quot;:0,&quot;rounded&quot;:0};" parent="qTUykXPKRj7eP_wUkNXM-11" vertex="1">
          <mxGeometry x="45.840277777777715" y="530.14" width="12.163194444444445" height="29.85" as="geometry" />
        </mxCell>
        <mxCell id="CfMzGHNIVoaYaAyaY-P1-13" value="setGameState(4)" style="html=1;verticalAlign=bottom;startArrow=none;endArrow=open;startSize=8;edgeStyle=elbowEdgeStyle;elbow=vertical;curved=0;rounded=0;startFill=0;endFill=0;" parent="qTUykXPKRj7eP_wUkNXM-11" target="CfMzGHNIVoaYaAyaY-P1-2" edge="1">
          <mxGeometry relative="1" as="geometry">
            <mxPoint x="-216.79861111111111" y="530.14" as="sourcePoint" />
          </mxGeometry>
        </mxCell>
        <mxCell id="FvYf8PEwEiX5Y6GVfXE7-6" value="" style="html=1;points=[];perimeter=orthogonalPerimeter;outlineConnect=0;targetShapes=umlLifeline;portConstraint=eastwest;newEdgeStyle={&quot;edgeStyle&quot;:&quot;elbowEdgeStyle&quot;,&quot;elbow&quot;:&quot;vertical&quot;,&quot;curved&quot;:0,&quot;rounded&quot;:0};" parent="qTUykXPKRj7eP_wUkNXM-11" vertex="1">
          <mxGeometry x="44.34999999999991" y="370.3600000000001" width="11.3" height="22.46" as="geometry" />
        </mxCell>
        <mxCell id="qTUykXPKRj7eP_wUkNXM-12" value=":Deck" style="shape=umlLifeline;perimeter=lifelinePerimeter;whiteSpace=wrap;html=1;container=1;dropTarget=0;collapsible=0;recursiveResize=0;outlineConnect=0;portConstraint=eastwest;newEdgeStyle={&quot;edgeStyle&quot;:&quot;elbowEdgeStyle&quot;,&quot;elbow&quot;:&quot;vertical&quot;,&quot;curved&quot;:0,&quot;rounded&quot;:0};" parent="1" vertex="1">
          <mxGeometry x="615.5" y="4650" width="100" height="600" as="geometry" />
        </mxCell>
        <mxCell id="qTUykXPKRj7eP_wUkNXM-13" value="dealerHand:Hand" style="shape=umlLifeline;perimeter=lifelinePerimeter;whiteSpace=wrap;html=1;container=1;dropTarget=0;collapsible=0;recursiveResize=0;outlineConnect=0;portConstraint=eastwest;newEdgeStyle={&quot;edgeStyle&quot;:&quot;elbowEdgeStyle&quot;,&quot;elbow&quot;:&quot;vertical&quot;,&quot;curved&quot;:0,&quot;rounded&quot;:0};" parent="1" vertex="1">
          <mxGeometry x="374" y="4650" width="100" height="600" as="geometry" />
        </mxCell>
        <mxCell id="qTUykXPKRj7eP_wUkNXM-17" value="" style="html=1;points=[];perimeter=orthogonalPerimeter;outlineConnect=0;targetShapes=umlLifeline;portConstraint=eastwest;newEdgeStyle={&quot;edgeStyle&quot;:&quot;elbowEdgeStyle&quot;,&quot;elbow&quot;:&quot;vertical&quot;,&quot;curved&quot;:0,&quot;rounded&quot;:0};" parent="qTUykXPKRj7eP_wUkNXM-13" vertex="1">
          <mxGeometry x="45" y="257" width="10" height="20" as="geometry" />
        </mxCell>
        <mxCell id="qTUykXPKRj7eP_wUkNXM-16" value="" style="html=1;points=[];perimeter=orthogonalPerimeter;outlineConnect=0;targetShapes=umlLifeline;portConstraint=eastwest;newEdgeStyle={&quot;edgeStyle&quot;:&quot;elbowEdgeStyle&quot;,&quot;elbow&quot;:&quot;vertical&quot;,&quot;curved&quot;:0,&quot;rounded&quot;:0};" parent="1" vertex="1">
          <mxGeometry x="534.3799999999999" y="4736" width="10" height="180" as="geometry" />
        </mxCell>
        <mxCell id="qTUykXPKRj7eP_wUkNXM-18" value="" style="html=1;points=[];perimeter=orthogonalPerimeter;outlineConnect=0;targetShapes=umlLifeline;portConstraint=eastwest;newEdgeStyle={&quot;edgeStyle&quot;:&quot;elbowEdgeStyle&quot;,&quot;elbow&quot;:&quot;vertical&quot;,&quot;curved&quot;:0,&quot;rounded&quot;:0};" parent="1" vertex="1">
          <mxGeometry x="658.88" y="4781" width="10" height="80" as="geometry" />
        </mxCell>
        <mxCell id="qTUykXPKRj7eP_wUkNXM-19" value="drawCard()" style="html=1;verticalAlign=bottom;endArrow=block;edgeStyle=elbowEdgeStyle;elbow=vertical;curved=0;rounded=0;" parent="1" target="qTUykXPKRj7eP_wUkNXM-18" edge="1">
          <mxGeometry relative="1" as="geometry">
            <mxPoint x="539.1903448275862" y="4781" as="sourcePoint" />
            <Array as="points">
              <mxPoint x="609.38" y="4781" />
            </Array>
            <mxPoint as="offset" />
          </mxGeometry>
        </mxCell>
        <mxCell id="qTUykXPKRj7eP_wUkNXM-20" value="card" style="html=1;verticalAlign=bottom;endArrow=open;dashed=1;endSize=8;edgeStyle=elbowEdgeStyle;elbow=vertical;curved=0;rounded=0;" parent="1" source="qTUykXPKRj7eP_wUkNXM-18" edge="1">
          <mxGeometry x="-0.002" relative="1" as="geometry">
            <mxPoint x="539.1903448275862" y="4856" as="targetPoint" />
            <Array as="points">
              <mxPoint x="619.38" y="4856" />
            </Array>
            <mxPoint as="offset" />
          </mxGeometry>
        </mxCell>
        <mxCell id="qTUykXPKRj7eP_wUkNXM-24" value="dealCard()" style="html=1;verticalAlign=bottom;endArrow=open;edgeStyle=elbowEdgeStyle;elbow=vertical;curved=0;rounded=0;endFill=0;" parent="1" target="qTUykXPKRj7eP_wUkNXM-16" edge="1">
          <mxGeometry relative="1" as="geometry">
            <mxPoint x="287" y="4750" as="sourcePoint" />
            <Array as="points">
              <mxPoint x="360" y="4750" />
              <mxPoint x="486.37999999999994" y="4756" />
              <mxPoint x="289.38" y="4736" />
            </Array>
          </mxGeometry>
        </mxCell>
        <mxCell id="qTUykXPKRj7eP_wUkNXM-22" value="addCard(card)" style="html=1;verticalAlign=bottom;startArrow=none;endArrow=open;startSize=8;edgeStyle=elbowEdgeStyle;elbow=vertical;curved=0;rounded=0;startFill=0;endFill=0;" parent="1" target="qTUykXPKRj7eP_wUkNXM-17" edge="1">
          <mxGeometry relative="1" as="geometry">
            <mxPoint x="540.88" y="4917" as="sourcePoint" />
          </mxGeometry>
        </mxCell>
        <mxCell id="jS3MS3vRi0kqO0qIEbMx-1" value="" style="group" parent="1" vertex="1" connectable="0">
          <mxGeometry x="320" y="4760" width="390" height="190" as="geometry" />
        </mxCell>
        <mxCell id="jS3MS3vRi0kqO0qIEbMx-2" value="&lt;b style=&quot;border-color: var(--border-color);&quot;&gt;loop&lt;/b&gt;" style="shape=umlFrame;whiteSpace=wrap;html=1;pointerEvents=0;" parent="jS3MS3vRi0kqO0qIEbMx-1" vertex="1">
          <mxGeometry width="390" height="190" as="geometry" />
        </mxCell>
        <mxCell id="jS3MS3vRi0kqO0qIEbMx-3" value="[dealerHand.getValue() &amp;lt;17]" style="text;html=1;align=center;verticalAlign=middle;resizable=0;points=[];autosize=1;strokeColor=none;fillColor=none;" parent="jS3MS3vRi0kqO0qIEbMx-1" vertex="1">
          <mxGeometry x="0.0039604228788334694" y="30" width="170" height="30" as="geometry" />
        </mxCell>
        <mxCell id="CfMzGHNIVoaYaAyaY-P1-1" value="" style="html=1;points=[];perimeter=orthogonalPerimeter;outlineConnect=0;targetShapes=umlLifeline;portConstraint=eastwest;newEdgeStyle={&quot;edgeStyle&quot;:&quot;elbowEdgeStyle&quot;,&quot;elbow&quot;:&quot;vertical&quot;,&quot;curved&quot;:0,&quot;rounded&quot;:0};" parent="1" vertex="1">
          <mxGeometry x="127.72999999999999" y="5100.16" width="11.3" height="24.01" as="geometry" />
        </mxCell>
        <mxCell id="CfMzGHNIVoaYaAyaY-P1-3" value="" style="html=1;points=[];perimeter=orthogonalPerimeter;outlineConnect=0;targetShapes=umlLifeline;portConstraint=eastwest;newEdgeStyle={&quot;edgeStyle&quot;:&quot;elbowEdgeStyle&quot;,&quot;elbow&quot;:&quot;vertical&quot;,&quot;curved&quot;:0,&quot;rounded&quot;:0};" parent="1" vertex="1">
          <mxGeometry x="127.72999999999999" y="5020.110000000001" width="11.3" height="22.46" as="geometry" />
        </mxCell>
        <mxCell id="CfMzGHNIVoaYaAyaY-P1-4" value="" style="group" parent="1" vertex="1" connectable="0">
          <mxGeometry x="55" y="4970" width="775" height="280" as="geometry" />
        </mxCell>
        <mxCell id="CfMzGHNIVoaYaAyaY-P1-5" value="&lt;b&gt;alt&lt;/b&gt;" style="shape=umlFrame;whiteSpace=wrap;html=1;pointerEvents=0;width=70;height=30;" parent="CfMzGHNIVoaYaAyaY-P1-4" vertex="1">
          <mxGeometry width="775" height="84.16666666666667" as="geometry" />
        </mxCell>
        <mxCell id="CfMzGHNIVoaYaAyaY-P1-6" value="" style="shape=umlFrame;whiteSpace=wrap;html=1;pointerEvents=0;width=10;height=15;" parent="CfMzGHNIVoaYaAyaY-P1-4" vertex="1">
          <mxGeometry y="84.16666666666667" width="775" height="84.16666666666667" as="geometry" />
        </mxCell>
        <mxCell id="CfMzGHNIVoaYaAyaY-P1-7" value="" style="shape=umlFrame;whiteSpace=wrap;html=1;pointerEvents=0;width=10;height=15;" parent="CfMzGHNIVoaYaAyaY-P1-4" vertex="1">
          <mxGeometry y="168.33333333333334" width="775" height="84.16666666666667" as="geometry" />
        </mxCell>
        <mxCell id="CfMzGHNIVoaYaAyaY-P1-8" value="[player wins]" style="text;html=1;align=center;verticalAlign=middle;resizable=0;points=[];autosize=1;strokeColor=none;fillColor=none;" parent="CfMzGHNIVoaYaAyaY-P1-4" vertex="1">
          <mxGeometry x="111.70507837750485" width="90" height="30" as="geometry" />
        </mxCell>
        <mxCell id="CfMzGHNIVoaYaAyaY-P1-9" value="[player busts]" style="text;html=1;align=center;verticalAlign=middle;resizable=0;points=[];autosize=1;strokeColor=none;fillColor=none;" parent="CfMzGHNIVoaYaAyaY-P1-4" vertex="1">
          <mxGeometry x="94.03628313504889" y="84.16666666666667" width="90" height="30" as="geometry" />
        </mxCell>
        <mxCell id="CfMzGHNIVoaYaAyaY-P1-10" value="[player ties]" style="text;html=1;align=center;verticalAlign=middle;resizable=0;points=[];autosize=1;strokeColor=none;fillColor=none;" parent="CfMzGHNIVoaYaAyaY-P1-4" vertex="1">
          <mxGeometry x="91.31198248530181" y="168.33333333333334" width="80" height="30" as="geometry" />
        </mxCell>
        <mxCell id="CfMzGHNIVoaYaAyaY-P1-11" value="setGameState(2)" style="html=1;verticalAlign=bottom;startArrow=none;endArrow=open;startSize=8;edgeStyle=elbowEdgeStyle;elbow=vertical;curved=0;rounded=0;startFill=0;endFill=0;" parent="CfMzGHNIVoaYaAyaY-P1-4" target="CfMzGHNIVoaYaAyaY-P1-3" edge="1">
          <mxGeometry relative="1" as="geometry">
            <mxPoint x="235" y="50" as="sourcePoint" />
          </mxGeometry>
        </mxCell>
        <mxCell id="CfMzGHNIVoaYaAyaY-P1-12" value="setGameState(3)" style="html=1;verticalAlign=bottom;startArrow=none;endArrow=open;startSize=8;edgeStyle=elbowEdgeStyle;elbow=vertical;curved=0;rounded=0;startFill=0;endFill=0;" parent="CfMzGHNIVoaYaAyaY-P1-4" target="CfMzGHNIVoaYaAyaY-P1-1" edge="1">
          <mxGeometry relative="1" as="geometry">
            <mxPoint x="235" y="130" as="sourcePoint" />
          </mxGeometry>
        </mxCell>
        <mxCell id="FvYf8PEwEiX5Y6GVfXE7-8" value="" style="html=1;points=[];perimeter=orthogonalPerimeter;outlineConnect=0;targetShapes=umlLifeline;portConstraint=eastwest;newEdgeStyle={&quot;edgeStyle&quot;:&quot;elbowEdgeStyle&quot;,&quot;elbow&quot;:&quot;vertical&quot;,&quot;curved&quot;:0,&quot;rounded&quot;:0};" parent="CfMzGHNIVoaYaAyaY-P1-4" vertex="1">
          <mxGeometry x="481" y="128.7700000000001" width="11.3" height="22.46" as="geometry" />
        </mxCell>
        <mxCell id="FvYf8PEwEiX5Y6GVfXE7-9" value="setGameState(2)" style="html=1;verticalAlign=bottom;startArrow=none;endArrow=open;startSize=8;edgeStyle=elbowEdgeStyle;elbow=vertical;curved=0;rounded=0;startFill=0;endFill=0;" parent="CfMzGHNIVoaYaAyaY-P1-4" target="FvYf8PEwEiX5Y6GVfXE7-8" edge="1">
          <mxGeometry relative="1" as="geometry">
            <mxPoint x="237.26999999999998" y="128.78999999999996" as="sourcePoint" />
          </mxGeometry>
        </mxCell>
        <mxCell id="FvYf8PEwEiX5Y6GVfXE7-4" value=":Bet" style="shape=umlLifeline;perimeter=lifelinePerimeter;whiteSpace=wrap;html=1;container=1;dropTarget=0;collapsible=0;recursiveResize=0;outlineConnect=0;portConstraint=eastwest;newEdgeStyle={&quot;edgeStyle&quot;:&quot;elbowEdgeStyle&quot;,&quot;elbow&quot;:&quot;vertical&quot;,&quot;curved&quot;:0,&quot;rounded&quot;:0};" parent="1" vertex="1">
          <mxGeometry x="730" y="4650" width="100" height="600" as="geometry" />
        </mxCell>
        <mxCell id="FvYf8PEwEiX5Y6GVfXE7-7" value="setGameState(3)" style="html=1;verticalAlign=bottom;startArrow=none;endArrow=open;startSize=8;edgeStyle=elbowEdgeStyle;elbow=vertical;curved=0;rounded=0;startFill=0;endFill=0;" parent="1" target="FvYf8PEwEiX5Y6GVfXE7-6" edge="1">
          <mxGeometry relative="1" as="geometry">
            <mxPoint x="288.35" y="5020.25" as="sourcePoint" />
          </mxGeometry>
        </mxCell>
        <mxCell id="0CEAvyoJreBTmwqNnFpm-8" value="" style="group" parent="1" vertex="1" connectable="0">
          <mxGeometry x="85" y="5980" width="680" height="60" as="geometry" />
        </mxCell>
        <mxCell id="0CEAvyoJreBTmwqNnFpm-9" value="Stand" style="rounded=0;whiteSpace=wrap;html=1;" parent="0CEAvyoJreBTmwqNnFpm-8" vertex="1">
          <mxGeometry width="680" height="60" as="geometry" />
        </mxCell>
        <mxCell id="0CEAvyoJreBTmwqNnFpm-10" value="&lt;b&gt;ref&lt;/b&gt;" style="shape=umlFrame;whiteSpace=wrap;html=1;pointerEvents=0;" parent="0CEAvyoJreBTmwqNnFpm-8" vertex="1">
          <mxGeometry width="680" height="60" as="geometry" />
        </mxCell>
        <mxCell id="sD02jP7VxehBI2ARxz5f-1" value="Contributor(s):&lt;br&gt;Ryan Sheppard" style="html=1;whiteSpace=wrap;" vertex="1" parent="1">
          <mxGeometry x="9" y="3310" width="110" height="50" as="geometry" />
        </mxCell>
        <mxCell id="sD02jP7VxehBI2ARxz5f-2" value="&lt;div style=&quot;&quot;&gt;&lt;span style=&quot;background-color: initial;&quot;&gt;Unit Tests&lt;/span&gt;&lt;/div&gt;&lt;br&gt;&lt;div style=&quot;&quot;&gt;&lt;span style=&quot;background-color: initial;&quot;&gt;1. Player bet is doubled only if they want to double down&lt;/span&gt;&lt;/div&gt;&lt;div style=&quot;&quot;&gt;&lt;span style=&quot;background-color: initial;&quot;&gt;2. Player&#39;s bet is doubled to correct amount&lt;/span&gt;&lt;/div&gt;" style="html=1;whiteSpace=wrap;align=center;" vertex="1" parent="1">
          <mxGeometry x="83.88" y="4000" width="430" height="120" as="geometry" />
        </mxCell>
        <mxCell id="sD02jP7VxehBI2ARxz5f-3" value="" style="endArrow=none;dashed=1;html=1;rounded=0;" edge="1" parent="1">
          <mxGeometry width="50" height="50" relative="1" as="geometry">
            <mxPoint x="139" y="3960" as="sourcePoint" />
            <mxPoint x="139" y="3460" as="targetPoint" />
          </mxGeometry>
        </mxCell>
        <mxCell id="sD02jP7VxehBI2ARxz5f-4" value="Player" style="shape=umlActor;verticalLabelPosition=bottom;verticalAlign=top;html=1;outlineConnect=0;" vertex="1" parent="1">
          <mxGeometry x="119" y="3380" width="30" height="60" as="geometry" />
        </mxCell>
        <mxCell id="sD02jP7VxehBI2ARxz5f-5" value=":BlackjackGame" style="html=1;whiteSpace=wrap;" vertex="1" parent="1">
          <mxGeometry x="329" y="3400" width="110" height="50" as="geometry" />
        </mxCell>
        <mxCell id="sD02jP7VxehBI2ARxz5f-6" value="" style="endArrow=none;dashed=1;html=1;rounded=0;" edge="1" parent="1">
          <mxGeometry width="50" height="50" relative="1" as="geometry">
            <mxPoint x="384" y="3530" as="sourcePoint" />
            <mxPoint x="383.5" y="3450" as="targetPoint" />
          </mxGeometry>
        </mxCell>
        <mxCell id="sD02jP7VxehBI2ARxz5f-7" value="" style="html=1;points=[];perimeter=orthogonalPerimeter;outlineConnect=0;targetShapes=umlLifeline;portConstraint=eastwest;newEdgeStyle={&quot;edgeStyle&quot;:&quot;elbowEdgeStyle&quot;,&quot;elbow&quot;:&quot;vertical&quot;,&quot;curved&quot;:0,&quot;rounded&quot;:0};" vertex="1" parent="1">
          <mxGeometry x="379" y="3530" width="10" height="410" as="geometry" />
        </mxCell>
        <mxCell id="sD02jP7VxehBI2ARxz5f-8" value=":Bet" style="html=1;whiteSpace=wrap;" vertex="1" parent="1">
          <mxGeometry x="679" y="3400" width="110" height="50" as="geometry" />
        </mxCell>
        <mxCell id="sD02jP7VxehBI2ARxz5f-9" value="" style="endArrow=none;dashed=1;html=1;rounded=0;" edge="1" parent="1">
          <mxGeometry width="50" height="50" relative="1" as="geometry">
            <mxPoint x="733.5" y="3585" as="sourcePoint" />
            <mxPoint x="733.5" y="3445" as="targetPoint" />
          </mxGeometry>
        </mxCell>
        <mxCell id="sD02jP7VxehBI2ARxz5f-10" value="" style="html=1;points=[];perimeter=orthogonalPerimeter;outlineConnect=0;targetShapes=umlLifeline;portConstraint=eastwest;newEdgeStyle={&quot;edgeStyle&quot;:&quot;elbowEdgeStyle&quot;,&quot;elbow&quot;:&quot;vertical&quot;,&quot;curved&quot;:0,&quot;rounded&quot;:0};" vertex="1" parent="1">
          <mxGeometry x="729" y="3580" width="10" height="200" as="geometry" />
        </mxCell>
        <mxCell id="sD02jP7VxehBI2ARxz5f-11" value="" style="endArrow=none;dashed=1;html=1;rounded=0;" edge="1" parent="1">
          <mxGeometry width="50" height="50" relative="1" as="geometry">
            <mxPoint x="733.5" y="3950" as="sourcePoint" />
            <mxPoint x="734" y="3780" as="targetPoint" />
          </mxGeometry>
        </mxCell>
        <mxCell id="sD02jP7VxehBI2ARxz5f-12" value="opt" style="shape=umlFrame;whiteSpace=wrap;html=1;pointerEvents=0;" vertex="1" parent="1">
          <mxGeometry x="274" y="3610" width="255" height="200" as="geometry" />
        </mxCell>
        <mxCell id="sD02jP7VxehBI2ARxz5f-13" value="[player wants to double their bet]" style="text;html=1;strokeColor=none;fillColor=none;align=center;verticalAlign=middle;whiteSpace=wrap;rounded=0;" vertex="1" parent="1">
          <mxGeometry x="279" y="3650" width="80" height="30" as="geometry" />
        </mxCell>
        <mxCell id="sD02jP7VxehBI2ARxz5f-14" value="" style="endArrow=classic;html=1;rounded=0;" edge="1" parent="1">
          <mxGeometry width="50" height="50" relative="1" as="geometry">
            <mxPoint x="139" y="3530" as="sourcePoint" />
            <mxPoint x="379" y="3530" as="targetPoint" />
          </mxGeometry>
        </mxCell>
        <mxCell id="sD02jP7VxehBI2ARxz5f-15" value="placeBet(chips)" style="text;html=1;strokeColor=none;fillColor=none;align=center;verticalAlign=middle;whiteSpace=wrap;rounded=0;" vertex="1" parent="1">
          <mxGeometry x="229" y="3500" width="60" height="30" as="geometry" />
        </mxCell>
        <mxCell id="sD02jP7VxehBI2ARxz5f-16" value=":Deck" style="html=1;whiteSpace=wrap;" vertex="1" parent="1">
          <mxGeometry x="509" y="3400" width="110" height="50" as="geometry" />
        </mxCell>
        <mxCell id="sD02jP7VxehBI2ARxz5f-17" value="" style="endArrow=none;dashed=1;html=1;rounded=0;" edge="1" parent="1" source="sD02jP7VxehBI2ARxz5f-18">
          <mxGeometry width="50" height="50" relative="1" as="geometry">
            <mxPoint x="564" y="3520" as="sourcePoint" />
            <mxPoint x="563.5" y="3450" as="targetPoint" />
          </mxGeometry>
        </mxCell>
        <mxCell id="sD02jP7VxehBI2ARxz5f-18" value="" style="html=1;points=[];perimeter=orthogonalPerimeter;outlineConnect=0;targetShapes=umlLifeline;portConstraint=eastwest;newEdgeStyle={&quot;edgeStyle&quot;:&quot;elbowEdgeStyle&quot;,&quot;elbow&quot;:&quot;vertical&quot;,&quot;curved&quot;:0,&quot;rounded&quot;:0};" vertex="1" parent="1">
          <mxGeometry x="559" y="3550" width="10" height="50" as="geometry" />
        </mxCell>
        <mxCell id="sD02jP7VxehBI2ARxz5f-19" value="" style="endArrow=classic;html=1;rounded=0;" edge="1" parent="1">
          <mxGeometry width="50" height="50" relative="1" as="geometry">
            <mxPoint x="389" y="3560" as="sourcePoint" />
            <mxPoint x="559" y="3560.5" as="targetPoint" />
          </mxGeometry>
        </mxCell>
        <mxCell id="sD02jP7VxehBI2ARxz5f-20" value="getInitialDeal()" style="text;html=1;strokeColor=none;fillColor=none;align=center;verticalAlign=middle;whiteSpace=wrap;rounded=0;" vertex="1" parent="1">
          <mxGeometry x="439" y="3530" width="60" height="30" as="geometry" />
        </mxCell>
        <mxCell id="sD02jP7VxehBI2ARxz5f-21" value="" style="endArrow=classic;html=1;rounded=0;" edge="1" parent="1" source="sD02jP7VxehBI2ARxz5f-18" target="sD02jP7VxehBI2ARxz5f-7">
          <mxGeometry width="50" height="50" relative="1" as="geometry">
            <mxPoint x="549" y="3590" as="sourcePoint" />
            <mxPoint x="459" y="3700" as="targetPoint" />
            <Array as="points">
              <mxPoint x="519" y="3590" />
            </Array>
          </mxGeometry>
        </mxCell>
        <mxCell id="sD02jP7VxehBI2ARxz5f-22" value="initial deal" style="text;html=1;strokeColor=none;fillColor=none;align=center;verticalAlign=middle;whiteSpace=wrap;rounded=0;" vertex="1" parent="1">
          <mxGeometry x="429" y="3560" width="60" height="30" as="geometry" />
        </mxCell>
        <mxCell id="sD02jP7VxehBI2ARxz5f-23" value="" style="endArrow=none;dashed=1;html=1;rounded=0;" edge="1" parent="1">
          <mxGeometry width="50" height="50" relative="1" as="geometry">
            <mxPoint x="564" y="3940" as="sourcePoint" />
            <mxPoint x="564" y="3600" as="targetPoint" />
          </mxGeometry>
        </mxCell>
        <mxCell id="sD02jP7VxehBI2ARxz5f-24" value="" style="endArrow=classic;html=1;rounded=0;" edge="1" parent="1" target="sD02jP7VxehBI2ARxz5f-10">
          <mxGeometry width="50" height="50" relative="1" as="geometry">
            <mxPoint x="389" y="3690" as="sourcePoint" />
            <mxPoint x="629" y="3690" as="targetPoint" />
          </mxGeometry>
        </mxCell>
        <mxCell id="sD02jP7VxehBI2ARxz5f-25" value="getDouble()" style="text;html=1;strokeColor=none;fillColor=none;align=center;verticalAlign=middle;whiteSpace=wrap;rounded=0;" vertex="1" parent="1">
          <mxGeometry x="439" y="3660" width="60" height="30" as="geometry" />
        </mxCell>
        <mxCell id="sD02jP7VxehBI2ARxz5f-26" value="" style="endArrow=classic;html=1;rounded=0;" edge="1" parent="1" target="sD02jP7VxehBI2ARxz5f-7">
          <mxGeometry width="50" height="50" relative="1" as="geometry">
            <mxPoint x="729" y="3720" as="sourcePoint" />
            <mxPoint x="559" y="3720" as="targetPoint" />
            <Array as="points">
              <mxPoint x="689" y="3720" />
            </Array>
          </mxGeometry>
        </mxCell>
        <mxCell id="sD02jP7VxehBI2ARxz5f-27" value="new bet amount" style="text;html=1;strokeColor=none;fillColor=none;align=center;verticalAlign=middle;whiteSpace=wrap;rounded=0;" vertex="1" parent="1">
          <mxGeometry x="589" y="3690" width="100" height="30" as="geometry" />
        </mxCell>
        <mxCell id="sD02jP7VxehBI2ARxz5f-28" value="new bet amount" style="text;html=1;strokeColor=none;fillColor=none;align=center;verticalAlign=middle;whiteSpace=wrap;rounded=0;" vertex="1" parent="1">
          <mxGeometry x="199" y="3850" width="100" height="30" as="geometry" />
        </mxCell>
        <mxCell id="sD02jP7VxehBI2ARxz5f-29" value="" style="endArrow=classic;html=1;rounded=0;dashed=1;" edge="1" parent="1">
          <mxGeometry width="50" height="50" relative="1" as="geometry">
            <mxPoint x="379" y="3880" as="sourcePoint" />
            <mxPoint x="139" y="3880" as="targetPoint" />
          </mxGeometry>
        </mxCell>
      </root>
    </mxGraphModel>
  </diagram>
  <diagram id="yX5w2ixnc2X-cYj9rU7q" name="design_class_diagram">
    <mxGraphModel dx="993" dy="675" grid="1" gridSize="10" guides="1" tooltips="1" connect="1" arrows="1" fold="1" page="1" pageScale="1" pageWidth="1100" pageHeight="850" math="0" shadow="0">
      <root>
        <mxCell id="0" />
        <mxCell id="1" parent="0" />
        <mxCell id="tCflyKW4NJ5SablTunIA-1" value="Game" style="swimlane;fontStyle=1;align=center;verticalAlign=top;childLayout=stackLayout;horizontal=1;startSize=26;horizontalStack=0;resizeParent=1;resizeParentMax=0;resizeLast=0;collapsible=1;marginBottom=0;whiteSpace=wrap;html=1;" parent="1" vertex="1">
          <mxGeometry x="10" y="162" width="200" height="190" as="geometry" />
        </mxCell>
        <mxCell id="tCflyKW4NJ5SablTunIA-2" value="" style="line;strokeWidth=1;fillColor=none;align=left;verticalAlign=middle;spacingTop=-1;spacingLeft=3;spacingRight=3;rotatable=0;labelPosition=right;points=[];portConstraint=eastwest;strokeColor=inherit;" parent="tCflyKW4NJ5SablTunIA-1" vertex="1">
          <mxGeometry y="26" width="200" height="8" as="geometry" />
        </mxCell>
        <mxCell id="ZhgqVp4TBcyF4fLMBlXh-3" value="+ startGame(): void" style="text;strokeColor=none;fillColor=none;align=left;verticalAlign=top;spacingLeft=4;spacingRight=4;overflow=hidden;rotatable=0;points=[[0,0.5],[1,0.5]];portConstraint=eastwest;whiteSpace=wrap;html=1;" parent="tCflyKW4NJ5SablTunIA-1" vertex="1">
          <mxGeometry y="34" width="200" height="26" as="geometry" />
        </mxCell>
        <mxCell id="tCflyKW4NJ5SablTunIA-4" value="+ placeBet(chips: List&amp;lt;Chip&amp;gt;): void" style="text;strokeColor=none;fillColor=none;align=left;verticalAlign=top;spacingLeft=4;spacingRight=4;overflow=hidden;rotatable=0;points=[[0,0.5],[1,0.5]];portConstraint=eastwest;whiteSpace=wrap;html=1;" parent="tCflyKW4NJ5SablTunIA-1" vertex="1">
          <mxGeometry y="60" width="200" height="26" as="geometry" />
        </mxCell>
        <mxCell id="tCflyKW4NJ5SablTunIA-5" value="+ startRound(round: int): void" style="text;strokeColor=none;fillColor=none;align=left;verticalAlign=top;spacingLeft=4;spacingRight=4;overflow=hidden;rotatable=0;points=[[0,0.5],[1,0.5]];portConstraint=eastwest;whiteSpace=wrap;html=1;" parent="tCflyKW4NJ5SablTunIA-1" vertex="1">
          <mxGeometry y="86" width="200" height="26" as="geometry" />
        </mxCell>
        <mxCell id="YG77cCl7Us8EuB3u1FXq-1" value="+ hit(): void" style="text;strokeColor=none;fillColor=none;align=left;verticalAlign=top;spacingLeft=4;spacingRight=4;overflow=hidden;rotatable=0;points=[[0,0.5],[1,0.5]];portConstraint=eastwest;whiteSpace=wrap;html=1;" parent="tCflyKW4NJ5SablTunIA-1" vertex="1">
          <mxGeometry y="112" width="200" height="26" as="geometry" />
        </mxCell>
        <mxCell id="YG77cCl7Us8EuB3u1FXq-2" value="+ stand(): void" style="text;strokeColor=none;fillColor=none;align=left;verticalAlign=top;spacingLeft=4;spacingRight=4;overflow=hidden;rotatable=0;points=[[0,0.5],[1,0.5]];portConstraint=eastwest;whiteSpace=wrap;html=1;" parent="tCflyKW4NJ5SablTunIA-1" vertex="1">
          <mxGeometry y="138" width="200" height="26" as="geometry" />
        </mxCell>
        <mxCell id="tCflyKW4NJ5SablTunIA-6" value="+ getReport(): String" style="text;strokeColor=none;fillColor=none;align=left;verticalAlign=top;spacingLeft=4;spacingRight=4;overflow=hidden;rotatable=0;points=[[0,0.5],[1,0.5]];portConstraint=eastwest;whiteSpace=wrap;html=1;" parent="tCflyKW4NJ5SablTunIA-1" vertex="1">
          <mxGeometry y="164" width="200" height="26" as="geometry" />
        </mxCell>
        <mxCell id="tCflyKW4NJ5SablTunIA-7" value="Player" style="swimlane;fontStyle=1;align=center;verticalAlign=top;childLayout=stackLayout;horizontal=1;startSize=26;horizontalStack=0;resizeParent=1;resizeParentMax=0;resizeLast=0;collapsible=1;marginBottom=0;whiteSpace=wrap;html=1;" parent="1" vertex="1">
          <mxGeometry x="280" y="392" width="160" height="138" as="geometry" />
        </mxCell>
        <mxCell id="tCflyKW4NJ5SablTunIA-8" value="- name: String" style="text;strokeColor=none;fillColor=none;align=left;verticalAlign=top;spacingLeft=4;spacingRight=4;overflow=hidden;rotatable=0;points=[[0,0.5],[1,0.5]];portConstraint=eastwest;whiteSpace=wrap;html=1;" parent="tCflyKW4NJ5SablTunIA-7" vertex="1">
          <mxGeometry y="26" width="160" height="26" as="geometry" />
        </mxCell>
        <mxCell id="tCflyKW4NJ5SablTunIA-9" value="" style="line;strokeWidth=1;fillColor=none;align=left;verticalAlign=middle;spacingTop=-1;spacingLeft=3;spacingRight=3;rotatable=0;labelPosition=right;points=[];portConstraint=eastwest;strokeColor=inherit;" parent="tCflyKW4NJ5SablTunIA-7" vertex="1">
          <mxGeometry y="52" width="160" height="8" as="geometry" />
        </mxCell>
        <mxCell id="jZJ8QRMHF9Mhpr9oY-7W-1" value="+ split(): void" style="text;strokeColor=none;fillColor=none;align=left;verticalAlign=top;spacingLeft=4;spacingRight=4;overflow=hidden;rotatable=0;points=[[0,0.5],[1,0.5]];portConstraint=eastwest;whiteSpace=wrap;html=1;" parent="tCflyKW4NJ5SablTunIA-7" vertex="1">
          <mxGeometry y="60" width="160" height="26" as="geometry" />
        </mxCell>
        <mxCell id="jZJ8QRMHF9Mhpr9oY-7W-2" value="+ doubleDown(): void" style="text;strokeColor=none;fillColor=none;align=left;verticalAlign=top;spacingLeft=4;spacingRight=4;overflow=hidden;rotatable=0;points=[[0,0.5],[1,0.5]];portConstraint=eastwest;whiteSpace=wrap;html=1;" parent="tCflyKW4NJ5SablTunIA-7" vertex="1">
          <mxGeometry y="86" width="160" height="26" as="geometry" />
        </mxCell>
        <mxCell id="jZJ8QRMHF9Mhpr9oY-7W-3" value="+ surrender(): void" style="text;strokeColor=none;fillColor=none;align=left;verticalAlign=top;spacingLeft=4;spacingRight=4;overflow=hidden;rotatable=0;points=[[0,0.5],[1,0.5]];portConstraint=eastwest;whiteSpace=wrap;html=1;" parent="tCflyKW4NJ5SablTunIA-7" vertex="1">
          <mxGeometry y="112" width="160" height="26" as="geometry" />
        </mxCell>
        <mxCell id="tCflyKW4NJ5SablTunIA-10" value="Dealer" style="swimlane;fontStyle=1;align=center;verticalAlign=top;childLayout=stackLayout;horizontal=1;startSize=26;horizontalStack=0;resizeParent=1;resizeParentMax=0;resizeLast=0;collapsible=1;marginBottom=0;whiteSpace=wrap;html=1;" parent="1" vertex="1">
          <mxGeometry x="300" y="89" width="160" height="60" as="geometry" />
        </mxCell>
        <mxCell id="tCflyKW4NJ5SablTunIA-11" value="" style="line;strokeWidth=1;fillColor=none;align=left;verticalAlign=middle;spacingTop=-1;spacingLeft=3;spacingRight=3;rotatable=0;labelPosition=right;points=[];portConstraint=eastwest;strokeColor=inherit;" parent="tCflyKW4NJ5SablTunIA-10" vertex="1">
          <mxGeometry y="26" width="160" height="8" as="geometry" />
        </mxCell>
        <mxCell id="YwgAW-r078sCTE4GwzJS-1" value="+ dealCard(): Card" style="text;strokeColor=none;fillColor=none;align=left;verticalAlign=top;spacingLeft=4;spacingRight=4;overflow=hidden;rotatable=0;points=[[0,0.5],[1,0.5]];portConstraint=eastwest;whiteSpace=wrap;html=1;" parent="tCflyKW4NJ5SablTunIA-10" vertex="1">
          <mxGeometry y="34" width="160" height="26" as="geometry" />
        </mxCell>
        <mxCell id="tCflyKW4NJ5SablTunIA-12" value="Bet" style="swimlane;fontStyle=1;align=center;verticalAlign=top;childLayout=stackLayout;horizontal=1;startSize=26;horizontalStack=0;resizeParent=1;resizeParentMax=0;resizeLast=0;collapsible=1;marginBottom=0;whiteSpace=wrap;html=1;" parent="1" vertex="1">
          <mxGeometry x="290" y="188" width="160" height="138" as="geometry" />
        </mxCell>
        <mxCell id="tCflyKW4NJ5SablTunIA-13" value="- amount: int" style="text;strokeColor=none;fillColor=none;align=left;verticalAlign=top;spacingLeft=4;spacingRight=4;overflow=hidden;rotatable=0;points=[[0,0.5],[1,0.5]];portConstraint=eastwest;whiteSpace=wrap;html=1;" parent="tCflyKW4NJ5SablTunIA-12" vertex="1">
          <mxGeometry y="26" width="160" height="26" as="geometry" />
        </mxCell>
        <mxCell id="tCflyKW4NJ5SablTunIA-14" value="" style="line;strokeWidth=1;fillColor=none;align=left;verticalAlign=middle;spacingTop=-1;spacingLeft=3;spacingRight=3;rotatable=0;labelPosition=right;points=[];portConstraint=eastwest;strokeColor=inherit;" parent="tCflyKW4NJ5SablTunIA-12" vertex="1">
          <mxGeometry y="52" width="160" height="8" as="geometry" />
        </mxCell>
        <mxCell id="tCflyKW4NJ5SablTunIA-15" value="+ getDouble(): int" style="text;strokeColor=none;fillColor=none;align=left;verticalAlign=top;spacingLeft=4;spacingRight=4;overflow=hidden;rotatable=0;points=[[0,0.5],[1,0.5]];portConstraint=eastwest;whiteSpace=wrap;html=1;" parent="tCflyKW4NJ5SablTunIA-12" vertex="1">
          <mxGeometry y="60" width="160" height="26" as="geometry" />
        </mxCell>
        <mxCell id="tCflyKW4NJ5SablTunIA-16" value="+ getInitialBet(): int" style="text;strokeColor=none;fillColor=none;align=left;verticalAlign=top;spacingLeft=4;spacingRight=4;overflow=hidden;rotatable=0;points=[[0,0.5],[1,0.5]];portConstraint=eastwest;whiteSpace=wrap;html=1;" parent="tCflyKW4NJ5SablTunIA-12" vertex="1">
          <mxGeometry y="86" width="160" height="26" as="geometry" />
        </mxCell>
        <mxCell id="tCflyKW4NJ5SablTunIA-17" value="+ getHalf(): int" style="text;strokeColor=none;fillColor=none;align=left;verticalAlign=top;spacingLeft=4;spacingRight=4;overflow=hidden;rotatable=0;points=[[0,0.5],[1,0.5]];portConstraint=eastwest;whiteSpace=wrap;html=1;" parent="tCflyKW4NJ5SablTunIA-12" vertex="1">
          <mxGeometry y="112" width="160" height="26" as="geometry" />
        </mxCell>
        <mxCell id="tCflyKW4NJ5SablTunIA-18" value="Safe" style="swimlane;fontStyle=1;align=center;verticalAlign=top;childLayout=stackLayout;horizontal=1;startSize=26;horizontalStack=0;resizeParent=1;resizeParentMax=0;resizeLast=0;collapsible=1;marginBottom=0;whiteSpace=wrap;html=1;" parent="1" vertex="1">
          <mxGeometry x="490" y="510" width="160" height="138" as="geometry" />
        </mxCell>
        <mxCell id="tCflyKW4NJ5SablTunIA-19" value="- balance: int" style="text;strokeColor=none;fillColor=none;align=left;verticalAlign=top;spacingLeft=4;spacingRight=4;overflow=hidden;rotatable=0;points=[[0,0.5],[1,0.5]];portConstraint=eastwest;whiteSpace=wrap;html=1;" parent="tCflyKW4NJ5SablTunIA-18" vertex="1">
          <mxGeometry y="26" width="160" height="26" as="geometry" />
        </mxCell>
        <mxCell id="tCflyKW4NJ5SablTunIA-20" value="" style="line;strokeWidth=1;fillColor=none;align=left;verticalAlign=middle;spacingTop=-1;spacingLeft=3;spacingRight=3;rotatable=0;labelPosition=right;points=[];portConstraint=eastwest;strokeColor=inherit;" parent="tCflyKW4NJ5SablTunIA-18" vertex="1">
          <mxGeometry y="52" width="160" height="8" as="geometry" />
        </mxCell>
        <mxCell id="tCflyKW4NJ5SablTunIA-21" value="+ Safe()" style="text;strokeColor=none;fillColor=none;align=left;verticalAlign=top;spacingLeft=4;spacingRight=4;overflow=hidden;rotatable=0;points=[[0,0.5],[1,0.5]];portConstraint=eastwest;whiteSpace=wrap;html=1;" parent="tCflyKW4NJ5SablTunIA-18" vertex="1">
          <mxGeometry y="60" width="160" height="26" as="geometry" />
        </mxCell>
        <mxCell id="tCflyKW4NJ5SablTunIA-22" value="+ setChip(value: int)" style="text;strokeColor=none;fillColor=none;align=left;verticalAlign=top;spacingLeft=4;spacingRight=4;overflow=hidden;rotatable=0;points=[[0,0.5],[1,0.5]];portConstraint=eastwest;whiteSpace=wrap;html=1;" parent="tCflyKW4NJ5SablTunIA-18" vertex="1">
          <mxGeometry y="86" width="160" height="26" as="geometry" />
        </mxCell>
        <mxCell id="ywezovwVp0_dba5MfZRh-1" value="+ getChip(value: int)" style="text;strokeColor=none;fillColor=none;align=left;verticalAlign=top;spacingLeft=4;spacingRight=4;overflow=hidden;rotatable=0;points=[[0,0.5],[1,0.5]];portConstraint=eastwest;whiteSpace=wrap;html=1;" parent="tCflyKW4NJ5SablTunIA-18" vertex="1">
          <mxGeometry y="112" width="160" height="26" as="geometry" />
        </mxCell>
        <mxCell id="tCflyKW4NJ5SablTunIA-23" value="Deck" style="swimlane;fontStyle=1;align=center;verticalAlign=top;childLayout=stackLayout;horizontal=1;startSize=26;horizontalStack=0;resizeParent=1;resizeParentMax=0;resizeLast=0;collapsible=1;marginBottom=0;whiteSpace=wrap;html=1;" parent="1" vertex="1">
          <mxGeometry x="740" y="188" width="145" height="138" as="geometry" />
        </mxCell>
        <mxCell id="-mJrdyQ3aU1VYNOPDsgk-3" value="- numOfCards: int" style="text;strokeColor=none;fillColor=none;align=left;verticalAlign=top;spacingLeft=4;spacingRight=4;overflow=hidden;rotatable=0;points=[[0,0.5],[1,0.5]];portConstraint=eastwest;whiteSpace=wrap;html=1;" parent="tCflyKW4NJ5SablTunIA-23" vertex="1">
          <mxGeometry y="26" width="145" height="26" as="geometry" />
        </mxCell>
        <mxCell id="tCflyKW4NJ5SablTunIA-24" value="" style="line;strokeWidth=1;fillColor=none;align=left;verticalAlign=middle;spacingTop=-1;spacingLeft=3;spacingRight=3;rotatable=0;labelPosition=right;points=[];portConstraint=eastwest;strokeColor=inherit;" parent="tCflyKW4NJ5SablTunIA-23" vertex="1">
          <mxGeometry y="52" width="145" height="8" as="geometry" />
        </mxCell>
        <mxCell id="tCflyKW4NJ5SablTunIA-25" value="+ shuffle()" style="text;strokeColor=none;fillColor=none;align=left;verticalAlign=top;spacingLeft=4;spacingRight=4;overflow=hidden;rotatable=0;points=[[0,0.5],[1,0.5]];portConstraint=eastwest;whiteSpace=wrap;html=1;" parent="tCflyKW4NJ5SablTunIA-23" vertex="1">
          <mxGeometry y="60" width="145" height="26" as="geometry" />
        </mxCell>
        <mxCell id="tCflyKW4NJ5SablTunIA-26" value="+ drawCard(): Card" style="text;strokeColor=none;fillColor=none;align=left;verticalAlign=top;spacingLeft=4;spacingRight=4;overflow=hidden;rotatable=0;points=[[0,0.5],[1,0.5]];portConstraint=eastwest;whiteSpace=wrap;html=1;" parent="tCflyKW4NJ5SablTunIA-23" vertex="1">
          <mxGeometry y="86" width="145" height="26" as="geometry" />
        </mxCell>
        <mxCell id="tCflyKW4NJ5SablTunIA-27" value="&lt;div&gt;+ getCards(): List&amp;lt;Card&amp;gt;&lt;/div&gt;&lt;div&gt;&lt;br&gt;&lt;/div&gt;" style="text;strokeColor=none;fillColor=none;align=left;verticalAlign=top;spacingLeft=4;spacingRight=4;overflow=hidden;rotatable=0;points=[[0,0.5],[1,0.5]];portConstraint=eastwest;whiteSpace=wrap;html=1;" parent="tCflyKW4NJ5SablTunIA-23" vertex="1">
          <mxGeometry y="112" width="145" height="26" as="geometry" />
        </mxCell>
        <mxCell id="tCflyKW4NJ5SablTunIA-28" value="Chip" style="swimlane;fontStyle=1;align=center;verticalAlign=top;childLayout=stackLayout;horizontal=1;startSize=26;horizontalStack=0;resizeParent=1;resizeParentMax=0;resizeLast=0;collapsible=1;marginBottom=0;whiteSpace=wrap;html=1;" parent="1" vertex="1">
          <mxGeometry x="710" y="523" width="160" height="86" as="geometry" />
        </mxCell>
        <mxCell id="tCflyKW4NJ5SablTunIA-29" value="- value: int" style="text;strokeColor=none;fillColor=none;align=left;verticalAlign=top;spacingLeft=4;spacingRight=4;overflow=hidden;rotatable=0;points=[[0,0.5],[1,0.5]];portConstraint=eastwest;whiteSpace=wrap;html=1;" parent="tCflyKW4NJ5SablTunIA-28" vertex="1">
          <mxGeometry y="26" width="160" height="26" as="geometry" />
        </mxCell>
        <mxCell id="tCflyKW4NJ5SablTunIA-30" value="" style="line;strokeWidth=1;fillColor=none;align=left;verticalAlign=middle;spacingTop=-1;spacingLeft=3;spacingRight=3;rotatable=0;labelPosition=right;points=[];portConstraint=eastwest;strokeColor=inherit;" parent="tCflyKW4NJ5SablTunIA-28" vertex="1">
          <mxGeometry y="52" width="160" height="8" as="geometry" />
        </mxCell>
        <mxCell id="tCflyKW4NJ5SablTunIA-31" value="+ Chip(value: int)" style="text;strokeColor=none;fillColor=none;align=left;verticalAlign=top;spacingLeft=4;spacingRight=4;overflow=hidden;rotatable=0;points=[[0,0.5],[1,0.5]];portConstraint=eastwest;whiteSpace=wrap;html=1;" parent="tCflyKW4NJ5SablTunIA-28" vertex="1">
          <mxGeometry y="60" width="160" height="26" as="geometry" />
        </mxCell>
        <mxCell id="tCflyKW4NJ5SablTunIA-32" value="Card" style="swimlane;fontStyle=1;align=center;verticalAlign=top;childLayout=stackLayout;horizontal=1;startSize=26;horizontalStack=0;resizeParent=1;resizeParentMax=0;resizeLast=0;collapsible=1;marginBottom=0;whiteSpace=wrap;html=1;" parent="1" vertex="1">
          <mxGeometry x="927.5" y="340" width="120" height="138" as="geometry" />
        </mxCell>
        <mxCell id="tCflyKW4NJ5SablTunIA-33" value="- suit: int" style="text;strokeColor=none;fillColor=none;align=left;verticalAlign=top;spacingLeft=4;spacingRight=4;overflow=hidden;rotatable=0;points=[[0,0.5],[1,0.5]];portConstraint=eastwest;whiteSpace=wrap;html=1;" parent="tCflyKW4NJ5SablTunIA-32" vertex="1">
          <mxGeometry y="26" width="120" height="26" as="geometry" />
        </mxCell>
        <mxCell id="tCflyKW4NJ5SablTunIA-34" value="- rank: int" style="text;strokeColor=none;fillColor=none;align=left;verticalAlign=top;spacingLeft=4;spacingRight=4;overflow=hidden;rotatable=0;points=[[0,0.5],[1,0.5]];portConstraint=eastwest;whiteSpace=wrap;html=1;" parent="tCflyKW4NJ5SablTunIA-32" vertex="1">
          <mxGeometry y="52" width="120" height="26" as="geometry" />
        </mxCell>
        <mxCell id="tCflyKW4NJ5SablTunIA-35" value="/ value: int" style="text;strokeColor=none;fillColor=none;align=left;verticalAlign=top;spacingLeft=4;spacingRight=4;overflow=hidden;rotatable=0;points=[[0,0.5],[1,0.5]];portConstraint=eastwest;whiteSpace=wrap;html=1;" parent="tCflyKW4NJ5SablTunIA-32" vertex="1">
          <mxGeometry y="78" width="120" height="26" as="geometry" />
        </mxCell>
        <mxCell id="NbZMfGdfdiLOW3p82viK-1" value="- isFaceUp:&amp;nbsp;boolean" style="text;strokeColor=none;fillColor=none;align=left;verticalAlign=top;spacingLeft=4;spacingRight=4;overflow=hidden;rotatable=0;points=[[0,0.5],[1,0.5]];portConstraint=eastwest;whiteSpace=wrap;html=1;" parent="tCflyKW4NJ5SablTunIA-32" vertex="1">
          <mxGeometry y="104" width="120" height="26" as="geometry" />
        </mxCell>
        <mxCell id="tCflyKW4NJ5SablTunIA-36" value="" style="line;strokeWidth=1;fillColor=none;align=left;verticalAlign=middle;spacingTop=-1;spacingLeft=3;spacingRight=3;rotatable=0;labelPosition=right;points=[];portConstraint=eastwest;strokeColor=inherit;" parent="tCflyKW4NJ5SablTunIA-32" vertex="1">
          <mxGeometry y="130" width="120" height="8" as="geometry" />
        </mxCell>
        <mxCell id="tCflyKW4NJ5SablTunIA-37" value="Hand" style="swimlane;fontStyle=1;align=center;verticalAlign=top;childLayout=stackLayout;horizontal=1;startSize=26;horizontalStack=0;resizeParent=1;resizeParentMax=0;resizeLast=0;collapsible=1;marginBottom=0;whiteSpace=wrap;html=1;" parent="1" vertex="1">
          <mxGeometry x="540" y="296" width="190" height="138" as="geometry" />
        </mxCell>
        <mxCell id="tCflyKW4NJ5SablTunIA-38" value="" style="line;strokeWidth=1;fillColor=none;align=left;verticalAlign=middle;spacingTop=-1;spacingLeft=3;spacingRight=3;rotatable=0;labelPosition=right;points=[];portConstraint=eastwest;strokeColor=inherit;" parent="tCflyKW4NJ5SablTunIA-37" vertex="1">
          <mxGeometry y="26" width="190" height="8" as="geometry" />
        </mxCell>
        <mxCell id="tCflyKW4NJ5SablTunIA-39" value="+ Hand(card1: Card, card2: Card)" style="text;strokeColor=none;fillColor=none;align=left;verticalAlign=top;spacingLeft=4;spacingRight=4;overflow=hidden;rotatable=0;points=[[0,0.5],[1,0.5]];portConstraint=eastwest;whiteSpace=wrap;html=1;" parent="tCflyKW4NJ5SablTunIA-37" vertex="1">
          <mxGeometry y="34" width="190" height="26" as="geometry" />
        </mxCell>
        <mxCell id="tCflyKW4NJ5SablTunIA-40" value="+ addCard(card: Card)" style="text;strokeColor=none;fillColor=none;align=left;verticalAlign=top;spacingLeft=4;spacingRight=4;overflow=hidden;rotatable=0;points=[[0,0.5],[1,0.5]];portConstraint=eastwest;whiteSpace=wrap;html=1;" parent="tCflyKW4NJ5SablTunIA-37" vertex="1">
          <mxGeometry y="60" width="190" height="26" as="geometry" />
        </mxCell>
        <mxCell id="tCflyKW4NJ5SablTunIA-41" value="+ removeCard(card: Card)" style="text;strokeColor=none;fillColor=none;align=left;verticalAlign=top;spacingLeft=4;spacingRight=4;overflow=hidden;rotatable=0;points=[[0,0.5],[1,0.5]];portConstraint=eastwest;whiteSpace=wrap;html=1;" parent="tCflyKW4NJ5SablTunIA-37" vertex="1">
          <mxGeometry y="86" width="190" height="26" as="geometry" />
        </mxCell>
        <mxCell id="tCflyKW4NJ5SablTunIA-42" value="+ getCards(): List&amp;lt;Card&amp;gt;" style="text;strokeColor=none;fillColor=none;align=left;verticalAlign=top;spacingLeft=4;spacingRight=4;overflow=hidden;rotatable=0;points=[[0,0.5],[1,0.5]];portConstraint=eastwest;whiteSpace=wrap;html=1;" parent="tCflyKW4NJ5SablTunIA-37" vertex="1">
          <mxGeometry y="112" width="190" height="26" as="geometry" />
        </mxCell>
        <mxCell id="tCflyKW4NJ5SablTunIA-44" value="&lt;div&gt;&lt;span style=&quot;background-color: initial;&quot;&gt;* Player must have their safe since they cannot play the game without it.&lt;/span&gt;&lt;/div&gt;&lt;div&gt;&lt;span style=&quot;background-color: initial;&quot;&gt;** Player&#39;s hand is not mandatory before game starts&lt;/span&gt;&lt;/div&gt;" style="shape=note;size=20;whiteSpace=wrap;html=1;labelBackgroundColor=none;fillColor=#182E3E;strokeColor=#FFFFFF;fontColor=#FFFFFF;" parent="1" vertex="1">
          <mxGeometry x="230" y="540" width="200" height="100" as="geometry" />
        </mxCell>
        <mxCell id="tCflyKW4NJ5SablTunIA-45" value="" style="endArrow=open;html=1;rounded=0;endFill=0;startArrow=diamond;startFill=0;" parent="1" source="tCflyKW4NJ5SablTunIA-1" target="tCflyKW4NJ5SablTunIA-10" edge="1">
          <mxGeometry relative="1" as="geometry">
            <mxPoint x="120" y="110" as="sourcePoint" />
            <mxPoint x="260" y="110" as="targetPoint" />
          </mxGeometry>
        </mxCell>
        <mxCell id="tCflyKW4NJ5SablTunIA-46" value="dealer" style="edgeLabel;resizable=0;html=1;align=center;verticalAlign=middle;" parent="tCflyKW4NJ5SablTunIA-45" connectable="0" vertex="1">
          <mxGeometry relative="1" as="geometry">
            <mxPoint x="2" y="-9" as="offset" />
          </mxGeometry>
        </mxCell>
        <mxCell id="tCflyKW4NJ5SablTunIA-47" value="1" style="edgeLabel;resizable=0;html=1;align=right;verticalAlign=bottom;" parent="tCflyKW4NJ5SablTunIA-45" connectable="0" vertex="1">
          <mxGeometry x="1" relative="1" as="geometry">
            <mxPoint x="-11" y="18" as="offset" />
          </mxGeometry>
        </mxCell>
        <mxCell id="tCflyKW4NJ5SablTunIA-48" value="" style="endArrow=open;html=1;rounded=0;endFill=0;startArrow=diamond;startFill=0;" parent="1" source="tCflyKW4NJ5SablTunIA-1" target="tCflyKW4NJ5SablTunIA-12" edge="1">
          <mxGeometry relative="1" as="geometry">
            <mxPoint x="90" y="310" as="sourcePoint" />
            <mxPoint x="230" y="310" as="targetPoint" />
          </mxGeometry>
        </mxCell>
        <mxCell id="tCflyKW4NJ5SablTunIA-49" value="bet" style="edgeLabel;resizable=0;html=1;align=center;verticalAlign=middle;" parent="tCflyKW4NJ5SablTunIA-48" connectable="0" vertex="1">
          <mxGeometry relative="1" as="geometry">
            <mxPoint x="9" y="-9" as="offset" />
          </mxGeometry>
        </mxCell>
        <mxCell id="tCflyKW4NJ5SablTunIA-50" value="1" style="edgeLabel;resizable=0;html=1;align=right;verticalAlign=bottom;" parent="tCflyKW4NJ5SablTunIA-48" connectable="0" vertex="1">
          <mxGeometry x="1" relative="1" as="geometry">
            <mxPoint x="-10" y="-14" as="offset" />
          </mxGeometry>
        </mxCell>
        <mxCell id="tCflyKW4NJ5SablTunIA-51" value="" style="endArrow=open;html=1;rounded=0;endFill=0;startArrow=diamond;startFill=1;" parent="1" source="tCflyKW4NJ5SablTunIA-1" target="tCflyKW4NJ5SablTunIA-7" edge="1">
          <mxGeometry relative="1" as="geometry">
            <mxPoint x="50" y="390" as="sourcePoint" />
            <mxPoint x="190" y="390" as="targetPoint" />
          </mxGeometry>
        </mxCell>
        <mxCell id="tCflyKW4NJ5SablTunIA-52" value="player" style="edgeLabel;resizable=0;html=1;align=center;verticalAlign=middle;" parent="tCflyKW4NJ5SablTunIA-51" connectable="0" vertex="1">
          <mxGeometry relative="1" as="geometry">
            <mxPoint x="-15" y="13" as="offset" />
          </mxGeometry>
        </mxCell>
        <mxCell id="tCflyKW4NJ5SablTunIA-53" value="1" style="edgeLabel;resizable=0;html=1;align=right;verticalAlign=bottom;" parent="tCflyKW4NJ5SablTunIA-51" connectable="0" vertex="1">
          <mxGeometry x="1" relative="1" as="geometry">
            <mxPoint x="12" y="-3" as="offset" />
          </mxGeometry>
        </mxCell>
        <mxCell id="tCflyKW4NJ5SablTunIA-54" value="&lt;i&gt;GameObject&lt;/i&gt;" style="swimlane;html=1;fontStyle=1;align=center;verticalAlign=top;childLayout=stackLayout;horizontal=1;startSize=26;horizontalStack=0;resizeParent=1;resizeLast=0;collapsible=1;marginBottom=0;swimlaneFillColor=#ffffff;rounded=0;shadow=0;comic=0;labelBackgroundColor=none;strokeWidth=1;fillColor=none;fontFamily=Verdana;fontSize=12" parent="1" vertex="1">
          <mxGeometry x="605" y="63" width="160" height="86" as="geometry" />
        </mxCell>
        <mxCell id="iIXmJbExbQStG3d0n2Wg-1" value="- gameState: int" style="text;html=1;strokeColor=none;fillColor=none;align=left;verticalAlign=top;spacingLeft=4;spacingRight=4;whiteSpace=wrap;overflow=hidden;rotatable=0;points=[[0,0.5],[1,0.5]];portConstraint=eastwest;" parent="tCflyKW4NJ5SablTunIA-54" vertex="1">
          <mxGeometry y="26" width="160" height="26" as="geometry" />
        </mxCell>
        <mxCell id="tCflyKW4NJ5SablTunIA-55" value="- additionalState: int" style="text;html=1;strokeColor=none;fillColor=none;align=left;verticalAlign=top;spacingLeft=4;spacingRight=4;whiteSpace=wrap;overflow=hidden;rotatable=0;points=[[0,0.5],[1,0.5]];portConstraint=eastwest;" parent="tCflyKW4NJ5SablTunIA-54" vertex="1">
          <mxGeometry y="52" width="160" height="26" as="geometry" />
        </mxCell>
        <mxCell id="tCflyKW4NJ5SablTunIA-56" value="" style="line;html=1;strokeWidth=1;fillColor=none;align=left;verticalAlign=middle;spacingTop=-1;spacingLeft=3;spacingRight=3;rotatable=0;labelPosition=right;points=[];portConstraint=eastwest;" parent="tCflyKW4NJ5SablTunIA-54" vertex="1">
          <mxGeometry y="78" width="160" height="8" as="geometry" />
        </mxCell>
        <mxCell id="tCflyKW4NJ5SablTunIA-59" value="&lt;div&gt;&lt;span style=&quot;font-weight: normal;&quot;&gt;&amp;lt;&amp;lt;interface&amp;gt;&amp;gt;&lt;/span&gt;&lt;/div&gt;&lt;div&gt;&lt;i&gt;Valueable&lt;/i&gt;&lt;/div&gt;" style="swimlane;html=1;fontStyle=1;align=center;verticalAlign=top;childLayout=stackLayout;horizontal=1;startSize=40;horizontalStack=0;resizeParent=1;resizeLast=0;collapsible=1;marginBottom=0;swimlaneFillColor=#ffffff;rounded=0;shadow=0;comic=0;labelBackgroundColor=none;strokeWidth=1;fillColor=none;fontFamily=Verdana;fontSize=12" parent="1" vertex="1">
          <mxGeometry x="927.5" y="510" width="160" height="80" as="geometry" />
        </mxCell>
        <mxCell id="tCflyKW4NJ5SablTunIA-60" value="" style="line;html=1;strokeWidth=1;fillColor=none;align=left;verticalAlign=middle;spacingTop=-1;spacingLeft=3;spacingRight=3;rotatable=0;labelPosition=right;points=[];portConstraint=eastwest;" parent="tCflyKW4NJ5SablTunIA-59" vertex="1">
          <mxGeometry y="40" width="160" height="8" as="geometry" />
        </mxCell>
        <mxCell id="tCflyKW4NJ5SablTunIA-61" value="&lt;i&gt;+ getValue(): int&amp;nbsp;&lt;/i&gt;" style="text;html=1;strokeColor=none;fillColor=none;align=left;verticalAlign=top;spacingLeft=4;spacingRight=4;whiteSpace=wrap;overflow=hidden;rotatable=0;points=[[0,0.5],[1,0.5]];portConstraint=eastwest;" parent="tCflyKW4NJ5SablTunIA-59" vertex="1">
          <mxGeometry y="48" width="160" height="26" as="geometry" />
        </mxCell>
        <mxCell id="tCflyKW4NJ5SablTunIA-62" value="Abstract class to represent either player or dealer are playable (able to report their game state and additional state)" style="shape=note;size=20;whiteSpace=wrap;html=1;labelBackgroundColor=none;fillColor=#182E3E;strokeColor=#FFFFFF;fontColor=#FFFFFF;" parent="1" vertex="1">
          <mxGeometry x="770" y="50" width="230" height="90" as="geometry" />
        </mxCell>
        <mxCell id="tCflyKW4NJ5SablTunIA-63" value="Interface to represent any obects having its value within the game" style="shape=note;size=20;whiteSpace=wrap;html=1;labelBackgroundColor=none;fillColor=#182E3E;strokeColor=#FFFFFF;fontColor=#FFFFFF;" parent="1" vertex="1">
          <mxGeometry x="897.5" y="600" width="190" height="80" as="geometry" />
        </mxCell>
        <mxCell id="tCflyKW4NJ5SablTunIA-64" value="" style="endArrow=block;html=1;rounded=0;endFill=0;" parent="1" source="tCflyKW4NJ5SablTunIA-10" target="tCflyKW4NJ5SablTunIA-54" edge="1">
          <mxGeometry relative="1" as="geometry">
            <mxPoint x="450" y="105.41" as="sourcePoint" />
            <mxPoint x="585" y="105.69999999999996" as="targetPoint" />
          </mxGeometry>
        </mxCell>
        <mxCell id="tCflyKW4NJ5SablTunIA-65" value="" style="endArrow=block;html=1;rounded=0;dashed=1;endFill=0;" parent="1" source="tCflyKW4NJ5SablTunIA-32" target="tCflyKW4NJ5SablTunIA-59" edge="1">
          <mxGeometry relative="1" as="geometry">
            <mxPoint x="1040" y="480" as="sourcePoint" />
            <mxPoint x="1110" y="550" as="targetPoint" />
          </mxGeometry>
        </mxCell>
        <mxCell id="tCflyKW4NJ5SablTunIA-66" value="" style="endArrow=block;html=1;rounded=0;dashed=1;endFill=0;" parent="1" source="tCflyKW4NJ5SablTunIA-28" target="tCflyKW4NJ5SablTunIA-59" edge="1">
          <mxGeometry relative="1" as="geometry">
            <mxPoint x="1013" y="650" as="sourcePoint" />
            <mxPoint x="1145" y="650.29" as="targetPoint" />
          </mxGeometry>
        </mxCell>
        <mxCell id="tCflyKW4NJ5SablTunIA-67" value="" style="endArrow=open;html=1;rounded=0;endFill=0;startArrow=diamond;startFill=1;" parent="1" source="tCflyKW4NJ5SablTunIA-10" target="tCflyKW4NJ5SablTunIA-37" edge="1">
          <mxGeometry relative="1" as="geometry">
            <mxPoint x="435" y="118.41" as="sourcePoint" />
            <mxPoint x="575" y="118.41" as="targetPoint" />
          </mxGeometry>
        </mxCell>
        <mxCell id="tCflyKW4NJ5SablTunIA-68" value="hands" style="edgeLabel;resizable=0;html=1;align=center;verticalAlign=middle;" parent="tCflyKW4NJ5SablTunIA-67" connectable="0" vertex="1">
          <mxGeometry relative="1" as="geometry">
            <mxPoint x="7" y="-14" as="offset" />
          </mxGeometry>
        </mxCell>
        <mxCell id="tCflyKW4NJ5SablTunIA-69" value="1" style="edgeLabel;resizable=0;html=1;align=right;verticalAlign=bottom;" parent="tCflyKW4NJ5SablTunIA-67" connectable="0" vertex="1">
          <mxGeometry x="1" relative="1" as="geometry">
            <mxPoint x="-17" y="2" as="offset" />
          </mxGeometry>
        </mxCell>
        <mxCell id="tCflyKW4NJ5SablTunIA-70" value="" style="endArrow=open;html=1;rounded=0;endFill=0;startArrow=diamond;startFill=0;" parent="1" source="tCflyKW4NJ5SablTunIA-7" target="tCflyKW4NJ5SablTunIA-37" edge="1">
          <mxGeometry relative="1" as="geometry">
            <mxPoint x="430" y="440" as="sourcePoint" />
            <mxPoint x="570" y="440" as="targetPoint" />
          </mxGeometry>
        </mxCell>
        <mxCell id="tCflyKW4NJ5SablTunIA-71" value="hands" style="edgeLabel;resizable=0;html=1;align=center;verticalAlign=middle;" parent="tCflyKW4NJ5SablTunIA-70" connectable="0" vertex="1">
          <mxGeometry relative="1" as="geometry">
            <mxPoint x="2" y="11" as="offset" />
          </mxGeometry>
        </mxCell>
        <mxCell id="tCflyKW4NJ5SablTunIA-72" value="0...2" style="edgeLabel;resizable=0;html=1;align=right;verticalAlign=bottom;" parent="tCflyKW4NJ5SablTunIA-70" connectable="0" vertex="1">
          <mxGeometry x="1" relative="1" as="geometry">
            <mxPoint x="-7" y="2" as="offset" />
          </mxGeometry>
        </mxCell>
        <mxCell id="tCflyKW4NJ5SablTunIA-73" value="" style="endArrow=block;html=1;rounded=0;endFill=0;" parent="1" source="tCflyKW4NJ5SablTunIA-7" target="tCflyKW4NJ5SablTunIA-54" edge="1">
          <mxGeometry relative="1" as="geometry">
            <mxPoint x="460" y="115.41" as="sourcePoint" />
            <mxPoint x="595" y="115.69999999999996" as="targetPoint" />
          </mxGeometry>
        </mxCell>
        <mxCell id="tCflyKW4NJ5SablTunIA-74" value="" style="endArrow=open;html=1;rounded=0;endFill=0;startArrow=diamond;startFill=0;" parent="1" source="tCflyKW4NJ5SablTunIA-23" target="tCflyKW4NJ5SablTunIA-32" edge="1">
          <mxGeometry relative="1" as="geometry">
            <mxPoint x="780" y="407" as="sourcePoint" />
            <mxPoint x="831" y="455" as="targetPoint" />
          </mxGeometry>
        </mxCell>
        <mxCell id="tCflyKW4NJ5SablTunIA-75" value="cards" style="edgeLabel;resizable=0;html=1;align=center;verticalAlign=middle;" parent="tCflyKW4NJ5SablTunIA-74" connectable="0" vertex="1">
          <mxGeometry relative="1" as="geometry">
            <mxPoint y="-17" as="offset" />
          </mxGeometry>
        </mxCell>
        <mxCell id="tCflyKW4NJ5SablTunIA-76" value="0...52" style="edgeLabel;resizable=0;html=1;align=right;verticalAlign=bottom;" parent="tCflyKW4NJ5SablTunIA-74" connectable="0" vertex="1">
          <mxGeometry x="1" relative="1" as="geometry">
            <mxPoint x="-11" y="8" as="offset" />
          </mxGeometry>
        </mxCell>
        <mxCell id="tCflyKW4NJ5SablTunIA-77" value="" style="endArrow=open;html=1;rounded=0;endFill=0;startArrow=diamond;startFill=1;" parent="1" source="tCflyKW4NJ5SablTunIA-7" target="tCflyKW4NJ5SablTunIA-18" edge="1">
          <mxGeometry relative="1" as="geometry">
            <mxPoint x="450" y="519" as="sourcePoint" />
            <mxPoint x="620" y="466" as="targetPoint" />
          </mxGeometry>
        </mxCell>
        <mxCell id="tCflyKW4NJ5SablTunIA-78" value="safe" style="edgeLabel;resizable=0;html=1;align=center;verticalAlign=middle;" parent="tCflyKW4NJ5SablTunIA-77" connectable="0" vertex="1">
          <mxGeometry relative="1" as="geometry">
            <mxPoint x="2" y="11" as="offset" />
          </mxGeometry>
        </mxCell>
        <mxCell id="tCflyKW4NJ5SablTunIA-79" value="1" style="edgeLabel;resizable=0;html=1;align=right;verticalAlign=bottom;" parent="tCflyKW4NJ5SablTunIA-77" connectable="0" vertex="1">
          <mxGeometry x="1" relative="1" as="geometry">
            <mxPoint x="-11" y="25" as="offset" />
          </mxGeometry>
        </mxCell>
        <mxCell id="tCflyKW4NJ5SablTunIA-80" value="&lt;div&gt;&lt;b&gt;Requirements&lt;/b&gt;&lt;/div&gt;&lt;div&gt;1. Displaying the game screen&lt;/div&gt;&lt;div&gt;&lt;span style=&quot;&quot;&gt;2.&amp;nbsp;&lt;/span&gt;Displaying and moving the player sprite&amp;nbsp;&lt;/div&gt;&lt;div&gt;&lt;span style=&quot;&quot;&gt;3.&amp;nbsp;&lt;/span&gt;Displaying other attributes within the game&amp;nbsp;&amp;nbsp;&lt;/div&gt;&lt;div&gt;&lt;span style=&quot;&quot;&gt;4.&amp;nbsp;&lt;/span&gt;Displaying the player&#39;s score or other state variables within the game&lt;/div&gt;" style="shape=note;size=20;whiteSpace=wrap;html=1;labelBackgroundColor=none;align=center;" parent="1" vertex="1">
          <mxGeometry x="30" y="650" width="400" height="100" as="geometry" />
        </mxCell>
        <mxCell id="tCflyKW4NJ5SablTunIA-81" value="" style="endArrow=open;html=1;rounded=0;endFill=0;startArrow=diamond;startFill=0;" parent="1" source="tCflyKW4NJ5SablTunIA-18" target="tCflyKW4NJ5SablTunIA-28" edge="1">
          <mxGeometry relative="1" as="geometry">
            <mxPoint x="790" y="459.5" as="sourcePoint" />
            <mxPoint x="850" y="459.5" as="targetPoint" />
          </mxGeometry>
        </mxCell>
        <mxCell id="tCflyKW4NJ5SablTunIA-82" value="chips" style="edgeLabel;resizable=0;html=1;align=center;verticalAlign=middle;" parent="tCflyKW4NJ5SablTunIA-81" connectable="0" vertex="1">
          <mxGeometry relative="1" as="geometry">
            <mxPoint x="2" y="-10" as="offset" />
          </mxGeometry>
        </mxCell>
        <mxCell id="tCflyKW4NJ5SablTunIA-83" value="*" style="edgeLabel;resizable=0;html=1;align=right;verticalAlign=bottom;" parent="tCflyKW4NJ5SablTunIA-81" connectable="0" vertex="1">
          <mxGeometry x="1" relative="1" as="geometry">
            <mxPoint x="-4" y="20" as="offset" />
          </mxGeometry>
        </mxCell>
        <mxCell id="tCflyKW4NJ5SablTunIA-84" value="" style="endArrow=open;html=1;rounded=0;endFill=0;dashed=1;" parent="1" source="tCflyKW4NJ5SablTunIA-1" target="tCflyKW4NJ5SablTunIA-28" edge="1">
          <mxGeometry relative="1" as="geometry">
            <mxPoint x="670" y="730" as="sourcePoint" />
            <mxPoint x="760" y="720" as="targetPoint" />
          </mxGeometry>
        </mxCell>
        <mxCell id="tCflyKW4NJ5SablTunIA-85" value="" style="endArrow=open;html=1;rounded=0;endFill=0;startArrow=diamond;startFill=0;" parent="1" source="tCflyKW4NJ5SablTunIA-37" target="tCflyKW4NJ5SablTunIA-32" edge="1">
          <mxGeometry relative="1" as="geometry">
            <mxPoint x="870" y="437" as="sourcePoint" />
            <mxPoint x="915" y="409" as="targetPoint" />
          </mxGeometry>
        </mxCell>
        <mxCell id="tCflyKW4NJ5SablTunIA-86" value="cards" style="edgeLabel;resizable=0;html=1;align=center;verticalAlign=middle;" parent="tCflyKW4NJ5SablTunIA-85" connectable="0" vertex="1">
          <mxGeometry relative="1" as="geometry">
            <mxPoint x="2" y="-10" as="offset" />
          </mxGeometry>
        </mxCell>
        <mxCell id="tCflyKW4NJ5SablTunIA-87" value="2...*" style="edgeLabel;html=1;align=center;verticalAlign=middle;resizable=0;points=[];" parent="tCflyKW4NJ5SablTunIA-85" vertex="1" connectable="0">
          <mxGeometry x="0.9464" y="-12" relative="1" as="geometry">
            <mxPoint x="-14" as="offset" />
          </mxGeometry>
        </mxCell>
        <mxCell id="tCflyKW4NJ5SablTunIA-88" value="&lt;div&gt;&lt;span style=&quot;background-color: initial;&quot;&gt;* Dealer must have a deck since they cannot play the game without it.&lt;/span&gt;&lt;/div&gt;" style="shape=note;size=20;whiteSpace=wrap;html=1;labelBackgroundColor=none;fillColor=#182E3E;strokeColor=#FFFFFF;fontColor=#FFFFFF;" parent="1" vertex="1">
          <mxGeometry x="280" width="150" height="80" as="geometry" />
        </mxCell>
        <mxCell id="tCflyKW4NJ5SablTunIA-89" value="" style="endArrow=open;html=1;rounded=0;endFill=0;startArrow=diamond;startFill=1;" parent="1" source="tCflyKW4NJ5SablTunIA-10" target="tCflyKW4NJ5SablTunIA-23" edge="1">
          <mxGeometry relative="1" as="geometry">
            <mxPoint x="450" y="127" as="sourcePoint" />
            <mxPoint x="696" y="342" as="targetPoint" />
          </mxGeometry>
        </mxCell>
        <mxCell id="tCflyKW4NJ5SablTunIA-90" value="deck" style="edgeLabel;resizable=0;html=1;align=center;verticalAlign=middle;" parent="tCflyKW4NJ5SablTunIA-89" connectable="0" vertex="1">
          <mxGeometry relative="1" as="geometry">
            <mxPoint x="31" y="23" as="offset" />
          </mxGeometry>
        </mxCell>
        <mxCell id="tCflyKW4NJ5SablTunIA-91" value="1" style="edgeLabel;resizable=0;html=1;align=right;verticalAlign=bottom;" parent="tCflyKW4NJ5SablTunIA-89" connectable="0" vertex="1">
          <mxGeometry x="1" relative="1" as="geometry">
            <mxPoint x="-11" y="18" as="offset" />
          </mxGeometry>
        </mxCell>
        <mxCell id="-mJrdyQ3aU1VYNOPDsgk-1" value="&lt;div&gt;&lt;b&gt;Contributers&lt;/b&gt;:&amp;nbsp;&lt;/div&gt;Jaehoon" style="whiteSpace=wrap;html=1;shape=mxgraph.basic.document" parent="1" vertex="1">
          <mxGeometry x="9" y="8" width="141" height="62" as="geometry" />
        </mxCell>
        <mxCell id="dcW-MptEMCXipTYOBX5L-1" value="" style="endArrow=block;html=1;rounded=0;dashed=1;endFill=0;" parent="1" source="tCflyKW4NJ5SablTunIA-37" target="tCflyKW4NJ5SablTunIA-59" edge="1">
          <mxGeometry relative="1" as="geometry">
            <mxPoint x="800" y="438" as="sourcePoint" />
            <mxPoint x="870" y="434" as="targetPoint" />
          </mxGeometry>
        </mxCell>
      </root>
    </mxGraphModel>
  </diagram>
</mxfile>
